InriaSerif-BoldItalic.ufo
<glyph name="exclam" format="1">
  <advance width="255"/>
  <unicode hex="0021"/>
  <outline>
    <contour>
      <point x="136" y="202" type="line"/>
      <point x="176" y="429"/>
      <point x="226" y="488"/>
      <point x="260" y="680" type="curve"/>
      <point x="145" y="680" type="line"/>
      <point x="111" y="488"/>
      <point x="141" y="429"/>
      <point x="101" y="202" type="curve"/>
    </contour>
    <contour>
      <point x="88" y="-10" type="curve" smooth="yes"/>
      <point x="135" y="-10"/>
      <point x="164" y="25"/>
      <point x="164" y="68" type="curve" smooth="yes"/>
      <point x="164" y="107"/>
      <point x="140" y="131"/>
      <point x="99" y="131" type="curve" smooth="yes"/>
      <point x="52" y="131"/>
      <point x="23" y="96"/>
      <point x="23" y="53" type="curve" smooth="yes"/>
      <point x="23" y="14"/>
      <point x="47" y="-10"/>
    </contour>
  </outline>
</glyph>
<glyph name="quotedbl" format="1">
  <advance width="449"/>
  <unicode hex="0022"/>
  <outline>
    <contour>
      <point x="168" y="407" type="line"/>
      <point x="193" y="544"/>
      <point x="255" y="563"/>
      <point x="255" y="630" type="curve" smooth="yes"/>
      <point x="255" y="669"/>
      <point x="232" y="690"/>
      <point x="199" y="690" type="curve" smooth="yes"/>
      <point x="157" y="690"/>
      <point x="129" y="654"/>
      <point x="129" y="611" type="curve" smooth="yes"/>
      <point x="129" y="566"/>
      <point x="149" y="536"/>
      <point x="149" y="473" type="curve" smooth="yes"/>
      <point x="149" y="454"/>
      <point x="148" y="432"/>
      <point x="143" y="407" type="curve"/>
    </contour>
    <contour>
      <point x="362" y="407" type="line"/>
      <point x="387" y="544"/>
      <point x="449" y="563"/>
      <point x="449" y="630" type="curve" smooth="yes"/>
      <point x="449" y="669"/>
      <point x="426" y="690"/>
      <point x="393" y="690" type="curve" smooth="yes"/>
      <point x="351" y="690"/>
      <point x="323" y="654"/>
      <point x="323" y="611" type="curve" smooth="yes"/>
      <point x="323" y="566"/>
      <point x="343" y="536"/>
      <point x="343" y="473" type="curve" smooth="yes"/>
      <point x="343" y="454"/>
      <point x="342" y="432"/>
      <point x="337" y="407" type="curve"/>
    </contour>
  </outline>
</glyph>
<glyph name="numbersign" format="1">
  <advance width="638"/>
  <unicode hex="0023"/>
  <outline>
    <contour>
      <point x="541" y="210" type="line"/>
      <point x="547" y="245" type="line"/>
      <point x="440" y="245" type="line"/>
      <point x="531" y="435" type="line"/>
      <point x="650" y="435" type="line"/>
      <point x="656" y="470" type="line"/>
      <point x="548" y="470" type="line"/>
      <point x="647" y="676" type="line"/>
      <point x="613" y="690" type="line"/>
      <point x="507" y="470" type="line"/>
      <point x="286" y="470" type="line"/>
      <point x="385" y="676" type="line"/>
      <point x="351" y="690" type="line"/>
      <point x="245" y="470" type="line"/>
      <point x="127" y="470" type="line"/>
      <point x="121" y="435" type="line"/>
      <point x="228" y="435" type="line"/>
      <point x="137" y="245" type="line"/>
      <point x="18" y="245" type="line"/>
      <point x="12" y="210" type="line"/>
      <point x="120" y="210" type="line"/>
      <point x="21" y="4" type="line"/>
      <point x="55" y="-10" type="line"/>
      <point x="161" y="210" type="line"/>
      <point x="382" y="210" type="line"/>
      <point x="283" y="4" type="line"/>
      <point x="317" y="-10" type="line"/>
      <point x="423" y="210" type="line"/>
    </contour>
    <contour>
      <point x="178" y="245" type="line"/>
      <point x="269" y="435" type="line"/>
      <point x="490" y="435" type="line"/>
      <point x="399" y="245" type="line"/>
    </contour>
  </outline>
</glyph>
<glyph name="dollar" format="1">
  <advance width="562"/>
  <unicode hex="0024"/>
  <outline>
    <contour>
      <point x="501" y="200" type="curve" smooth="yes"/>
      <point x="501" y="282"/>
      <point x="456" y="338"/>
      <point x="377" y="371" type="curve" smooth="yes"/>
      <point x="318" y="396" type="line"/>
      <point x="362" y="649" type="line"/>
      <point x="425" y="628"/>
      <point x="439" y="558"/>
      <point x="407" y="462" type="curve"/>
      <point x="526" y="483" type="line"/>
      <point x="550" y="559"/>
      <point x="509" y="669"/>
      <point x="369" y="687" type="curve"/>
      <point x="390" y="805" type="line"/>
      <point x="354" y="805" type="line"/>
      <point x="334" y="690" type="line"/>
      <point x="328" y="690" type="line" smooth="yes"/>
      <point x="171" y="690"/>
      <point x="96" y="603"/>
      <point x="96" y="488" type="curve" smooth="yes"/>
      <point x="96" y="398"/>
      <point x="140" y="340"/>
      <point x="215" y="308" type="curve" smooth="yes"/>
      <point x="263" y="288" type="line"/>
      <point x="217" y="26" type="line"/>
      <point x="142" y="34"/>
      <point x="90" y="76"/>
      <point x="101" y="195" type="curve"/>
      <point x="30" y="171" type="line"/>
      <point x="25" y="49"/>
      <point x="105" y="0"/>
      <point x="210" y="-9" type="curve"/>
      <point x="190" y="-125" type="line"/>
      <point x="226" y="-125" type="line"/>
      <point x="246" y="-10" type="line"/>
      <point x="414" y="-10"/>
      <point x="501" y="83"/>
    </contour>
    <contour>
      <point x="198" y="536" type="curve" smooth="yes"/>
      <point x="198" y="616"/>
      <point x="245" y="655"/>
      <point x="318" y="655" type="curve" smooth="yes"/>
      <point x="327" y="655" type="line"/>
      <point x="284" y="410" type="line"/>
      <point x="220" y="437"/>
      <point x="198" y="477"/>
    </contour>
    <contour>
      <point x="305" y="270" type="line" smooth="yes"/>
      <point x="377" y="240"/>
      <point x="399" y="204"/>
      <point x="399" y="151" type="curve" smooth="yes"/>
      <point x="399" y="73"/>
      <point x="348" y="27"/>
      <point x="252" y="25" type="curve"/>
      <point x="296" y="274" type="line"/>
    </contour>
  </outline>
</glyph>
<glyph name="percent" format="1">
  <advance width="725"/>
  <unicode hex="0025"/>
  <outline>
    <contour>
      <point x="372" y="526" type="line" smooth="yes"/>
      <point x="386" y="616"/>
      <point x="337" y="685"/>
      <point x="240" y="685" type="curve" smooth="yes"/>
      <point x="158" y="685"/>
      <point x="98" y="634"/>
      <point x="84" y="546" type="curve" smooth="yes"/>
      <point x="82" y="533" type="line" smooth="yes"/>
      <point x="68" y="444"/>
      <point x="117" y="375"/>
      <point x="214" y="375" type="curve" smooth="yes"/>
      <point x="297" y="375"/>
      <point x="357" y="426"/>
      <point x="370" y="513" type="curve" smooth="yes"/>
    </contour>
    <contour>
      <point x="607" y="680" type="line"/>
      <point x="118" y="18" type="line"/>
      <point x="145" y="0" type="line"/>
      <point x="634" y="662" type="line"/>
    </contour>
    <contour>
      <point x="294" y="544" type="curve" smooth="yes"/>
      <point x="287" y="504" type="line" smooth="yes"/>
      <point x="275" y="434"/>
      <point x="247" y="403"/>
      <point x="211" y="403" type="curve" smooth="yes"/>
      <point x="171" y="403"/>
      <point x="147" y="441"/>
      <point x="160" y="516" type="curve" smooth="yes"/>
      <point x="167" y="556" type="line" smooth="yes"/>
      <point x="179" y="626"/>
      <point x="206" y="657"/>
      <point x="242" y="657" type="curve" smooth="yes"/>
      <point x="282" y="657"/>
      <point x="307" y="619"/>
    </contour>
    <contour>
      <point x="673" y="146" type="line" smooth="yes"/>
      <point x="687" y="236"/>
      <point x="638" y="305"/>
      <point x="541" y="305" type="curve" smooth="yes"/>
      <point x="459" y="305"/>
      <point x="399" y="254"/>
      <point x="385" y="166" type="curve" smooth="yes"/>
      <point x="383" y="153" type="line" smooth="yes"/>
      <point x="369" y="64"/>
      <point x="418" y="-5"/>
      <point x="515" y="-5" type="curve" smooth="yes"/>
      <point x="598" y="-5"/>
      <point x="658" y="46"/>
      <point x="671" y="133" type="curve" smooth="yes"/>
    </contour>
    <contour>
      <point x="595" y="164" type="curve" smooth="yes"/>
      <point x="588" y="124" type="line" smooth="yes"/>
      <point x="576" y="54"/>
      <point x="548" y="23"/>
      <point x="512" y="23" type="curve" smooth="yes"/>
      <point x="472" y="23"/>
      <point x="448" y="61"/>
      <point x="461" y="136" type="curve" smooth="yes"/>
      <point x="468" y="176" type="line" smooth="yes"/>
      <point x="480" y="246"/>
      <point x="507" y="277"/>
      <point x="543" y="277" type="curve" smooth="yes"/>
      <point x="583" y="277"/>
      <point x="608" y="239"/>
    </contour>
  </outline>
</glyph>
<glyph name="ampersand" format="1">
  <advance width="624"/>
  <unicode hex="0026"/>
  <outline>
    <contour>
      <point x="510" y="178" type="curve" smooth="yes"/>
      <point x="510" y="242"/>
      <point x="478" y="299"/>
      <point x="403" y="340" type="curve"/>
      <point x="475" y="351" type="line" smooth="yes"/>
      <point x="522" y="358"/>
      <point x="570" y="365"/>
      <point x="625" y="378" type="curve"/>
      <point x="602" y="480" type="line"/>
      <point x="545" y="438"/>
      <point x="485" y="411"/>
      <point x="400" y="388" type="curve" smooth="yes"/>
      <point x="288" y="358" type="line"/>
      <point x="252" y="406"/>
      <point x="235" y="479"/>
      <point x="235" y="532" type="curve" smooth="yes"/>
      <point x="235" y="615"/>
      <point x="278" y="655"/>
      <point x="327" y="655" type="curve" smooth="yes"/>
      <point x="388" y="655"/>
      <point x="428" y="591"/>
      <point x="396" y="478" type="curve"/>
      <point x="515" y="504" type="line"/>
      <point x="545" y="600"/>
      <point x="479" y="690"/>
      <point x="328" y="690" type="curve" smooth="yes"/>
      <point x="207" y="690"/>
      <point x="114" y="623"/>
      <point x="114" y="525" type="curve" smooth="yes"/>
      <point x="114" y="453"/>
      <point x="163" y="394"/>
      <point x="247" y="346" type="curve"/>
      <point x="117" y="306"/>
      <point x="24" y="253"/>
      <point x="24" y="145" type="curve" smooth="yes"/>
      <point x="24" y="43"/>
      <point x="109" y="-10"/>
      <point x="248" y="-10" type="curve" smooth="yes"/>
      <point x="406" y="-10"/>
      <point x="510" y="64"/>
    </contour>
    <contour>
      <point x="145" y="151" type="curve" smooth="yes"/>
      <point x="145" y="245"/>
      <point x="196" y="307"/>
      <point x="302" y="324" type="curve" smooth="yes"/>
      <point x="360" y="333" type="line"/>
      <point x="388" y="295"/>
      <point x="401" y="250"/>
      <point x="401" y="199" type="curve" smooth="yes"/>
      <point x="401" y="84"/>
      <point x="340" y="25"/>
      <point x="257" y="25" type="curve" smooth="yes"/>
      <point x="188" y="25"/>
      <point x="145" y="64"/>
    </contour>
  </outline>
</glyph>
<glyph name="quotesingle" format="1">
  <advance width="256"/>
  <unicode hex="0027"/>
  <outline>
    <contour>
      <point x="168" y="407" type="line"/>
      <point x="193" y="544"/>
      <point x="255" y="563"/>
      <point x="255" y="630" type="curve" smooth="yes"/>
      <point x="255" y="669"/>
      <point x="232" y="690"/>
      <point x="199" y="690" type="curve" smooth="yes"/>
      <point x="157" y="690"/>
      <point x="129" y="654"/>
      <point x="129" y="611" type="curve" smooth="yes"/>
      <point x="129" y="566"/>
      <point x="149" y="536"/>
      <point x="149" y="473" type="curve" smooth="yes"/>
      <point x="149" y="454"/>
      <point x="148" y="432"/>
      <point x="143" y="407" type="curve"/>
    </contour>
  </outline>
</glyph>
<glyph name="parenleft" format="1">
  <advance width="333"/>
  <unicode hex="0028"/>
  <outline>
    <contour>
      <point x="65" y="297" type="line" smooth="yes"/>
      <point x="41" y="146"/>
      <point x="95" y="-23"/>
      <point x="228" y="-153" type="curve"/>
      <point x="253" y="-131" type="line"/>
      <point x="170" y="-31"/>
      <point x="156" y="137"/>
      <point x="183" y="278" type="curve" smooth="yes"/>
      <point x="190" y="315" type="line" smooth="yes"/>
      <point x="224" y="495"/>
      <point x="282" y="625"/>
      <point x="407" y="720" type="curve"/>
      <point x="387" y="750" type="line"/>
      <point x="202" y="635"/>
      <point x="101" y="522"/>
      <point x="71" y="335" type="curve" smooth="yes"/>
    </contour>
  </outline>
</glyph>
<glyph name="parenright" format="1">
  <advance width="333"/>
  <unicode hex="0029"/>
  <outline>
    <contour>
      <point x="283" y="300" type="line" smooth="yes"/>
      <point x="307" y="451"/>
      <point x="253" y="620"/>
      <point x="120" y="750" type="curve"/>
      <point x="95" y="728" type="line"/>
      <point x="178" y="628"/>
      <point x="192" y="460"/>
      <point x="165" y="319" type="curve" smooth="yes"/>
      <point x="158" y="282" type="line" smooth="yes"/>
      <point x="124" y="102"/>
      <point x="66" y="-28"/>
      <point x="-59" y="-123" type="curve"/>
      <point x="-39" y="-153" type="line"/>
      <point x="146" y="-38"/>
      <point x="247" y="75"/>
      <point x="277" y="262" type="curve" smooth="yes"/>
    </contour>
  </outline>
</glyph>
<glyph name="asterisk" format="1">
  <advance width="450"/>
  <unicode hex="002A"/>
  <outline>
    <contour>
      <point x="394" y="319" type="line"/>
      <point x="361" y="388"/>
      <point x="327" y="382"/>
      <point x="285" y="467" type="curve"/>
      <point x="380" y="480"/>
      <point x="394" y="449"/>
      <point x="470" y="459" type="curve"/>
      <point x="457" y="554" type="line"/>
      <point x="380" y="543"/>
      <point x="376" y="509"/>
      <point x="282" y="495" type="curve"/>
      <point x="299" y="590"/>
      <point x="333" y="593"/>
      <point x="346" y="669" type="curve"/>
      <point x="253" y="685" type="line"/>
      <point x="239" y="609"/>
      <point x="270" y="595"/>
      <point x="254" y="501" type="curve"/>
      <point x="169" y="547"/>
      <point x="177" y="580"/>
      <point x="110" y="616" type="curve"/>
      <point x="64" y="532" type="line"/>
      <point x="133" y="496"/>
      <point x="156" y="521"/>
      <point x="241" y="476" type="curve"/>
      <point x="171" y="410"/>
      <point x="141" y="428"/>
      <point x="86" y="374" type="curve"/>
      <point x="152" y="306" type="line"/>
      <point x="207" y="359"/>
      <point x="191" y="389"/>
      <point x="260" y="455" type="curve"/>
      <point x="301" y="369"/>
      <point x="275" y="346"/>
      <point x="309" y="277" type="curve"/>
    </contour>
  </outline>
</glyph>
<glyph name="plus" format="1">
  <advance width="588"/>
  <unicode hex="002B"/>
  <outline>
    <contour>
      <point x="512" y="317" type="line"/>
      <point x="518" y="352" type="line"/>
      <point x="329" y="352" type="line"/>
      <point x="363" y="547" type="line"/>
      <point x="327" y="547" type="line"/>
      <point x="293" y="352" type="line"/>
      <point x="104" y="352" type="line"/>
      <point x="98" y="317" type="line"/>
      <point x="287" y="317" type="line"/>
      <point x="253" y="122" type="line"/>
      <point x="289" y="122" type="line"/>
      <point x="323" y="317" type="line"/>
    </contour>
  </outline>
</glyph>
<glyph name="comma" format="1">
  <advance width="255"/>
  <unicode hex="002C"/>
  <outline>
    <contour>
      <point x="161" y="56" type="curve" smooth="yes"/>
      <point x="161" y="102"/>
      <point x="135" y="125"/>
      <point x="99" y="125" type="curve" smooth="yes"/>
      <point x="54" y="125"/>
      <point x="27" y="91"/>
      <point x="27" y="49" type="curve" smooth="yes"/>
      <point x="27" y="13"/>
      <point x="48" y="-8"/>
      <point x="84" y="-10" type="curve"/>
      <point x="75" y="-51"/>
      <point x="47" y="-98"/>
      <point x="-20" y="-164" type="curve"/>
      <point x="0" y="-186" type="line"/>
      <point x="92" y="-99"/>
      <point x="161" y="-18"/>
    </contour>
  </outline>
</glyph>
<glyph name="hyphen" format="1">
  <advance width="384"/>
  <unicode hex="002D"/>
  <outline>
    <contour>
      <point x="71" y="317" type="line"/>
      <point x="335" y="317" type="line"/>
      <point x="341" y="352" type="line"/>
      <point x="77" y="352" type="line"/>
    </contour>
  </outline>
</glyph>
<glyph name="period" format="1">
  <advance width="255"/>
  <unicode hex="002E"/>
  <outline>
    <contour>
      <point x="23" y="53" type="curve" smooth="yes"/>
      <point x="23" y="14"/>
      <point x="47" y="-10"/>
      <point x="88" y="-10" type="curve" smooth="yes"/>
      <point x="135" y="-10"/>
      <point x="164" y="25"/>
      <point x="164" y="68" type="curve" smooth="yes"/>
      <point x="164" y="107"/>
      <point x="140" y="131"/>
      <point x="99" y="131" type="curve" smooth="yes"/>
      <point x="52" y="131"/>
      <point x="23" y="96"/>
    </contour>
  </outline>
</glyph>
<glyph name="slash" format="1">
  <advance width="373"/>
  <unicode hex="002F"/>
  <outline>
    <contour>
      <point x="407" y="740" type="line"/>
      <point x="-88" y="-125" type="line"/>
      <point x="-51" y="-143" type="line"/>
      <point x="444" y="722" type="line"/>
    </contour>
  </outline>
</glyph>
<glyph name="zero" format="1">
  <advance width="616"/>
  <unicode hex="0030"/>
  <outline>
    <contour>
      <point x="568" y="357" type="line" smooth="yes"/>
      <point x="603" y="561"/>
      <point x="533" y="690"/>
      <point x="370" y="690" type="curve" smooth="yes"/>
      <point x="218" y="690"/>
      <point x="122" y="587"/>
      <point x="86" y="377" type="curve" smooth="yes"/>
      <point x="77" y="324" type="line" smooth="yes"/>
      <point x="42" y="120"/>
      <point x="110" y="-10"/>
      <point x="274" y="-10" type="curve" smooth="yes"/>
      <point x="427" y="-10"/>
      <point x="523" y="93"/>
      <point x="559" y="304" type="curve" smooth="yes"/>
    </contour>
    <contour>
      <point x="449" y="415" type="curve" smooth="yes"/>
      <point x="424" y="262" type="line" smooth="yes"/>
      <point x="396" y="93"/>
      <point x="354" y="25"/>
      <point x="275" y="25" type="curve" smooth="yes"/>
      <point x="198" y="25"/>
      <point x="168" y="95"/>
      <point x="196" y="266" type="curve" smooth="yes"/>
      <point x="221" y="419" type="line" smooth="yes"/>
      <point x="249" y="589"/>
      <point x="290" y="655"/>
      <point x="368" y="655" type="curve" smooth="yes"/>
      <point x="447" y="655"/>
      <point x="477" y="588"/>
    </contour>
  </outline>
</glyph>
<glyph name="one" format="1">
  <advance width="365"/>
  <unicode hex="0031"/>
  <outline>
    <contour>
      <point x="78" y="591" type="line"/>
      <point x="93" y="559" type="line"/>
      <point x="198" y="619" type="line"/>
      <point x="104" y="84" type="line" smooth="yes"/>
      <point x="96" y="38"/>
      <point x="94" y="37"/>
      <point x="73" y="35" type="curve" smooth="yes"/>
      <point x="-3" y="28" type="line"/>
      <point x="-8" y="0" type="line"/>
      <point x="286" y="0" type="line"/>
      <point x="291" y="28" type="line"/>
      <point x="237" y="35" type="line" smooth="yes"/>
      <point x="217" y="38"/>
      <point x="216" y="39"/>
      <point x="224" y="84" type="curve" smooth="yes"/>
      <point x="329" y="680" type="line"/>
      <point x="233" y="680" type="line"/>
    </contour>
  </outline>
</glyph>
<glyph name="two" format="1">
  <advance width="533"/>
  <unicode hex="0032"/>
  <outline>
    <contour>
      <point x="466" y="241" type="line"/>
      <point x="438" y="241" type="line"/>
      <point x="387" y="130" type="line" smooth="yes"/>
      <point x="376" y="106"/>
      <point x="375" y="104"/>
      <point x="328" y="104" type="curve"/>
      <point x="67" y="104" type="line"/>
      <point x="95" y="191"/>
      <point x="164" y="239"/>
      <point x="245" y="276" type="curve" smooth="yes"/>
      <point x="375" y="336"/>
      <point x="527" y="373"/>
      <point x="527" y="526" type="curve" smooth="yes"/>
      <point x="527" y="617"/>
      <point x="468" y="690"/>
      <point x="328" y="690" type="curve" smooth="yes"/>
      <point x="170" y="690"/>
      <point x="89" y="592"/>
      <point x="89" y="483" type="curve"/>
      <point x="206" y="467" type="line"/>
      <point x="215" y="587"/>
      <point x="255" y="655"/>
      <point x="328" y="655" type="curve" smooth="yes"/>
      <point x="376" y="655"/>
      <point x="401" y="625"/>
      <point x="401" y="554" type="curve" smooth="yes"/>
      <point x="401" y="434"/>
      <point x="324" y="381"/>
      <point x="241" y="330" type="curve" smooth="yes"/>
      <point x="144" y="270"/>
      <point x="42" y="212"/>
      <point x="17" y="70" type="curve"/>
      <point x="5" y="0" type="line"/>
      <point x="424" y="0" type="line"/>
    </contour>
  </outline>
</glyph>
<glyph name="three" format="1">
  <advance width="523"/>
  <unicode hex="0033"/>
  <outline>
    <contour>
      <point x="464" y="200" type="curve" smooth="yes"/>
      <point x="464" y="276"/>
      <point x="423" y="325"/>
      <point x="342" y="348" type="curve"/>
      <point x="458" y="373"/>
      <point x="517" y="438"/>
      <point x="517" y="529" type="curve" smooth="yes"/>
      <point x="517" y="620"/>
      <point x="456" y="690"/>
      <point x="318" y="690" type="curve" smooth="yes"/>
      <point x="155" y="690"/>
      <point x="76" y="590"/>
      <point x="76" y="483" type="curve"/>
      <point x="193" y="467" type="line"/>
      <point x="202" y="587"/>
      <point x="242" y="655"/>
      <point x="315" y="655" type="curve" smooth="yes"/>
      <point x="364" y="655"/>
      <point x="389" y="625"/>
      <point x="389" y="552" type="curve" smooth="yes"/>
      <point x="389" y="446"/>
      <point x="343" y="366"/>
      <point x="228" y="366" type="curve" smooth="yes"/>
      <point x="201" y="366" type="line"/>
      <point x="194" y="331" type="line"/>
      <point x="221" y="331" type="line" smooth="yes"/>
      <point x="302" y="331"/>
      <point x="335" y="290"/>
      <point x="335" y="213" type="curve" smooth="yes"/>
      <point x="335" y="106"/>
      <point x="276" y="25"/>
      <point x="192" y="25" type="curve" smooth="yes"/>
      <point x="133" y="25"/>
      <point x="76" y="65"/>
      <point x="71" y="169" type="curve"/>
      <point x="9" y="150" type="line"/>
      <point x="19" y="43"/>
      <point x="89" y="-10"/>
      <point x="208" y="-10" type="curve" smooth="yes"/>
      <point x="368" y="-10"/>
      <point x="464" y="78"/>
    </contour>
  </outline>
</glyph>
<glyph name="four" format="1">
  <advance width="512.062844540163"/>
  <unicode hex="0034"/>
  <outline>
    <contour>
      <point x="262" y="84" type="line" smooth="yes"/>
      <point x="254" y="38"/>
      <point x="253" y="37"/>
      <point x="231" y="35" type="curve" smooth="yes"/>
      <point x="155" y="28" type="line"/>
      <point x="150" y="0" type="line"/>
      <point x="444" y="0" type="line"/>
      <point x="449" y="28" type="line"/>
      <point x="395" y="35" type="line" smooth="yes"/>
      <point x="375" y="38"/>
      <point x="374" y="39"/>
      <point x="382" y="84" type="curve" smooth="yes"/>
      <point x="398" y="176" type="line"/>
      <point x="475" y="176" type="line"/>
      <point x="481" y="211" type="line"/>
      <point x="404" y="211" type="line"/>
      <point x="434" y="382" type="line"/>
      <point x="311" y="364" type="line"/>
      <point x="284" y="211" type="line"/>
      <point x="56" y="211" type="line"/>
      <point x="233" y="359"/>
      <point x="374" y="494"/>
      <point x="456" y="680" type="curve"/>
      <point x="311" y="680" type="line"/>
      <point x="242" y="483"/>
      <point x="160" y="352"/>
      <point x="4" y="211" type="curve"/>
      <point x="-2" y="176" type="line"/>
      <point x="278" y="176" type="line"/>
    </contour>
  </outline>
</glyph>
<glyph name="five" format="1">
  <advance width="514"/>
  <unicode hex="0035"/>
  <outline>
    <contour>
      <point x="84" y="347" type="line"/>
      <point x="106" y="332" type="line"/>
      <point x="160" y="374"/>
      <point x="204" y="388"/>
      <point x="246" y="388" type="curve" smooth="yes"/>
      <point x="315" y="388"/>
      <point x="339" y="348"/>
      <point x="339" y="269" type="curve" smooth="yes"/>
      <point x="339" y="136"/>
      <point x="279" y="25"/>
      <point x="184" y="25" type="curve" smooth="yes"/>
      <point x="124" y="25"/>
      <point x="85" y="63"/>
      <point x="82" y="169" type="curve"/>
      <point x="20" y="150" type="line"/>
      <point x="28" y="42"/>
      <point x="96" y="-10"/>
      <point x="192" y="-10" type="curve" smooth="yes"/>
      <point x="384" y="-10"/>
      <point x="465" y="126"/>
      <point x="465" y="241" type="curve" smooth="yes"/>
      <point x="465" y="359"/>
      <point x="388" y="423"/>
      <point x="266" y="423" type="curve" smooth="yes"/>
      <point x="215" y="423"/>
      <point x="167" y="410"/>
      <point x="128" y="386" type="curve"/>
      <point x="173" y="576" type="line"/>
      <point x="493" y="576" type="line"/>
      <point x="526" y="767" type="line"/>
      <point x="498" y="767" type="line"/>
      <point x="475" y="706" type="line" smooth="yes"/>
      <point x="466" y="682"/>
      <point x="464" y="680"/>
      <point x="417" y="680" type="curve" smooth="yes"/>
      <point x="162" y="680" type="line"/>
    </contour>
  </outline>
</glyph>
<glyph name="six" format="1">
  <advance width="581"/>
  <unicode hex="0036"/>
  <outline>
    <contour>
      <point x="519" y="177" type="curve" smooth="yes"/>
      <point x="522" y="201" type="line" smooth="yes"/>
      <point x="537" y="324"/>
      <point x="460" y="403"/>
      <point x="348" y="403" type="curve" smooth="yes"/>
      <point x="302" y="403"/>
      <point x="255" y="390"/>
      <point x="210" y="348" type="curve"/>
      <point x="226" y="437" type="line" smooth="yes"/>
      <point x="257" y="613"/>
      <point x="310" y="655"/>
      <point x="370" y="655" type="curve" smooth="yes"/>
      <point x="440" y="655"/>
      <point x="467" y="599"/>
      <point x="446" y="502" type="curve"/>
      <point x="565" y="517" type="line"/>
      <point x="577" y="607"/>
      <point x="505" y="690"/>
      <point x="372" y="690" type="curve" smooth="yes"/>
      <point x="224" y="690"/>
      <point x="127" y="603"/>
      <point x="88" y="381" type="curve" smooth="yes"/>
      <point x="77" y="318" type="line" smooth="yes"/>
      <point x="42" y="118"/>
      <point x="107" y="-10"/>
      <point x="279" y="-10" type="curve" smooth="yes"/>
      <point x="399" y="-10"/>
      <point x="504" y="58"/>
    </contour>
    <contour>
      <point x="194" y="256" type="curve" smooth="yes"/>
      <point x="198" y="279" type="line"/>
      <point x="245" y="345"/>
      <point x="287" y="359"/>
      <point x="321" y="359" type="curve" smooth="yes"/>
      <point x="395" y="359"/>
      <point x="410" y="294"/>
      <point x="397" y="197" type="curve" smooth="yes"/>
      <point x="395" y="182" type="line" smooth="yes"/>
      <point x="380" y="68"/>
      <point x="333" y="25"/>
      <point x="270" y="25" type="curve" smooth="yes"/>
      <point x="201" y="25"/>
      <point x="163" y="81"/>
    </contour>
  </outline>
</glyph>
<glyph name="seven" format="1">
  <advance width="462"/>
  <unicode hex="0037"/>
  <outline>
    <contour>
      <point x="503" y="586" type="curve"/>
      <point x="520" y="680" type="line"/>
      <point x="104" y="680" type="line"/>
      <point x="65" y="459" type="line"/>
      <point x="93" y="459" type="line"/>
      <point x="131" y="550" type="line" smooth="yes"/>
      <point x="141" y="574"/>
      <point x="143" y="576"/>
      <point x="190" y="576" type="curve" smooth="yes"/>
      <point x="447" y="576" type="line"/>
      <point x="216" y="345"/>
      <point x="138" y="190"/>
      <point x="79" y="0" type="curve"/>
      <point x="224" y="0" type="line"/>
      <point x="288" y="285"/>
      <point x="361" y="434"/>
    </contour>
  </outline>
</glyph>
<glyph name="eight" format="1">
  <advance width="554"/>
  <unicode hex="0038"/>
  <outline>
    <contour>
      <point x="491" y="189" type="curve" smooth="yes"/>
      <point x="491" y="276"/>
      <point x="439" y="331"/>
      <point x="364" y="378" type="curve"/>
      <point x="486" y="421"/>
      <point x="530" y="484"/>
      <point x="530" y="548" type="curve" smooth="yes"/>
      <point x="530" y="631"/>
      <point x="454" y="690"/>
      <point x="330" y="690" type="curve" smooth="yes"/>
      <point x="186" y="690"/>
      <point x="105" y="605"/>
      <point x="105" y="501" type="curve" smooth="yes"/>
      <point x="105" y="428"/>
      <point x="146" y="377"/>
      <point x="207" y="334" type="curve"/>
      <point x="85" y="287"/>
      <point x="32" y="217"/>
      <point x="32" y="146" type="curve" smooth="yes"/>
      <point x="32" y="62"/>
      <point x="111" y="-10"/>
      <point x="250" y="-10" type="curve" smooth="yes"/>
      <point x="404" y="-10"/>
      <point x="491" y="81"/>
    </contour>
    <contour>
      <point x="294" y="420" type="line" smooth="yes"/>
      <point x="245" y="450"/>
      <point x="215" y="477"/>
      <point x="215" y="540" type="curve" smooth="yes"/>
      <point x="215" y="619"/>
      <point x="266" y="655"/>
      <point x="323" y="655" type="curve" smooth="yes"/>
      <point x="383" y="655"/>
      <point x="421" y="615"/>
      <point x="421" y="543" type="curve" smooth="yes"/>
      <point x="421" y="489"/>
      <point x="403" y="430"/>
      <point x="336" y="395" type="curve"/>
    </contour>
    <contour>
      <point x="141" y="149" type="curve" smooth="yes"/>
      <point x="141" y="224"/>
      <point x="173" y="283"/>
      <point x="235" y="316" type="curve"/>
      <point x="300" y="277" type="line" smooth="yes"/>
      <point x="356" y="243"/>
      <point x="382" y="214"/>
      <point x="382" y="156" type="curve" smooth="yes"/>
      <point x="382" y="74"/>
      <point x="329" y="25"/>
      <point x="254" y="25" type="curve" smooth="yes"/>
      <point x="181" y="25"/>
      <point x="141" y="72"/>
    </contour>
  </outline>
</glyph>
<glyph name="nine" format="1">
  <advance width="581"/>
  <unicode hex="0039"/>
  <outline>
    <contour>
      <point x="522" y="299" type="curve" smooth="yes"/>
      <point x="533" y="362" type="line" smooth="yes"/>
      <point x="568" y="562"/>
      <point x="503" y="690"/>
      <point x="331" y="690" type="curve" smooth="yes"/>
      <point x="211" y="690"/>
      <point x="110" y="621"/>
      <point x="92" y="498" type="curve" smooth="yes"/>
      <point x="88" y="471" type="line" smooth="yes"/>
      <point x="69" y="342"/>
      <point x="150" y="257"/>
      <point x="262" y="257" type="curve" smooth="yes"/>
      <point x="306" y="257"/>
      <point x="352" y="269"/>
      <point x="395" y="308" type="curve"/>
      <point x="384" y="243" type="line" smooth="yes"/>
      <point x="353" y="67"/>
      <point x="278" y="25"/>
      <point x="214" y="25" type="curve" smooth="yes"/>
      <point x="149" y="25"/>
      <point x="109" y="65"/>
      <point x="114" y="167" type="curve"/>
      <point x="40" y="148" type="line"/>
      <point x="40" y="41"/>
      <point x="121" y="-10"/>
      <point x="218" y="-10" type="curve" smooth="yes"/>
      <point x="369" y="-10"/>
      <point x="482" y="69"/>
    </contour>
    <contour>
      <point x="212" y="468" type="curve" smooth="yes"/>
      <point x="216" y="494" type="line" smooth="yes"/>
      <point x="234" y="613"/>
      <point x="278" y="655"/>
      <point x="340" y="655" type="curve" smooth="yes"/>
      <point x="409" y="655"/>
      <point x="447" y="599"/>
      <point x="416" y="424" type="curve" smooth="yes"/>
      <point x="407" y="374" type="line"/>
      <point x="363" y="314"/>
      <point x="322" y="301"/>
      <point x="289" y="301" type="curve" smooth="yes"/>
      <point x="214" y="301"/>
      <point x="197" y="367"/>
    </contour>
  </outline>
</glyph>
<glyph name="colon" format="1">
  <advance width="255"/>
  <unicode hex="003A"/>
  <outline>
    <contour>
      <point x="156" y="376" type="curve" smooth="yes"/>
      <point x="203" y="376"/>
      <point x="232" y="411"/>
      <point x="232" y="454" type="curve" smooth="yes"/>
      <point x="232" y="493"/>
      <point x="208" y="517"/>
      <point x="167" y="517" type="curve" smooth="yes"/>
      <point x="120" y="517"/>
      <point x="91" y="482"/>
      <point x="91" y="439" type="curve" smooth="yes"/>
      <point x="91" y="400"/>
      <point x="115" y="376"/>
    </contour>
    <contour>
      <point x="88" y="-10" type="curve" smooth="yes"/>
      <point x="135" y="-10"/>
      <point x="164" y="25"/>
      <point x="164" y="68" type="curve" smooth="yes"/>
      <point x="164" y="107"/>
      <point x="140" y="131"/>
      <point x="99" y="131" type="curve" smooth="yes"/>
      <point x="52" y="131"/>
      <point x="23" y="96"/>
      <point x="23" y="53" type="curve" smooth="yes"/>
      <point x="23" y="14"/>
      <point x="47" y="-10"/>
    </contour>
  </outline>
</glyph>
<glyph name="semicolon" format="1">
  <advance width="255"/>
  <unicode hex="003B"/>
  <outline>
    <contour>
      <point x="156" y="376" type="curve" smooth="yes"/>
      <point x="203" y="376"/>
      <point x="232" y="411"/>
      <point x="232" y="454" type="curve" smooth="yes"/>
      <point x="232" y="493"/>
      <point x="208" y="517"/>
      <point x="167" y="517" type="curve" smooth="yes"/>
      <point x="120" y="517"/>
      <point x="91" y="482"/>
      <point x="91" y="439" type="curve" smooth="yes"/>
      <point x="91" y="400"/>
      <point x="115" y="376"/>
    </contour>
    <contour>
      <point x="161" y="56" type="curve" smooth="yes"/>
      <point x="161" y="102"/>
      <point x="135" y="125"/>
      <point x="99" y="125" type="curve" smooth="yes"/>
      <point x="54" y="125"/>
      <point x="27" y="91"/>
      <point x="27" y="49" type="curve" smooth="yes"/>
      <point x="27" y="13"/>
      <point x="48" y="-8"/>
      <point x="84" y="-10" type="curve"/>
      <point x="75" y="-51"/>
      <point x="47" y="-98"/>
      <point x="-20" y="-164" type="curve"/>
      <point x="0" y="-186" type="line"/>
      <point x="92" y="-99"/>
      <point x="161" y="-18"/>
    </contour>
  </outline>
</glyph>
<glyph name="less" format="1">
  <advance width="588"/>
  <unicode hex="003C"/>
  <outline>
    <contour>
      <point x="489" y="189" type="line"/>
      <point x="157" y="329" type="line"/>
      <point x="542" y="473" type="line"/>
      <point x="533" y="507" type="line"/>
      <point x="103" y="346" type="line"/>
      <point x="98" y="318" type="line"/>
      <point x="472" y="157" type="line"/>
    </contour>
  </outline>
</glyph>
<glyph name="equal" format="1">
  <advance width="588"/>
  <unicode hex="003D"/>
  <outline>
    <contour>
      <point x="116" y="417" type="line"/>
      <point x="530" y="417" type="line"/>
      <point x="536" y="452" type="line"/>
      <point x="122" y="452" type="line"/>
    </contour>
    <contour>
      <point x="80" y="217" type="line"/>
      <point x="494" y="217" type="line"/>
      <point x="500" y="252" type="line"/>
      <point x="86" y="252" type="line"/>
    </contour>
  </outline>
</glyph>
<glyph name="greater" format="1">
  <advance width="588"/>
  <unicode hex="003E"/>
  <outline>
    <contour>
      <point x="512" y="318" type="line"/>
      <point x="517" y="346" type="line"/>
      <point x="143" y="507" type="line"/>
      <point x="126" y="475" type="line"/>
      <point x="458" y="335" type="line"/>
      <point x="73" y="191" type="line"/>
      <point x="82" y="157" type="line"/>
    </contour>
  </outline>
</glyph>
<glyph name="question" format="1">
  <advance width="492"/>
  <unicode hex="003F"/>
  <outline>
    <contour>
      <point x="253" y="202" type="line"/>
      <point x="254" y="219" type="line" smooth="yes"/>
      <point x="263" y="374"/>
      <point x="504" y="368"/>
      <point x="504" y="538" type="curve" smooth="yes"/>
      <point x="504" y="622"/>
      <point x="437" y="690"/>
      <point x="310" y="690" type="curve" smooth="yes"/>
      <point x="152" y="690"/>
      <point x="83" y="595"/>
      <point x="81" y="483" type="curve"/>
      <point x="193" y="467" type="line"/>
      <point x="202" y="587"/>
      <point x="239" y="655"/>
      <point x="303" y="655" type="curve" smooth="yes"/>
      <point x="353" y="655"/>
      <point x="379" y="621"/>
      <point x="379" y="549" type="curve" smooth="yes"/>
      <point x="379" y="364"/>
      <point x="224" y="375"/>
      <point x="204" y="218" type="curve" smooth="yes"/>
      <point x="202" y="202" type="line"/>
    </contour>
    <contour>
      <point x="196" y="-10" type="curve" smooth="yes"/>
      <point x="243" y="-10"/>
      <point x="272" y="25"/>
      <point x="272" y="68" type="curve" smooth="yes"/>
      <point x="272" y="107"/>
      <point x="248" y="131"/>
      <point x="207" y="131" type="curve" smooth="yes"/>
      <point x="160" y="131"/>
      <point x="131" y="96"/>
      <point x="131" y="53" type="curve" smooth="yes"/>
      <point x="131" y="14"/>
      <point x="155" y="-10"/>
    </contour>
  </outline>
</glyph>
<glyph name="A" format="1">
  <advance width="639"/>
  <unicode hex="0041"/>
  <outline>
    <contour>
      <point x="151" y="28" type="line"/>
      <point x="97" y="35" type="line" smooth="yes"/>
      <point x="77" y="38"/>
      <point x="76" y="39"/>
      <point x="98" y="84" type="curve" smooth="yes"/>
      <point x="160" y="208" type="line"/>
      <point x="389" y="208" type="line"/>
      <point x="406" y="84" type="line" smooth="yes"/>
      <point x="412" y="39"/>
      <point x="411" y="38"/>
      <point x="389" y="35" type="curve" smooth="yes"/>
      <point x="333" y="28" type="line"/>
      <point x="328" y="0" type="line"/>
      <point x="600" y="0" type="line"/>
      <point x="605" y="28" type="line"/>
      <point x="551" y="35" type="line" smooth="yes"/>
      <point x="532" y="38"/>
      <point x="530" y="39"/>
      <point x="524" y="84" type="curve" smooth="yes"/>
      <point x="437" y="680" type="line"/>
      <point x="351" y="680" type="line"/>
      <point x="55" y="84" type="line" smooth="yes"/>
      <point x="33" y="39"/>
      <point x="32" y="38"/>
      <point x="10" y="35" type="curve" smooth="yes"/>
      <point x="-46" y="28" type="line"/>
      <point x="-51" y="0" type="line"/>
      <point x="146" y="0" type="line"/>
    </contour>
    <contour>
      <point x="177" y="243" type="line"/>
      <point x="341" y="571" type="line"/>
      <point x="385" y="243" type="line"/>
    </contour>
  </outline>
</glyph>
<glyph name="B" format="1">
  <advance width="616"/>
  <unicode hex="0042"/>
  <outline>
    <contour>
      <point x="113" y="652" type="line"/>
      <point x="167" y="645" type="line" smooth="yes"/>
      <point x="187" y="642"/>
      <point x="188" y="641"/>
      <point x="180" y="596" type="curve" smooth="yes"/>
      <point x="90" y="84" type="line" smooth="yes"/>
      <point x="82" y="39"/>
      <point x="81" y="38"/>
      <point x="59" y="35" type="curve" smooth="yes"/>
      <point x="3" y="28" type="line"/>
      <point x="-2" y="0" type="line"/>
      <point x="305" y="0" type="line" smooth="yes"/>
      <point x="466" y="0"/>
      <point x="533" y="72"/>
      <point x="548" y="158" type="curve" smooth="yes"/>
      <point x="553" y="187" type="line" smooth="yes"/>
      <point x="567" y="269"/>
      <point x="523" y="330"/>
      <point x="427" y="349" type="curve"/>
      <point x="515" y="368"/>
      <point x="564" y="419"/>
      <point x="576" y="488" type="curve" smooth="yes"/>
      <point x="581" y="517" type="line" smooth="yes"/>
      <point x="596" y="605"/>
      <point x="542" y="680"/>
      <point x="389" y="680" type="curve" smooth="yes"/>
      <point x="118" y="680" type="line"/>
    </contour>
    <contour>
      <point x="388" y="645" type="line" smooth="yes"/>
      <point x="445" y="645"/>
      <point x="470" y="605"/>
      <point x="453" y="515" type="curve" smooth="yes"/>
      <point x="447" y="483" type="line" smooth="yes"/>
      <point x="432" y="401"/>
      <point x="395" y="365"/>
      <point x="338" y="365" type="curve" smooth="yes"/>
      <point x="259" y="365" type="line"/>
      <point x="309" y="645" type="line"/>
    </contour>
    <contour>
      <point x="357" y="330" type="line" smooth="yes"/>
      <point x="417" y="330"/>
      <point x="443" y="286"/>
      <point x="426" y="193" type="curve" smooth="yes"/>
      <point x="420" y="160" type="line" smooth="yes"/>
      <point x="404" y="72"/>
      <point x="365" y="35"/>
      <point x="305" y="35" type="curve" smooth="yes"/>
      <point x="201" y="35" type="line"/>
      <point x="253" y="330" type="line"/>
    </contour>
  </outline>
</glyph>
<glyph name="C" format="1">
  <advance width="597"/>
  <unicode hex="0043"/>
  <outline>
    <contour>
      <point x="318" y="-10" type="curve" smooth="yes"/>
      <point x="409" y="-10"/>
      <point x="489" y="31"/>
      <point x="538" y="143" type="curve"/>
      <point x="467" y="167" type="line"/>
      <point x="436" y="56"/>
      <point x="379" y="25"/>
      <point x="320" y="25" type="curve" smooth="yes"/>
      <point x="210" y="25"/>
      <point x="173" y="107"/>
      <point x="199" y="274" type="curve" smooth="yes"/>
      <point x="224" y="432" type="line" smooth="yes"/>
      <point x="249" y="591"/>
      <point x="312" y="655"/>
      <point x="391" y="655" type="curve" smooth="yes"/>
      <point x="477" y="655"/>
      <point x="508" y="581"/>
      <point x="472" y="448" type="curve"/>
      <point x="594" y="477" type="line"/>
      <point x="622" y="586"/>
      <point x="545" y="690"/>
      <point x="393" y="690" type="curve" smooth="yes"/>
      <point x="229" y="690"/>
      <point x="117" y="571"/>
      <point x="88" y="382" type="curve" smooth="yes"/>
      <point x="79" y="324" type="line" smooth="yes"/>
      <point x="49" y="129"/>
      <point x="140" y="-10"/>
    </contour>
  </outline>
</glyph>
<glyph name="D" format="1">
  <advance width="669"/>
  <unicode hex="0044"/>
  <outline>
    <contour>
      <point x="113" y="652" type="line"/>
      <point x="167" y="645" type="line" smooth="yes"/>
      <point x="187" y="642"/>
      <point x="188" y="641"/>
      <point x="180" y="596" type="curve" smooth="yes"/>
      <point x="90" y="84" type="line" smooth="yes"/>
      <point x="82" y="39"/>
      <point x="81" y="38"/>
      <point x="59" y="35" type="curve" smooth="yes"/>
      <point x="3" y="28" type="line"/>
      <point x="-2" y="0" type="line"/>
      <point x="295" y="0" type="line" smooth="yes"/>
      <point x="467" y="0"/>
      <point x="580" y="115"/>
      <point x="612" y="304" type="curve" smooth="yes"/>
      <point x="621" y="357" type="line" smooth="yes"/>
      <point x="652" y="540"/>
      <point x="581" y="680"/>
      <point x="395" y="680" type="curve" smooth="yes"/>
      <point x="118" y="680" type="line"/>
    </contour>
    <contour>
      <point x="396" y="645" type="line" smooth="yes"/>
      <point x="499" y="645"/>
      <point x="527" y="566"/>
      <point x="502" y="412" type="curve" smooth="yes"/>
      <point x="477" y="259" type="line" smooth="yes"/>
      <point x="453" y="114"/>
      <point x="391" y="35"/>
      <point x="293" y="35" type="curve" smooth="yes"/>
      <point x="201" y="35" type="line"/>
      <point x="309" y="645" type="line"/>
    </contour>
  </outline>
</glyph>
<glyph name="F" format="1">
  <advance width="554"/>
  <unicode hex="0046"/>
  <outline>
    <contour>
      <point x="297" y="28" type="line"/>
      <point x="223" y="35" type="line" smooth="yes"/>
      <point x="203" y="37"/>
      <point x="202" y="39"/>
      <point x="210" y="84" type="curve" smooth="yes"/>
      <point x="251" y="320" type="line"/>
      <point x="354" y="320" type="line" smooth="yes"/>
      <point x="401" y="320"/>
      <point x="402" y="318"/>
      <point x="404" y="294" type="curve" smooth="yes"/>
      <point x="412" y="213" type="line"/>
      <point x="440" y="213" type="line"/>
      <point x="483" y="462" type="line"/>
      <point x="455" y="462" type="line"/>
      <point x="419" y="381" type="line" smooth="yes"/>
      <point x="408" y="357"/>
      <point x="408" y="355"/>
      <point x="361" y="355" type="curve" smooth="yes"/>
      <point x="257" y="355" type="line"/>
      <point x="308" y="645" type="line"/>
      <point x="472" y="645" type="line" smooth="yes"/>
      <point x="519" y="645"/>
      <point x="518" y="643"/>
      <point x="521" y="619" type="curve" smooth="yes"/>
      <point x="534" y="508" type="line"/>
      <point x="562" y="508" type="line"/>
      <point x="592" y="680" type="line"/>
      <point x="118" y="680" type="line"/>
      <point x="113" y="652" type="line"/>
      <point x="167" y="645" type="line" smooth="yes"/>
      <point x="187" y="642"/>
      <point x="188" y="641"/>
      <point x="180" y="596" type="curve" smooth="yes"/>
      <point x="90" y="84" type="line" smooth="yes"/>
      <point x="82" y="39"/>
      <point x="80" y="38"/>
      <point x="59" y="35" type="curve" smooth="yes"/>
      <point x="3" y="28" type="line"/>
      <point x="-2" y="0" type="line"/>
      <point x="292" y="0" type="line"/>
    </contour>
  </outline>
</glyph>
<glyph name="G" format="1">
  <advance width="663"/>
  <unicode hex="0047"/>
  <outline>
    <contour>
      <point x="499" y="12" type="curve"/>
      <point x="526" y="12" type="line"/>
      <point x="563" y="224" type="line" smooth="yes"/>
      <point x="571" y="269"/>
      <point x="572" y="270"/>
      <point x="594" y="273" type="curve" smooth="yes"/>
      <point x="650" y="280" type="line"/>
      <point x="655" y="308" type="line"/>
      <point x="371" y="308" type="line"/>
      <point x="366" y="280" type="line"/>
      <point x="440" y="273" type="line" smooth="yes"/>
      <point x="461" y="271"/>
      <point x="461" y="269"/>
      <point x="453" y="224" type="curve" smooth="yes"/>
      <point x="429" y="89" type="line"/>
      <point x="396" y="40"/>
      <point x="349" y="25"/>
      <point x="306" y="25" type="curve" smooth="yes"/>
      <point x="209" y="25"/>
      <point x="173" y="107"/>
      <point x="199" y="274" type="curve" smooth="yes"/>
      <point x="224" y="432" type="line" smooth="yes"/>
      <point x="249" y="591"/>
      <point x="316" y="655"/>
      <point x="398" y="655" type="curve" smooth="yes"/>
      <point x="491" y="655"/>
      <point x="522" y="582"/>
      <point x="486" y="448" type="curve"/>
      <point x="608" y="477" type="line"/>
      <point x="636" y="586"/>
      <point x="557" y="690"/>
      <point x="400" y="690" type="curve" smooth="yes"/>
      <point x="232" y="690"/>
      <point x="117" y="571"/>
      <point x="88" y="382" type="curve" smooth="yes"/>
      <point x="79" y="324" type="line" smooth="yes"/>
      <point x="49" y="129"/>
      <point x="137" y="-10"/>
      <point x="301" y="-10" type="curve" smooth="yes"/>
      <point x="365" y="-10"/>
      <point x="418" y="19"/>
      <point x="451" y="57" type="curve"/>
      <point x="470" y="45"/>
      <point x="485" y="29"/>
    </contour>
  </outline>
</glyph>
<glyph name="H" format="1">
  <advance width="743"/>
  <unicode hex="0048"/>
  <outline>
    <contour>
      <point x="277" y="28" type="line"/>
      <point x="223" y="35" type="line" smooth="yes"/>
      <point x="203" y="38"/>
      <point x="202" y="39"/>
      <point x="210" y="84" type="curve" smooth="yes"/>
      <point x="253" y="326" type="line"/>
      <point x="515" y="326" type="line"/>
      <point x="473" y="84" type="line" smooth="yes"/>
      <point x="465" y="39"/>
      <point x="464" y="38"/>
      <point x="442" y="35" type="curve" smooth="yes"/>
      <point x="386" y="28" type="line"/>
      <point x="381" y="0" type="line"/>
      <point x="655" y="0" type="line"/>
      <point x="660" y="28" type="line"/>
      <point x="606" y="35" type="line" smooth="yes"/>
      <point x="586" y="38"/>
      <point x="585" y="39"/>
      <point x="593" y="84" type="curve" smooth="yes"/>
      <point x="683" y="596" type="line" smooth="yes"/>
      <point x="691" y="641"/>
      <point x="692" y="642"/>
      <point x="714" y="645" type="curve" smooth="yes"/>
      <point x="770" y="652" type="line"/>
      <point x="775" y="680" type="line"/>
      <point x="501" y="680" type="line"/>
      <point x="496" y="652" type="line"/>
      <point x="550" y="645" type="line" smooth="yes"/>
      <point x="570" y="642"/>
      <point x="571" y="641"/>
      <point x="563" y="596" type="curve" smooth="yes"/>
      <point x="522" y="361" type="line"/>
      <point x="259" y="361" type="line"/>
      <point x="300" y="596" type="line" smooth="yes"/>
      <point x="308" y="641"/>
      <point x="309" y="642"/>
      <point x="331" y="645" type="curve" smooth="yes"/>
      <point x="387" y="652" type="line"/>
      <point x="392" y="680" type="line"/>
      <point x="118" y="680" type="line"/>
      <point x="113" y="652" type="line"/>
      <point x="167" y="645" type="line" smooth="yes"/>
      <point x="187" y="642"/>
      <point x="188" y="641"/>
      <point x="180" y="596" type="curve" smooth="yes"/>
      <point x="90" y="84" type="line" smooth="yes"/>
      <point x="82" y="39"/>
      <point x="81" y="38"/>
      <point x="59" y="35" type="curve" smooth="yes"/>
      <point x="3" y="28" type="line"/>
      <point x="-2" y="0" type="line"/>
      <point x="272" y="0" type="line"/>
    </contour>
  </outline>
</glyph>
<glyph name="I" format="1">
  <advance width="360"/>
  <unicode hex="0049"/>
  <outline>
    <contour>
      <point x="113" y="652" type="line"/>
      <point x="167" y="645" type="line" smooth="yes"/>
      <point x="187" y="642"/>
      <point x="188" y="641"/>
      <point x="180" y="596" type="curve" smooth="yes"/>
      <point x="90" y="84" type="line" smooth="yes"/>
      <point x="82" y="39"/>
      <point x="81" y="38"/>
      <point x="59" y="35" type="curve" smooth="yes"/>
      <point x="3" y="28" type="line"/>
      <point x="-2" y="0" type="line"/>
      <point x="272" y="0" type="line"/>
      <point x="277" y="28" type="line"/>
      <point x="223" y="35" type="line" smooth="yes"/>
      <point x="203" y="38"/>
      <point x="202" y="39"/>
      <point x="210" y="84" type="curve" smooth="yes"/>
      <point x="300" y="596" type="line" smooth="yes"/>
      <point x="308" y="641"/>
      <point x="309" y="642"/>
      <point x="331" y="645" type="curve" smooth="yes"/>
      <point x="387" y="652" type="line"/>
      <point x="392" y="680" type="line"/>
      <point x="118" y="680" type="line"/>
    </contour>
  </outline>
</glyph>
<glyph name="J" format="1">
  <advance width="476"/>
  <unicode hex="004A"/>
  <outline>
    <contour>
      <point x="242" y="652" type="line"/>
      <point x="296" y="645" type="line" smooth="yes"/>
      <point x="316" y="642"/>
      <point x="317" y="641"/>
      <point x="309" y="596" type="curve" smooth="yes"/>
      <point x="235" y="174" type="line" smooth="yes"/>
      <point x="213" y="52"/>
      <point x="163" y="25"/>
      <point x="122" y="25" type="curve" smooth="yes"/>
      <point x="83" y="25"/>
      <point x="49" y="52"/>
      <point x="63" y="162" type="curve"/>
      <point x="-14" y="142" type="line"/>
      <point x="-19" y="30"/>
      <point x="52" y="-10"/>
      <point x="133" y="-10" type="curve" smooth="yes"/>
      <point x="257" y="-10"/>
      <point x="335" y="62"/>
      <point x="356" y="182" type="curve" smooth="yes"/>
      <point x="429" y="596" type="line" smooth="yes"/>
      <point x="437" y="641"/>
      <point x="438" y="642"/>
      <point x="460" y="645" type="curve" smooth="yes"/>
      <point x="516" y="652" type="line"/>
      <point x="521" y="680" type="line"/>
      <point x="247" y="680" type="line"/>
    </contour>
  </outline>
</glyph>
<glyph name="K" format="1">
  <advance width="656"/>
  <unicode hex="004B"/>
  <outline>
    <contour>
      <point x="277" y="28" type="line"/>
      <point x="223" y="35" type="line" smooth="yes"/>
      <point x="203" y="38"/>
      <point x="202" y="39"/>
      <point x="210" y="84" type="curve" smooth="yes"/>
      <point x="245" y="285" type="line"/>
      <point x="317" y="353" type="line"/>
      <point x="422" y="0" type="line"/>
      <point x="607" y="0" type="line"/>
      <point x="612" y="28" type="line"/>
      <point x="568" y="35" type="line" smooth="yes"/>
      <point x="548" y="38"/>
      <point x="541" y="41"/>
      <point x="527" y="84" type="curve" smooth="yes"/>
      <point x="411" y="441" type="line"/>
      <point x="576" y="596" type="line" smooth="yes"/>
      <point x="623" y="640"/>
      <point x="624" y="642"/>
      <point x="645" y="645" type="curve" smooth="yes"/>
      <point x="701" y="652" type="line"/>
      <point x="706" y="680" type="line"/>
      <point x="498" y="680" type="line"/>
      <point x="493" y="652" type="line"/>
      <point x="547" y="645" type="line" smooth="yes"/>
      <point x="567" y="642"/>
      <point x="569" y="640"/>
      <point x="522" y="596" type="curve" smooth="yes"/>
      <point x="256" y="346" type="line"/>
      <point x="300" y="596" type="line" smooth="yes"/>
      <point x="308" y="641"/>
      <point x="313" y="642"/>
      <point x="331" y="645" type="curve" smooth="yes"/>
      <point x="387" y="652" type="line"/>
      <point x="392" y="680" type="line"/>
      <point x="118" y="680" type="line"/>
      <point x="113" y="652" type="line"/>
      <point x="167" y="645" type="line" smooth="yes"/>
      <point x="187" y="642"/>
      <point x="188" y="641"/>
      <point x="180" y="596" type="curve" smooth="yes"/>
      <point x="90" y="84" type="line" smooth="yes"/>
      <point x="82" y="39"/>
      <point x="81" y="38"/>
      <point x="59" y="35" type="curve" smooth="yes"/>
      <point x="3" y="28" type="line"/>
      <point x="-2" y="0" type="line"/>
      <point x="272" y="0" type="line"/>
    </contour>
  </outline>
</glyph>
<glyph name="M" format="1">
  <advance width="871"/>
  <unicode hex="004D"/>
  <outline>
    <contour>
      <point x="197" y="28" type="line"/>
      <point x="143" y="35" type="line" smooth="yes"/>
      <point x="123" y="38"/>
      <point x="122" y="39"/>
      <point x="130" y="84" type="curve" smooth="yes"/>
      <point x="220" y="596" type="line"/>
      <point x="310" y="80" type="line"/>
      <point x="417" y="80" type="line"/>
      <point x="692" y="598" type="line"/>
      <point x="601" y="84" type="line" smooth="yes"/>
      <point x="593" y="39"/>
      <point x="592" y="38"/>
      <point x="570" y="35" type="curve" smooth="yes"/>
      <point x="514" y="28" type="line"/>
      <point x="509" y="0" type="line"/>
      <point x="783" y="0" type="line"/>
      <point x="788" y="28" type="line"/>
      <point x="734" y="35" type="line" smooth="yes"/>
      <point x="714" y="38"/>
      <point x="713" y="39"/>
      <point x="721" y="84" type="curve"/>
      <point x="811" y="596" type="line" smooth="yes"/>
      <point x="819" y="641"/>
      <point x="820" y="642"/>
      <point x="842" y="645" type="curve" smooth="yes"/>
      <point x="898" y="652" type="line"/>
      <point x="903" y="680" type="line"/>
      <point x="691" y="680" type="line"/>
      <point x="413" y="158" type="line"/>
      <point x="321" y="680" type="line"/>
      <point x="118" y="680" type="line"/>
      <point x="113" y="652" type="line"/>
      <point x="167" y="645" type="line" smooth="yes"/>
      <point x="187" y="642"/>
      <point x="188" y="641"/>
      <point x="180" y="596" type="curve" smooth="yes"/>
      <point x="90" y="84" type="line" smooth="yes"/>
      <point x="82" y="39"/>
      <point x="77" y="38"/>
      <point x="59" y="35" type="curve" smooth="yes"/>
      <point x="3" y="28" type="line"/>
      <point x="-2" y="0" type="line"/>
      <point x="192" y="0" type="line"/>
    </contour>
  </outline>
</glyph>
<glyph name="O" format="1">
  <advance width="674"/>
  <unicode hex="004F"/>
  <outline>
    <contour>
      <point x="628" y="357" type="line" smooth="yes"/>
      <point x="660" y="546"/>
      <point x="589" y="690"/>
      <point x="405" y="690" type="curve" smooth="yes"/>
      <point x="234" y="690"/>
      <point x="119" y="571"/>
      <point x="86" y="377" type="curve" smooth="yes"/>
      <point x="77" y="324" type="line" smooth="yes"/>
      <point x="45" y="135"/>
      <point x="114" y="-10"/>
      <point x="299" y="-10" type="curve" smooth="yes"/>
      <point x="471" y="-10"/>
      <point x="586" y="109"/>
      <point x="619" y="304" type="curve" smooth="yes"/>
    </contour>
    <contour>
      <point x="509" y="412" type="curve" smooth="yes"/>
      <point x="484" y="259" type="line" smooth="yes"/>
      <point x="459" y="108"/>
      <point x="398" y="25"/>
      <point x="300" y="25" type="curve" smooth="yes"/>
      <point x="199" y="25"/>
      <point x="170" y="111"/>
      <point x="196" y="269" type="curve" smooth="yes"/>
      <point x="221" y="422" type="line" smooth="yes"/>
      <point x="247" y="574"/>
      <point x="306" y="655"/>
      <point x="403" y="655" type="curve" smooth="yes"/>
      <point x="506" y="655"/>
      <point x="535" y="572"/>
    </contour>
  </outline>
</glyph>
<glyph name="P" format="1">
  <advance width="598"/>
  <unicode hex="0050"/>
  <outline>
    <contour>
      <point x="113" y="652" type="line"/>
      <point x="167" y="645" type="line" smooth="yes"/>
      <point x="187" y="642"/>
      <point x="188" y="641"/>
      <point x="180" y="596" type="curve" smooth="yes"/>
      <point x="90" y="84" type="line" smooth="yes"/>
      <point x="82" y="39"/>
      <point x="81" y="38"/>
      <point x="59" y="35" type="curve" smooth="yes"/>
      <point x="3" y="28" type="line"/>
      <point x="-2" y="0" type="line"/>
      <point x="292" y="0" type="line"/>
      <point x="297" y="28" type="line"/>
      <point x="223" y="35" type="line" smooth="yes"/>
      <point x="203" y="37"/>
      <point x="202" y="39"/>
      <point x="210" y="84" type="curve" smooth="yes"/>
      <point x="246" y="286" type="line"/>
      <point x="356" y="286" type="line" smooth="yes"/>
      <point x="510" y="286"/>
      <point x="582" y="354"/>
      <point x="600" y="463" type="curve" smooth="yes"/>
      <point x="604" y="487" type="line" smooth="yes"/>
      <point x="622" y="595"/>
      <point x="555" y="680"/>
      <point x="414" y="680" type="curve" smooth="yes"/>
      <point x="118" y="680" type="line"/>
    </contour>
    <contour>
      <point x="413" y="645" type="line" smooth="yes"/>
      <point x="471" y="645"/>
      <point x="494" y="593"/>
      <point x="480" y="510" type="curve" smooth="yes"/>
      <point x="469" y="447" type="line" smooth="yes"/>
      <point x="455" y="369"/>
      <point x="414" y="321"/>
      <point x="356" y="321" type="curve" smooth="yes"/>
      <point x="252" y="321" type="line"/>
      <point x="309" y="645" type="line"/>
    </contour>
  </outline>
</glyph>
<glyph name="Q" format="1">
  <advance width="678"/>
  <unicode hex="0051"/>
  <outline>
    <contour>
      <point x="517" y="-83" type="line"/>
      <point x="399" y="-83"/>
      <point x="357" y="-62"/>
      <point x="341" y="-8" type="curve"/>
      <point x="492" y="8"/>
      <point x="590" y="123"/>
      <point x="621" y="304" type="curve" smooth="yes"/>
      <point x="630" y="357" type="line" smooth="yes"/>
      <point x="662" y="546"/>
      <point x="590" y="690"/>
      <point x="404" y="690" type="curve" smooth="yes"/>
      <point x="233" y="690"/>
      <point x="121" y="571"/>
      <point x="88" y="377" type="curve" smooth="yes"/>
      <point x="79" y="324" type="line" smooth="yes"/>
      <point x="47" y="135"/>
      <point x="117" y="-9"/>
      <point x="303" y="-10" type="curve"/>
      <point x="330" y="-149"/>
      <point x="407" y="-208"/>
      <point x="512" y="-208" type="curve"/>
    </contour>
    <contour>
      <point x="511" y="412" type="curve" smooth="yes"/>
      <point x="486" y="259" type="line" smooth="yes"/>
      <point x="461" y="108"/>
      <point x="400" y="25"/>
      <point x="302" y="25" type="curve" smooth="yes"/>
      <point x="201" y="25"/>
      <point x="172" y="111"/>
      <point x="198" y="269" type="curve" smooth="yes"/>
      <point x="223" y="422" type="line" smooth="yes"/>
      <point x="249" y="574"/>
      <point x="308" y="655"/>
      <point x="405" y="655" type="curve" smooth="yes"/>
      <point x="508" y="655"/>
      <point x="537" y="572"/>
    </contour>
  </outline>
</glyph>
<glyph name="R" format="1">
  <advance width="651"/>
  <unicode hex="0052"/>
  <outline>
    <contour>
      <point x="113" y="652" type="line"/>
      <point x="167" y="645" type="line" smooth="yes"/>
      <point x="187" y="642"/>
      <point x="188" y="641"/>
      <point x="180" y="596" type="curve" smooth="yes"/>
      <point x="90" y="84" type="line" smooth="yes"/>
      <point x="82" y="39"/>
      <point x="81" y="38"/>
      <point x="59" y="35" type="curve" smooth="yes"/>
      <point x="3" y="28" type="line"/>
      <point x="-2" y="0" type="line"/>
      <point x="272" y="0" type="line"/>
      <point x="277" y="28" type="line"/>
      <point x="223" y="35" type="line" smooth="yes"/>
      <point x="203" y="38"/>
      <point x="202" y="39"/>
      <point x="210" y="84" type="curve" smooth="yes"/>
      <point x="250" y="310" type="line"/>
      <point x="330" y="310" type="line"/>
      <point x="426" y="0" type="line"/>
      <point x="606" y="0" type="line"/>
      <point x="611" y="28" type="line"/>
      <point x="567" y="35" type="line" smooth="yes"/>
      <point x="547" y="38"/>
      <point x="547" y="39"/>
      <point x="531" y="84" type="curve" smooth="yes"/>
      <point x="448" y="319" type="line"/>
      <point x="535" y="339"/>
      <point x="588" y="392"/>
      <point x="603" y="477" type="curve" smooth="yes"/>
      <point x="607" y="500" type="line" smooth="yes"/>
      <point x="625" y="601"/>
      <point x="554" y="680"/>
      <point x="415" y="680" type="curve" smooth="yes"/>
      <point x="118" y="680" type="line"/>
    </contour>
    <contour>
      <point x="414" y="645" type="line" smooth="yes"/>
      <point x="472" y="645"/>
      <point x="496" y="603"/>
      <point x="481" y="510" type="curve" smooth="yes"/>
      <point x="474" y="467" type="line" smooth="yes"/>
      <point x="460" y="382"/>
      <point x="419" y="345"/>
      <point x="361" y="345" type="curve" smooth="yes"/>
      <point x="256" y="345" type="line"/>
      <point x="309" y="645" type="line"/>
    </contour>
  </outline>
</glyph>
<glyph name="S" format="1">
  <advance width="562"/>
  <unicode hex="0053"/>
  <outline>
    <contour>
      <point x="245" y="-10" type="curve" smooth="yes"/>
      <point x="414" y="-10"/>
      <point x="501" y="83"/>
      <point x="501" y="200" type="curve" smooth="yes"/>
      <point x="501" y="282"/>
      <point x="456" y="338"/>
      <point x="377" y="371" type="curve" smooth="yes"/>
      <point x="286" y="409" type="line" smooth="yes"/>
      <point x="220" y="437"/>
      <point x="198" y="477"/>
      <point x="198" y="536" type="curve" smooth="yes"/>
      <point x="198" y="616"/>
      <point x="245" y="655"/>
      <point x="318" y="655" type="curve" smooth="yes"/>
      <point x="417" y="655"/>
      <point x="446" y="578"/>
      <point x="407" y="462" type="curve"/>
      <point x="526" y="483" type="line"/>
      <point x="552" y="566"/>
      <point x="501" y="690"/>
      <point x="328" y="690" type="curve" smooth="yes"/>
      <point x="171" y="690"/>
      <point x="96" y="603"/>
      <point x="96" y="488" type="curve" smooth="yes"/>
      <point x="96" y="398"/>
      <point x="140" y="340"/>
      <point x="215" y="308" type="curve" smooth="yes"/>
      <point x="305" y="270" type="line" smooth="yes"/>
      <point x="377" y="240"/>
      <point x="399" y="204"/>
      <point x="399" y="151" type="curve" smooth="yes"/>
      <point x="399" y="71"/>
      <point x="345" y="25"/>
      <point x="245" y="25" type="curve" smooth="yes"/>
      <point x="156" y="25"/>
      <point x="88" y="61"/>
      <point x="101" y="195" type="curve"/>
      <point x="30" y="171" type="line"/>
      <point x="24" y="36"/>
      <point x="123" y="-10"/>
    </contour>
  </outline>
</glyph>
<glyph name="T" format="1">
  <advance width="574"/>
  <unicode hex="0054"/>
  <outline>
    <contour>
      <point x="57" y="508" type="line"/>
      <point x="85" y="508" type="line"/>
      <point x="136" y="619" type="line" smooth="yes"/>
      <point x="148" y="645"/>
      <point x="148" y="645"/>
      <point x="195" y="645" type="curve" smooth="yes"/>
      <point x="296" y="645" type="line"/>
      <point x="197" y="84" type="line" smooth="yes"/>
      <point x="189" y="39"/>
      <point x="188" y="38"/>
      <point x="166" y="35" type="curve" smooth="yes"/>
      <point x="110" y="28" type="line"/>
      <point x="105" y="0" type="line"/>
      <point x="379" y="0" type="line"/>
      <point x="384" y="28" type="line"/>
      <point x="330" y="35" type="line" smooth="yes"/>
      <point x="310" y="38"/>
      <point x="309" y="39"/>
      <point x="317" y="84" type="curve" smooth="yes"/>
      <point x="416" y="645" type="line"/>
      <point x="517" y="645" type="line" smooth="yes"/>
      <point x="564" y="645"/>
      <point x="564" y="645"/>
      <point x="566" y="619" type="curve" smooth="yes"/>
      <point x="579" y="508" type="line"/>
      <point x="607" y="508" type="line"/>
      <point x="637" y="680" type="line"/>
      <point x="87" y="680" type="line"/>
    </contour>
  </outline>
</glyph>
<glyph name="U" format="1">
  <advance width="684"/>
  <unicode hex="0055"/>
  <outline>
    <contour>
      <point x="535" y="652" type="line"/>
      <point x="589" y="645" type="line" smooth="yes"/>
      <point x="609" y="642"/>
      <point x="610" y="641"/>
      <point x="602" y="596" type="curve" smooth="yes"/>
      <point x="537" y="229" type="line" smooth="yes"/>
      <point x="512" y="86"/>
      <point x="442" y="25"/>
      <point x="339" y="25" type="curve" smooth="yes"/>
      <point x="238" y="25"/>
      <point x="194" y="86"/>
      <point x="219" y="229" type="curve" smooth="yes"/>
      <point x="284" y="596" type="line" smooth="yes"/>
      <point x="292" y="641"/>
      <point x="296" y="642"/>
      <point x="315" y="645" type="curve" smooth="yes"/>
      <point x="371" y="652" type="line"/>
      <point x="376" y="680" type="line"/>
      <point x="102" y="680" type="line"/>
      <point x="97" y="652" type="line"/>
      <point x="151" y="645" type="line" smooth="yes"/>
      <point x="171" y="642"/>
      <point x="172" y="641"/>
      <point x="164" y="596" type="curve" smooth="yes"/>
      <point x="101" y="239" type="line" smooth="yes"/>
      <point x="73" y="82"/>
      <point x="167" y="-10"/>
      <point x="330" y="-10" type="curve" smooth="yes"/>
      <point x="470" y="-10"/>
      <point x="550" y="75"/>
      <point x="577" y="229" type="curve" smooth="yes"/>
      <point x="642" y="596" type="line" smooth="yes"/>
      <point x="650" y="641"/>
      <point x="654" y="642"/>
      <point x="673" y="645" type="curve" smooth="yes"/>
      <point x="729" y="652" type="line"/>
      <point x="734" y="680" type="line"/>
      <point x="540" y="680" type="line"/>
    </contour>
  </outline>
</glyph>
<glyph name="V" format="1">
  <advance width="632"/>
  <unicode hex="0056"/>
  <outline>
    <contour>
      <point x="608" y="596" type="line" smooth="yes"/>
      <point x="630" y="641"/>
      <point x="630" y="642"/>
      <point x="652" y="645" type="curve" smooth="yes"/>
      <point x="708" y="652" type="line"/>
      <point x="713" y="680" type="line"/>
      <point x="518" y="680" type="line"/>
      <point x="513" y="652" type="line"/>
      <point x="567" y="645" type="line" smooth="yes"/>
      <point x="587" y="642"/>
      <point x="588" y="641"/>
      <point x="566" y="596" type="curve" smooth="yes"/>
      <point x="332" y="119" type="line"/>
      <point x="264" y="596" type="line" smooth="yes"/>
      <point x="258" y="641"/>
      <point x="259" y="642"/>
      <point x="281" y="645" type="curve" smooth="yes"/>
      <point x="337" y="652" type="line"/>
      <point x="342" y="680" type="line"/>
      <point x="67" y="680" type="line"/>
      <point x="62" y="652" type="line"/>
      <point x="116" y="645" type="line" smooth="yes"/>
      <point x="136" y="642"/>
      <point x="137" y="641"/>
      <point x="143" y="596" type="curve" smooth="yes"/>
      <point x="228" y="0" type="line"/>
      <point x="314" y="0" type="line"/>
    </contour>
  </outline>
</glyph>
<glyph name="W" format="1">
  <advance width="938"/>
  <unicode hex="0057"/>
  <outline>
    <contour>
      <point x="583" y="0" type="line"/>
      <point x="671" y="0" type="line"/>
      <point x="915" y="596" type="line" smooth="yes"/>
      <point x="933" y="641"/>
      <point x="934" y="642"/>
      <point x="957" y="645" type="curve" smooth="yes"/>
      <point x="1013" y="652" type="line"/>
      <point x="1018" y="680" type="line"/>
      <point x="820" y="680" type="line"/>
      <point x="815" y="652" type="line"/>
      <point x="869" y="645" type="line" smooth="yes"/>
      <point x="888" y="643"/>
      <point x="889" y="642"/>
      <point x="871" y="596" type="curve" smooth="yes"/>
      <point x="688" y="140" type="line"/>
      <point x="617" y="680" type="line"/>
      <point x="534" y="680" type="line"/>
      <point x="285" y="132" type="line"/>
      <point x="262" y="596" type="line" smooth="yes"/>
      <point x="260" y="642"/>
      <point x="260" y="642"/>
      <point x="282" y="645" type="curve" smooth="yes"/>
      <point x="338" y="652" type="line"/>
      <point x="343" y="680" type="line"/>
      <point x="70" y="680" type="line"/>
      <point x="65" y="652" type="line"/>
      <point x="119" y="645" type="line" smooth="yes"/>
      <point x="140" y="642"/>
      <point x="141" y="641"/>
      <point x="143" y="596" type="curve" smooth="yes"/>
      <point x="177" y="0" type="line"/>
      <point x="264" y="0" type="line"/>
      <point x="516" y="547" type="line"/>
    </contour>
  </outline>
</glyph>
<glyph name="X" format="1">
  <advance width="621"/>
  <unicode hex="0058"/>
  <outline>
    <contour>
      <point x="162" y="28" type="line"/>
      <point x="108" y="35" type="line" smooth="yes"/>
      <point x="88" y="38"/>
      <point x="87" y="39"/>
      <point x="123" y="84" type="curve" smooth="yes"/>
      <point x="283" y="285" type="line"/>
      <point x="357" y="84" type="line" smooth="yes"/>
      <point x="374" y="39"/>
      <point x="373" y="38"/>
      <point x="351" y="35" type="curve" smooth="yes"/>
      <point x="295" y="28" type="line"/>
      <point x="290" y="0" type="line"/>
      <point x="570" y="0" type="line"/>
      <point x="575" y="28" type="line"/>
      <point x="521" y="35" type="line" smooth="yes"/>
      <point x="501" y="38"/>
      <point x="500" y="39"/>
      <point x="484" y="84" type="curve" smooth="yes"/>
      <point x="380" y="369" type="line"/>
      <point x="560" y="596" type="line" smooth="yes"/>
      <point x="597" y="642"/>
      <point x="598" y="642"/>
      <point x="619" y="645" type="curve" smooth="yes"/>
      <point x="675" y="652" type="line"/>
      <point x="680" y="680" type="line"/>
      <point x="478" y="680" type="line"/>
      <point x="473" y="652" type="line"/>
      <point x="527" y="645" type="line" smooth="yes"/>
      <point x="547" y="642"/>
      <point x="548" y="641"/>
      <point x="512" y="596" type="curve" smooth="yes"/>
      <point x="365" y="411" type="line"/>
      <point x="297" y="596" type="line" smooth="yes"/>
      <point x="281" y="641"/>
      <point x="282" y="642"/>
      <point x="303" y="645" type="curve" smooth="yes"/>
      <point x="359" y="652" type="line"/>
      <point x="364" y="680" type="line"/>
      <point x="83" y="680" type="line"/>
      <point x="78" y="652" type="line"/>
      <point x="132" y="645" type="line" smooth="yes"/>
      <point x="152" y="642"/>
      <point x="153" y="641"/>
      <point x="169" y="596" type="curve" smooth="yes"/>
      <point x="268" y="326" type="line"/>
      <point x="75" y="84" type="line" smooth="yes"/>
      <point x="38" y="38"/>
      <point x="37" y="38"/>
      <point x="16" y="35" type="curve" smooth="yes"/>
      <point x="-40" y="28" type="line"/>
      <point x="-45" y="0" type="line"/>
      <point x="157" y="0" type="line"/>
    </contour>
  </outline>
</glyph>
<glyph name="Y" format="1">
  <advance width="615"/>
  <unicode hex="0059"/>
  <outline>
    <contour>
      <point x="406" y="28" type="line"/>
      <point x="352" y="35" type="line" smooth="yes"/>
      <point x="332" y="38"/>
      <point x="331" y="39"/>
      <point x="339" y="84" type="curve"/>
      <point x="375" y="292" type="line"/>
      <point x="586" y="596" type="line" smooth="yes"/>
      <point x="617" y="641"/>
      <point x="618" y="642"/>
      <point x="639" y="645" type="curve" smooth="yes"/>
      <point x="695" y="652" type="line"/>
      <point x="700" y="680" type="line"/>
      <point x="501" y="680" type="line"/>
      <point x="496" y="652" type="line"/>
      <point x="550" y="645" type="line" smooth="yes"/>
      <point x="569" y="643"/>
      <point x="571" y="640"/>
      <point x="540" y="596" type="curve" smooth="yes"/>
      <point x="361" y="338" type="line"/>
      <point x="278" y="596" type="line" smooth="yes"/>
      <point x="263" y="641"/>
      <point x="265" y="642"/>
      <point x="286" y="645" type="curve" smooth="yes"/>
      <point x="342" y="652" type="line"/>
      <point x="347" y="680" type="line"/>
      <point x="65" y="680" type="line"/>
      <point x="60" y="652" type="line"/>
      <point x="114" y="645" type="line" smooth="yes"/>
      <point x="133" y="642"/>
      <point x="134" y="642"/>
      <point x="150" y="596" type="curve" smooth="yes"/>
      <point x="255" y="292" type="line"/>
      <point x="215" y="64" type="line"/>
      <point x="210" y="39"/>
      <point x="206" y="37"/>
      <point x="188" y="35" type="curve" smooth="yes"/>
      <point x="132" y="28" type="line"/>
      <point x="127" y="0" type="line"/>
      <point x="401" y="0" type="line"/>
    </contour>
  </outline>
</glyph>
<glyph name="Z" format="1">
  <advance width="546"/>
  <unicode hex="005A"/>
  <outline>
    <contour>
      <point x="493" y="172" type="line"/>
      <point x="465" y="172" type="line"/>
      <point x="414" y="61" type="line" smooth="yes"/>
      <point x="403" y="37"/>
      <point x="402" y="35"/>
      <point x="355" y="35" type="curve" smooth="yes"/>
      <point x="141" y="35" type="line"/>
      <point x="568" y="655" type="line"/>
      <point x="573" y="680" type="line"/>
      <point x="129" y="680" type="line"/>
      <point x="99" y="508" type="line"/>
      <point x="127" y="508" type="line"/>
      <point x="178" y="619" type="line" smooth="yes"/>
      <point x="189" y="643"/>
      <point x="190" y="645"/>
      <point x="237" y="645" type="curve" smooth="yes"/>
      <point x="424" y="645" type="line"/>
      <point x="-3" y="25" type="line"/>
      <point x="-7" y="0" type="line"/>
      <point x="463" y="0" type="line"/>
    </contour>
  </outline>
</glyph>
<glyph name="bracketleft" format="1">
  <advance width="350"/>
  <unicode hex="005B"/>
  <outline>
    <contour>
      <point x="276" y="-108" type="line"/>
      <point x="146" y="-108" type="line"/>
      <point x="289" y="705" type="line"/>
      <point x="419" y="705" type="line"/>
      <point x="425" y="740" type="line"/>
      <point x="180" y="740" type="line"/>
      <point x="25" y="-143" type="line"/>
      <point x="270" y="-143" type="line"/>
    </contour>
  </outline>
</glyph>
<glyph name="backslash" format="1">
  <advance width="373"/>
  <unicode hex="005C"/>
  <outline>
    <contour>
      <point x="133" y="740" type="line"/>
      <point x="93" y="729" type="line"/>
      <point x="287" y="-139" type="line"/>
      <point x="327" y="-128" type="line"/>
    </contour>
  </outline>
</glyph>
<glyph name="bracketright" format="1">
  <advance width="350"/>
  <unicode hex="005D"/>
  <outline>
    <contour>
      <point x="340" y="740" type="line"/>
      <point x="95" y="740" type="line"/>
      <point x="89" y="705" type="line"/>
      <point x="219" y="705" type="line"/>
      <point x="76" y="-108" type="line"/>
      <point x="-54" y="-108" type="line"/>
      <point x="-60" y="-143" type="line"/>
      <point x="185" y="-143" type="line"/>
    </contour>
  </outline>
</glyph>
<glyph name="asciicircum" format="1">
  <advance width="588"/>
  <unicode hex="005E"/>
  <outline>
    <contour>
      <point x="473" y="278" type="line"/>
      <point x="383" y="680" type="line"/>
      <point x="355" y="680" type="line"/>
      <point x="123" y="278" type="line"/>
      <point x="156" y="266" type="line"/>
      <point x="360" y="622" type="line"/>
      <point x="439" y="266" type="line"/>
    </contour>
  </outline>
</glyph>
<glyph name="underscore" format="1">
  <advance width="418.3959678779311"/>
  <unicode hex="005F"/>
  <outline>
    <contour>
      <point x="-54" y="-145" type="line"/>
      <point x="330" y="-145" type="line"/>
      <point x="337" y="-110" type="line"/>
      <point x="-47" y="-110" type="line"/>
    </contour>
  </outline>
</glyph>
<glyph name="grave" format="1">
  <advance width="500"/>
  <unicode hex="0060"/>
  <outline>
    <contour>
      <point x="308" y="579" type="curve"/>
      <point x="335" y="597" type="line"/>
      <point x="312" y="642"/>
      <point x="297" y="679"/>
      <point x="293" y="740" type="curve"/>
      <point x="172" y="740" type="line"/>
      <point x="207" y="678"/>
      <point x="244" y="634"/>
    </contour>
  </outline>
</glyph>
<glyph name="a" format="1">
  <advance width="587.3648606011974"/>
  <unicode hex="0061"/>
  <outline>
    <contour>
      <point x="447" y="-5" type="curve" smooth="yes"/>
      <point x="500" y="-5"/>
      <point x="541" y="22"/>
      <point x="571" y="83" type="curve"/>
      <point x="532" y="105" type="line"/>
      <point x="515" y="54"/>
      <point x="492" y="35"/>
      <point x="473" y="35" type="curve" smooth="yes"/>
      <point x="453" y="35"/>
      <point x="452" y="56"/>
      <point x="469" y="150" type="curve" smooth="yes"/>
      <point x="532" y="507" type="line"/>
      <point x="505" y="507" type="line"/>
      <point x="476" y="486"/>
      <point x="442" y="473"/>
      <point x="411" y="465" type="curve"/>
      <point x="385" y="499"/>
      <point x="344" y="517"/>
      <point x="294" y="517" type="curve" smooth="yes"/>
      <point x="186" y="517"/>
      <point x="86" y="437"/>
      <point x="59" y="288" type="curve" smooth="yes"/>
      <point x="55" y="266" type="line" smooth="yes"/>
      <point x="27" y="113"/>
      <point x="80" y="-10"/>
      <point x="202" y="-10" type="curve" smooth="yes"/>
      <point x="255" y="-10"/>
      <point x="307" y="11"/>
      <point x="350" y="82" type="curve"/>
      <point x="356" y="26"/>
      <point x="392" y="-5"/>
    </contour>
    <contour>
      <point x="175" y="248" type="curve" smooth="yes"/>
      <point x="184" y="300" type="line" smooth="yes"/>
      <point x="203" y="410"/>
      <point x="237" y="477"/>
      <point x="307" y="477" type="curve" smooth="yes"/>
      <point x="342" y="477"/>
      <point x="378" y="461"/>
      <point x="400" y="415" type="curve"/>
      <point x="356" y="163" type="line"/>
      <point x="306" y="51"/>
      <point x="254" y="31"/>
      <point x="227" y="31" type="curve" smooth="yes"/>
      <point x="176" y="31"/>
      <point x="150" y="101"/>
    </contour>
  </outline>
</glyph>
<glyph name="b" format="1">
  <advance width="581.5155530008706"/>
  <unicode hex="0062"/>
  <outline>
    <contour>
      <point x="522" y="219" type="curve" smooth="yes"/>
      <point x="526" y="241" type="line" smooth="yes"/>
      <point x="554" y="394"/>
      <point x="501" y="517"/>
      <point x="380" y="517" type="curve" smooth="yes"/>
      <point x="328" y="517"/>
      <point x="280" y="495"/>
      <point x="237" y="424" type="curve"/>
      <point x="293" y="740" type="line"/>
      <point x="101" y="740" type="line"/>
      <point x="97" y="712" type="line"/>
      <point x="150" y="705" type="line" smooth="yes"/>
      <point x="170" y="702"/>
      <point x="171" y="701"/>
      <point x="163" y="656" type="curve" smooth="yes"/>
      <point x="47" y="-5" type="line"/>
      <point x="74" y="-5" type="line"/>
      <point x="106" y="17"/>
      <point x="137" y="34"/>
      <point x="168" y="42" type="curve"/>
      <point x="195" y="8"/>
      <point x="236" y="-10"/>
      <point x="286" y="-10" type="curve" smooth="yes"/>
      <point x="395" y="-10"/>
      <point x="495" y="70"/>
    </contour>
    <contour>
      <point x="353" y="476" type="curve" smooth="yes"/>
      <point x="405" y="476"/>
      <point x="431" y="406"/>
      <point x="406" y="259" type="curve" smooth="yes"/>
      <point x="397" y="207" type="line" smooth="yes"/>
      <point x="378" y="97"/>
      <point x="344" y="30"/>
      <point x="273" y="30" type="curve" smooth="yes"/>
      <point x="238" y="30"/>
      <point x="201" y="46"/>
      <point x="179" y="92" type="curve"/>
      <point x="218" y="314" type="line"/>
      <point x="274" y="450"/>
      <point x="325" y="476"/>
    </contour>
  </outline>
</glyph>
<glyph name="c" format="1">
  <advance width="489.36622358313707"/>
  <unicode hex="0063"/>
  <outline>
    <contour>
      <point x="310" y="482" type="curve" smooth="yes"/>
      <point x="369" y="482"/>
      <point x="390" y="414"/>
      <point x="356" y="306" type="curve"/>
      <point x="469" y="322" type="line"/>
      <point x="504" y="425"/>
      <point x="436" y="517"/>
      <point x="316" y="517" type="curve" smooth="yes"/>
      <point x="183" y="517"/>
      <point x="80" y="421"/>
      <point x="55" y="282" type="curve" smooth="yes"/>
      <point x="51" y="260" type="line" smooth="yes"/>
      <point x="21" y="98"/>
      <point x="95" y="-10"/>
      <point x="240" y="-10" type="curve" smooth="yes"/>
      <point x="312" y="-10"/>
      <point x="381" y="17"/>
      <point x="428" y="98" type="curve"/>
      <point x="375" y="129" type="line"/>
      <point x="348" y="52"/>
      <point x="292" y="25"/>
      <point x="249" y="25" type="curve" smooth="yes"/>
      <point x="174" y="25"/>
      <point x="147" y="95"/>
      <point x="170" y="235" type="curve" smooth="yes"/>
      <point x="180" y="295" type="line" smooth="yes"/>
      <point x="202" y="426"/>
      <point x="254" y="482"/>
    </contour>
  </outline>
</glyph>
<glyph name="e" format="1">
  <advance width="496.7199558905704"/>
  <unicode hex="0065"/>
  <outline>
    <contour>
      <point x="440" y="98" type="curve"/>
      <point x="387" y="128" type="line"/>
      <point x="360" y="51"/>
      <point x="296" y="25"/>
      <point x="253" y="25" type="curve" smooth="yes"/>
      <point x="177" y="25"/>
      <point x="149" y="90"/>
      <point x="168" y="219" type="curve"/>
      <point x="206" y="222" type="line" smooth="yes"/>
      <point x="367" y="233"/>
      <point x="480" y="293"/>
      <point x="480" y="397" type="curve" smooth="yes"/>
      <point x="480" y="459"/>
      <point x="425" y="517"/>
      <point x="322" y="517" type="curve" smooth="yes"/>
      <point x="184" y="517"/>
      <point x="80" y="421"/>
      <point x="55" y="282" type="curve" smooth="yes"/>
      <point x="51" y="260" type="line" smooth="yes"/>
      <point x="22" y="98"/>
      <point x="97" y="-10"/>
      <point x="244" y="-10" type="curve" smooth="yes"/>
      <point x="317" y="-10"/>
      <point x="393" y="17"/>
    </contour>
    <contour>
      <point x="180" y="295" type="line" smooth="yes"/>
      <point x="202" y="426"/>
      <point x="256" y="482"/>
      <point x="316" y="482" type="curve" smooth="yes"/>
      <point x="358" y="482"/>
      <point x="383" y="452"/>
      <point x="383" y="401" type="curve" smooth="yes"/>
      <point x="383" y="338"/>
      <point x="348" y="265"/>
      <point x="205" y="256" type="curve" smooth="yes"/>
      <point x="173" y="254" type="line"/>
    </contour>
  </outline>
</glyph>
<glyph name="f" format="1">
  <advance width="337"/>
  <unicode hex="0066"/>
  <outline>
    <contour>
      <point x="403" y="472" type="line"/>
      <point x="409" y="507" type="line"/>
      <point x="259" y="507" type="line"/>
      <point x="272" y="581" type="line" smooth="yes"/>
      <point x="292" y="690"/>
      <point x="320" y="715"/>
      <point x="360" y="715" type="curve" smooth="yes"/>
      <point x="408" y="715"/>
      <point x="425" y="678"/>
      <point x="394" y="581" type="curve"/>
      <point x="507" y="597" type="line"/>
      <point x="531" y="669"/>
      <point x="486" y="750"/>
      <point x="361" y="750" type="curve" smooth="yes"/>
      <point x="227" y="750"/>
      <point x="172" y="664"/>
      <point x="154" y="561" type="curve" smooth="yes"/>
      <point x="144" y="507" type="line"/>
      <point x="67" y="507" type="line"/>
      <point x="62" y="479" type="line"/>
      <point x="116" y="472" type="line" smooth="yes"/>
      <point x="136" y="469"/>
      <point x="138" y="468"/>
      <point x="130" y="423" type="curve" smooth="yes"/>
      <point x="17" y="-213" type="line"/>
      <point x="132" y="-213" type="line"/>
      <point x="253" y="472" type="line"/>
    </contour>
  </outline>
</glyph>
<glyph name="g" format="1">
  <advance width="573.6022207808082"/>
  <unicode hex="0067"/>
  <outline>
    <contour>
      <point x="445" y="9" type="curve" smooth="yes"/>
      <point x="533" y="507" type="line"/>
      <point x="506" y="507" type="line"/>
      <point x="477" y="486"/>
      <point x="444" y="473"/>
      <point x="413" y="465" type="curve"/>
      <point x="386" y="499"/>
      <point x="345" y="517"/>
      <point x="295" y="517" type="curve" smooth="yes"/>
      <point x="186" y="517"/>
      <point x="86" y="437"/>
      <point x="59" y="288" type="curve" smooth="yes"/>
      <point x="55" y="266" type="line" smooth="yes"/>
      <point x="27" y="113"/>
      <point x="80" y="-10"/>
      <point x="203" y="-10" type="curve" smooth="yes"/>
      <point x="251" y="-10"/>
      <point x="300" y="8"/>
      <point x="341" y="66" type="curve"/>
      <point x="329" y="-1" type="line" smooth="yes"/>
      <point x="304" y="-142"/>
      <point x="251" y="-190"/>
      <point x="172" y="-190" type="curve" smooth="yes"/>
      <point x="114" y="-190"/>
      <point x="76" y="-156"/>
      <point x="82" y="-64" type="curve"/>
      <point x="25" y="-78" type="line"/>
      <point x="22" y="-165"/>
      <point x="68" y="-223"/>
      <point x="174" y="-223" type="curve" smooth="yes"/>
      <point x="343" y="-223"/>
      <point x="423" y="-113"/>
    </contour>
    <contour>
      <point x="175" y="248" type="curve" smooth="yes"/>
      <point x="184" y="300" type="line" smooth="yes"/>
      <point x="203" y="410"/>
      <point x="237" y="477"/>
      <point x="308" y="477" type="curve" smooth="yes"/>
      <point x="343" y="477"/>
      <point x="380" y="461"/>
      <point x="402" y="414" type="curve"/>
      <point x="358" y="163" type="line"/>
      <point x="308" y="51"/>
      <point x="255" y="31"/>
      <point x="228" y="31" type="curve" smooth="yes"/>
      <point x="176" y="31"/>
      <point x="150" y="101"/>
    </contour>
  </outline>
</glyph>
<glyph name="h" format="1">
  <advance width="619"/>
  <unicode hex="0068"/>
  <outline>
    <contour>
      <point x="603" y="83" type="curve"/>
      <point x="564" y="105" type="line"/>
      <point x="547" y="54"/>
      <point x="524" y="35"/>
      <point x="505" y="35" type="curve" smooth="yes"/>
      <point x="484" y="35"/>
      <point x="483" y="58"/>
      <point x="501" y="150" type="curve" smooth="yes"/>
      <point x="538" y="337" type="line" smooth="yes"/>
      <point x="561" y="451"/>
      <point x="508" y="517"/>
      <point x="413" y="517" type="curve" smooth="yes"/>
      <point x="350" y="517"/>
      <point x="290" y="487"/>
      <point x="238" y="419" type="curve"/>
      <point x="294" y="740" type="line"/>
      <point x="102" y="740" type="line"/>
      <point x="97" y="712" type="line"/>
      <point x="151" y="705" type="line" smooth="yes"/>
      <point x="171" y="702"/>
      <point x="172" y="701"/>
      <point x="164" y="656" type="curve" smooth="yes"/>
      <point x="49" y="0" type="line"/>
      <point x="164" y="0" type="line"/>
      <point x="222" y="328" type="line"/>
      <point x="280" y="441"/>
      <point x="343" y="468"/>
      <point x="380" y="468" type="curve" smooth="yes"/>
      <point x="421" y="468"/>
      <point x="441" y="428"/>
      <point x="423" y="336" type="curve" smooth="yes"/>
      <point x="384" y="142" type="line" smooth="yes"/>
      <point x="365" y="49"/>
      <point x="406" y="-5"/>
      <point x="479" y="-5" type="curve" smooth="yes"/>
      <point x="532" y="-5"/>
      <point x="573" y="22"/>
    </contour>
  </outline>
</glyph>
<glyph name="i" format="1">
  <advance width="308"/>
  <unicode hex="0069"/>
  <outline>
    <contour>
      <point x="216" y="595" type="curve" smooth="yes"/>
      <point x="262" y="595"/>
      <point x="290" y="629"/>
      <point x="290" y="670" type="curve" smooth="yes"/>
      <point x="290" y="707"/>
      <point x="267" y="730"/>
      <point x="228" y="730" type="curve" smooth="yes"/>
      <point x="182" y="730"/>
      <point x="154" y="696"/>
      <point x="154" y="655" type="curve" smooth="yes"/>
      <point x="154" y="618"/>
      <point x="177" y="595"/>
    </contour>
    <contour>
      <point x="56" y="479" type="line"/>
      <point x="110" y="472" type="line" smooth="yes"/>
      <point x="130" y="469"/>
      <point x="131" y="468"/>
      <point x="123" y="423" type="curve" smooth="yes"/>
      <point x="74" y="142" type="line" smooth="yes"/>
      <point x="58" y="49"/>
      <point x="96" y="-5"/>
      <point x="169" y="-5" type="curve" smooth="yes"/>
      <point x="222" y="-5"/>
      <point x="263" y="22"/>
      <point x="293" y="83" type="curve"/>
      <point x="254" y="105" type="line"/>
      <point x="237" y="54"/>
      <point x="214" y="35"/>
      <point x="195" y="35" type="curve" smooth="yes"/>
      <point x="175" y="35"/>
      <point x="175" y="56"/>
      <point x="191" y="150" type="curve" smooth="yes"/>
      <point x="253" y="507" type="line"/>
      <point x="61" y="507" type="line"/>
    </contour>
  </outline>
</glyph>
<glyph name="j" format="1">
  <advance width="301.09655236134176"/>
  <unicode hex="006A"/>
  <outline>
    <contour>
      <point x="214" y="595" type="curve" smooth="yes"/>
      <point x="253" y="595"/>
      <point x="287" y="622"/>
      <point x="294" y="663" type="curve" smooth="yes"/>
      <point x="301" y="703"/>
      <point x="277" y="730"/>
      <point x="238" y="730" type="curve" smooth="yes"/>
      <point x="198" y="730"/>
      <point x="166" y="703"/>
      <point x="159" y="663" type="curve" smooth="yes"/>
      <point x="152" y="622"/>
      <point x="174" y="595"/>
    </contour>
    <contour>
      <point x="60" y="479" type="line"/>
      <point x="114" y="472" type="line" smooth="yes"/>
      <point x="134" y="469"/>
      <point x="135" y="468"/>
      <point x="127" y="423" type="curve" smooth="yes"/>
      <point x="43" y="-54" type="line" smooth="yes"/>
      <point x="25" y="-155"/>
      <point x="-5" y="-188"/>
      <point x="-52" y="-188" type="curve" smooth="yes"/>
      <point x="-81" y="-188"/>
      <point x="-109" y="-167"/>
      <point x="-102" y="-79" type="curve"/>
      <point x="-167" y="-101" type="line"/>
      <point x="-174" y="-180"/>
      <point x="-125" y="-223"/>
      <point x="-44" y="-223" type="curve" smooth="yes"/>
      <point x="82" y="-223"/>
      <point x="144" y="-134"/>
      <point x="161" y="-34" type="curve" smooth="yes"/>
      <point x="257" y="507" type="line"/>
      <point x="65" y="507" type="line"/>
    </contour>
  </outline>
</glyph>
<glyph name="k" format="1">
  <advance width="539"/>
  <unicode hex="006B"/>
  <outline>
    <contour>
      <point x="344" y="0" type="line"/>
      <point x="527" y="0" type="line"/>
      <point x="532" y="28" type="line"/>
      <point x="478" y="35" type="line" smooth="yes"/>
      <point x="457" y="38"/>
      <point x="452" y="39"/>
      <point x="435" y="84" type="curve" smooth="yes"/>
      <point x="344" y="320" type="line"/>
      <point x="395" y="356"/>
      <point x="456" y="386"/>
      <point x="541" y="398" type="curve"/>
      <point x="525" y="517" type="line"/>
      <point x="450" y="487"/>
      <point x="422" y="450"/>
      <point x="314" y="353" type="curve" smooth="yes"/>
      <point x="200" y="251" type="line"/>
      <point x="286" y="740" type="line"/>
      <point x="94" y="740" type="line"/>
      <point x="90" y="712" type="line"/>
      <point x="143" y="705" type="line" smooth="yes"/>
      <point x="163" y="702"/>
      <point x="164" y="701"/>
      <point x="156" y="656" type="curve" smooth="yes"/>
      <point x="41" y="0" type="line"/>
      <point x="156" y="0" type="line"/>
      <point x="189" y="190" type="line"/>
      <point x="255" y="246" type="line"/>
    </contour>
  </outline>
</glyph>
<glyph name="l" format="1">
  <advance width="300"/>
  <unicode hex="006C"/>
  <outline>
    <contour>
      <point x="88" y="712" type="line"/>
      <point x="142" y="705" type="line" smooth="yes"/>
      <point x="162" y="702"/>
      <point x="163" y="701"/>
      <point x="155" y="656" type="curve" smooth="yes"/>
      <point x="65" y="142" type="line" smooth="yes"/>
      <point x="49" y="49"/>
      <point x="87" y="-5"/>
      <point x="160" y="-5" type="curve" smooth="yes"/>
      <point x="213" y="-5"/>
      <point x="254" y="22"/>
      <point x="284" y="83" type="curve"/>
      <point x="245" y="105" type="line"/>
      <point x="228" y="54"/>
      <point x="205" y="35"/>
      <point x="186" y="35" type="curve" smooth="yes"/>
      <point x="166" y="35"/>
      <point x="165" y="56"/>
      <point x="182" y="151" type="curve" smooth="yes"/>
      <point x="285" y="740" type="line"/>
      <point x="93" y="740" type="line"/>
    </contour>
  </outline>
</glyph>
<glyph name="m" format="1">
  <advance width="927"/>
  <unicode hex="006D"/>
  <outline>
    <contour>
      <point x="902" y="83" type="curve"/>
      <point x="863" y="105" type="line"/>
      <point x="846" y="54"/>
      <point x="823" y="35"/>
      <point x="804" y="35" type="curve" smooth="yes"/>
      <point x="783" y="35"/>
      <point x="782" y="58"/>
      <point x="800" y="150" type="curve" smooth="yes"/>
      <point x="837" y="337" type="line" smooth="yes"/>
      <point x="860" y="451"/>
      <point x="808" y="517"/>
      <point x="717" y="517" type="curve" smooth="yes"/>
      <point x="652" y="517"/>
      <point x="590" y="483"/>
      <point x="536" y="406" type="curve"/>
      <point x="529" y="477"/>
      <point x="484" y="517"/>
      <point x="413" y="517" type="curve" smooth="yes"/>
      <point x="349" y="517"/>
      <point x="289" y="484"/>
      <point x="235" y="410" type="curve"/>
      <point x="252" y="507" type="line"/>
      <point x="66" y="507" type="line"/>
      <point x="61" y="479" type="line"/>
      <point x="115" y="472" type="line" smooth="yes"/>
      <point x="135" y="469"/>
      <point x="136" y="468"/>
      <point x="128" y="423" type="curve" smooth="yes"/>
      <point x="54" y="0" type="line"/>
      <point x="169" y="0" type="line"/>
      <point x="228" y="330" type="line"/>
      <point x="285" y="440"/>
      <point x="344" y="468"/>
      <point x="380" y="468" type="curve" smooth="yes"/>
      <point x="416" y="468"/>
      <point x="434" y="428"/>
      <point x="418" y="336" type="curve" smooth="yes"/>
      <point x="359" y="0" type="line"/>
      <point x="474" y="0" type="line"/>
      <point x="532" y="331" type="line"/>
      <point x="589" y="440"/>
      <point x="648" y="468"/>
      <point x="684" y="468" type="curve" smooth="yes"/>
      <point x="720" y="468"/>
      <point x="740" y="428"/>
      <point x="722" y="336" type="curve" smooth="yes"/>
      <point x="683" y="142" type="line" smooth="yes"/>
      <point x="664" y="49"/>
      <point x="705" y="-5"/>
      <point x="778" y="-5" type="curve" smooth="yes"/>
      <point x="831" y="-5"/>
      <point x="872" y="22"/>
    </contour>
  </outline>
</glyph>
<glyph name="n" format="1">
  <advance width="624"/>
  <unicode hex="006E"/>
  <outline>
    <contour>
      <point x="608" y="83" type="curve"/>
      <point x="569" y="105" type="line"/>
      <point x="552" y="54"/>
      <point x="529" y="35"/>
      <point x="510" y="35" type="curve" smooth="yes"/>
      <point x="489" y="35"/>
      <point x="488" y="58"/>
      <point x="506" y="150" type="curve" smooth="yes"/>
      <point x="543" y="337" type="line" smooth="yes"/>
      <point x="566" y="451"/>
      <point x="513" y="517"/>
      <point x="418" y="517" type="curve" smooth="yes"/>
      <point x="352" y="517"/>
      <point x="289" y="484"/>
      <point x="235" y="409" type="curve"/>
      <point x="252" y="507" type="line"/>
      <point x="66" y="507" type="line"/>
      <point x="61" y="479" type="line"/>
      <point x="115" y="472" type="line" smooth="yes"/>
      <point x="135" y="469"/>
      <point x="136" y="468"/>
      <point x="128" y="423" type="curve" smooth="yes"/>
      <point x="54" y="0" type="line"/>
      <point x="169" y="0" type="line"/>
      <point x="227" y="329" type="line"/>
      <point x="285" y="441"/>
      <point x="348" y="468"/>
      <point x="385" y="468" type="curve" smooth="yes"/>
      <point x="426" y="468"/>
      <point x="446" y="428"/>
      <point x="428" y="336" type="curve" smooth="yes"/>
      <point x="389" y="142" type="line" smooth="yes"/>
      <point x="370" y="49"/>
      <point x="411" y="-5"/>
      <point x="484" y="-5" type="curve" smooth="yes"/>
      <point x="537" y="-5"/>
      <point x="578" y="22"/>
    </contour>
  </outline>
</glyph>
<glyph name="o" format="1">
  <advance width="557"/>
  <unicode hex="006F"/>
  <outline>
    <contour>
      <point x="505" y="244" type="line" smooth="yes"/>
      <point x="535" y="397"/>
      <point x="463" y="517"/>
      <point x="315" y="517" type="curve" smooth="yes"/>
      <point x="174" y="517"/>
      <point x="83" y="431"/>
      <point x="55" y="284" type="curve" smooth="yes"/>
      <point x="51" y="263" type="line" smooth="yes"/>
      <point x="22" y="109"/>
      <point x="94" y="-10"/>
      <point x="240" y="-10" type="curve" smooth="yes"/>
      <point x="382" y="-10"/>
      <point x="473" y="76"/>
      <point x="501" y="223" type="curve" smooth="yes"/>
    </contour>
    <contour>
      <point x="387" y="274" type="curve" smooth="yes"/>
      <point x="376" y="213" type="line" smooth="yes"/>
      <point x="353" y="82"/>
      <point x="308" y="25"/>
      <point x="238" y="25" type="curve" smooth="yes"/>
      <point x="175" y="25"/>
      <point x="141" y="82"/>
      <point x="168" y="233" type="curve" smooth="yes"/>
      <point x="179" y="294" type="line" smooth="yes"/>
      <point x="203" y="425"/>
      <point x="248" y="482"/>
      <point x="317" y="482" type="curve" smooth="yes"/>
      <point x="381" y="482"/>
      <point x="415" y="425"/>
    </contour>
  </outline>
</glyph>
<glyph name="p" format="1">
  <advance width="587.5155530008706"/>
  <unicode hex="0070"/>
  <outline>
    <contour>
      <point x="292" y="-10" type="curve" smooth="yes"/>
      <point x="401" y="-10"/>
      <point x="501" y="70"/>
      <point x="528" y="219" type="curve" smooth="yes"/>
      <point x="532" y="241" type="line" smooth="yes"/>
      <point x="560" y="394"/>
      <point x="507" y="517"/>
      <point x="386" y="517" type="curve" smooth="yes"/>
      <point x="331" y="517"/>
      <point x="280" y="491"/>
      <point x="234" y="408" type="curve"/>
      <point x="252" y="507" type="line"/>
      <point x="66" y="507" type="line"/>
      <point x="61" y="479" type="line"/>
      <point x="115" y="472" type="line" smooth="yes"/>
      <point x="135" y="469"/>
      <point x="136" y="468"/>
      <point x="128" y="423" type="curve" smooth="yes"/>
      <point x="16" y="-213" type="line"/>
      <point x="131" y="-213" type="line"/>
      <point x="176" y="40" type="line"/>
      <point x="202" y="7"/>
      <point x="243" y="-10"/>
    </contour>
    <contour>
      <point x="359" y="476" type="curve" smooth="yes"/>
      <point x="411" y="476"/>
      <point x="437" y="406"/>
      <point x="412" y="259" type="curve" smooth="yes"/>
      <point x="403" y="207" type="line" smooth="yes"/>
      <point x="384" y="97"/>
      <point x="350" y="30"/>
      <point x="279" y="30" type="curve" smooth="yes"/>
      <point x="244" y="30"/>
      <point x="207" y="46"/>
      <point x="185" y="92" type="curve"/>
      <point x="224" y="315" type="line"/>
      <point x="280" y="450"/>
      <point x="331" y="476"/>
    </contour>
  </outline>
</glyph>
<glyph name="q" format="1">
  <advance width="574"/>
  <unicode hex="0071"/>
  <outline>
    <contour>
      <point x="534" y="512" type="line"/>
      <point x="507" y="512" type="line"/>
      <point x="476" y="490"/>
      <point x="444" y="473"/>
      <point x="413" y="465" type="curve"/>
      <point x="386" y="499"/>
      <point x="345" y="517"/>
      <point x="295" y="517" type="curve" smooth="yes"/>
      <point x="186" y="517"/>
      <point x="86" y="437"/>
      <point x="59" y="288" type="curve" smooth="yes"/>
      <point x="55" y="266" type="line" smooth="yes"/>
      <point x="27" y="113"/>
      <point x="80" y="-10"/>
      <point x="201" y="-10" type="curve" smooth="yes"/>
      <point x="252" y="-10"/>
      <point x="301" y="12"/>
      <point x="343" y="82" type="curve"/>
      <point x="291" y="-213" type="line"/>
      <point x="406" y="-213" type="line"/>
    </contour>
    <contour>
      <point x="175" y="248" type="curve" smooth="yes"/>
      <point x="184" y="300" type="line" smooth="yes"/>
      <point x="203" y="410"/>
      <point x="237" y="477"/>
      <point x="308" y="477" type="curve" smooth="yes"/>
      <point x="343" y="477"/>
      <point x="380" y="461"/>
      <point x="402" y="415" type="curve"/>
      <point x="363" y="192" type="line"/>
      <point x="307" y="57"/>
      <point x="256" y="31"/>
      <point x="228" y="31" type="curve" smooth="yes"/>
      <point x="176" y="31"/>
      <point x="150" y="101"/>
    </contour>
  </outline>
</glyph>
<glyph name="r" format="1">
  <advance width="457.06103319890235"/>
  <unicode hex="0072"/>
  <outline>
    <contour>
      <point x="342" y="447" type="curve" smooth="yes"/>
      <point x="363" y="447"/>
      <point x="384" y="431"/>
      <point x="393" y="377" type="curve"/>
      <point x="491" y="425" type="line"/>
      <point x="478" y="495"/>
      <point x="440" y="517"/>
      <point x="396" y="517" type="curve" smooth="yes"/>
      <point x="339" y="517"/>
      <point x="286" y="482"/>
      <point x="234" y="407" type="curve"/>
      <point x="252" y="507" type="line"/>
      <point x="66" y="507" type="line"/>
      <point x="61" y="479" type="line"/>
      <point x="115" y="472" type="line" smooth="yes"/>
      <point x="135" y="469"/>
      <point x="136" y="468"/>
      <point x="128" y="424" type="curve" smooth="yes"/>
      <point x="54" y="0" type="line"/>
      <point x="169" y="0" type="line"/>
      <point x="226" y="325" type="line"/>
      <point x="272" y="419"/>
      <point x="312" y="447"/>
    </contour>
  </outline>
</glyph>
<glyph name="s" format="1">
  <advance width="468"/>
  <unicode hex="0073"/>
  <outline>
    <contour>
      <point x="199" y="-10" type="curve" smooth="yes"/>
      <point x="345" y="-10"/>
      <point x="411" y="63"/>
      <point x="411" y="149" type="curve" smooth="yes"/>
      <point x="411" y="224"/>
      <point x="366" y="263"/>
      <point x="295" y="291" type="curve" smooth="yes"/>
      <point x="239" y="313" type="line" smooth="yes"/>
      <point x="197" y="329"/>
      <point x="167" y="350"/>
      <point x="167" y="400" type="curve" smooth="yes"/>
      <point x="167" y="450"/>
      <point x="202" y="482"/>
      <point x="255" y="482" type="curve" smooth="yes"/>
      <point x="324" y="482"/>
      <point x="346" y="431"/>
      <point x="317" y="340" type="curve"/>
      <point x="430" y="356" type="line"/>
      <point x="460" y="442"/>
      <point x="392" y="517"/>
      <point x="263" y="517" type="curve" smooth="yes"/>
      <point x="120" y="517"/>
      <point x="64" y="433"/>
      <point x="64" y="354" type="curve" smooth="yes"/>
      <point x="64" y="289"/>
      <point x="103" y="241"/>
      <point x="171" y="215" type="curve" smooth="yes"/>
      <point x="228" y="193" type="line" smooth="yes"/>
      <point x="288" y="170"/>
      <point x="308" y="148"/>
      <point x="308" y="111" type="curve" smooth="yes"/>
      <point x="308" y="63"/>
      <point x="273" y="25"/>
      <point x="197" y="25" type="curve" smooth="yes"/>
      <point x="126" y="25"/>
      <point x="77" y="57"/>
      <point x="84" y="145" type="curve"/>
      <point x="14" y="119" type="line"/>
      <point x="25" y="14"/>
      <point x="120" y="-10"/>
    </contour>
  </outline>
</glyph>
<glyph name="t" format="1">
  <advance width="369"/>
  <unicode hex="0074"/>
  <outline>
    <contour>
      <point x="349" y="104" type="curve"/>
      <point x="294" y="123" type="line"/>
      <point x="275" y="51"/>
      <point x="252" y="25"/>
      <point x="213" y="25" type="curve" smooth="yes"/>
      <point x="180" y="25"/>
      <point x="164" y="53"/>
      <point x="179" y="139" type="curve" smooth="yes"/>
      <point x="237" y="472" type="line"/>
      <point x="398" y="472" type="line"/>
      <point x="404" y="507" type="line"/>
      <point x="244" y="507" type="line"/>
      <point x="268" y="646" type="line"/>
      <point x="149" y="623" type="line"/>
      <point x="129" y="507" type="line"/>
      <point x="52" y="507" type="line"/>
      <point x="47" y="479" type="line"/>
      <point x="101" y="472" type="line" smooth="yes"/>
      <point x="121" y="469"/>
      <point x="122" y="468"/>
      <point x="114" y="423" type="curve" smooth="yes"/>
      <point x="69" y="160" type="line" smooth="yes"/>
      <point x="53" y="70"/>
      <point x="93" y="-10"/>
      <point x="207" y="-10" type="curve" smooth="yes"/>
      <point x="266" y="-10"/>
      <point x="316" y="19"/>
    </contour>
  </outline>
</glyph>
<glyph name="u" format="1">
  <advance width="610"/>
  <unicode hex="0075"/>
  <outline>
    <contour>
      <point x="470" y="-5" type="curve" smooth="yes"/>
      <point x="523" y="-5"/>
      <point x="564" y="22"/>
      <point x="594" y="83" type="curve"/>
      <point x="555" y="105" type="line"/>
      <point x="538" y="54"/>
      <point x="515" y="35"/>
      <point x="496" y="35" type="curve" smooth="yes"/>
      <point x="476" y="35"/>
      <point x="475" y="56"/>
      <point x="492" y="150" type="curve" smooth="yes"/>
      <point x="555" y="507" type="line"/>
      <point x="440" y="507" type="line"/>
      <point x="381" y="176" type="line"/>
      <point x="324" y="67"/>
      <point x="265" y="39"/>
      <point x="229" y="39" type="curve" smooth="yes"/>
      <point x="192" y="39"/>
      <point x="175" y="79"/>
      <point x="191" y="171" type="curve" smooth="yes"/>
      <point x="250" y="507" type="line"/>
      <point x="57" y="507" type="line"/>
      <point x="52" y="479" type="line"/>
      <point x="106" y="472" type="line" smooth="yes"/>
      <point x="127" y="469"/>
      <point x="128" y="468"/>
      <point x="120" y="423" type="curve" smooth="yes"/>
      <point x="76" y="170" type="line" smooth="yes"/>
      <point x="56" y="56"/>
      <point x="105" y="-10"/>
      <point x="196" y="-10" type="curve" smooth="yes"/>
      <point x="259" y="-10"/>
      <point x="318" y="22"/>
      <point x="371" y="93" type="curve"/>
      <point x="374" y="30"/>
      <point x="411" y="-5"/>
    </contour>
  </outline>
</glyph>
<glyph name="v" format="1">
  <advance width="548"/>
  <unicode hex="0076"/>
  <outline>
    <contour>
      <point x="47" y="479" type="line"/>
      <point x="101" y="472" type="line" smooth="yes"/>
      <point x="123" y="469"/>
      <point x="124" y="468"/>
      <point x="116" y="423" type="curve" smooth="yes"/>
      <point x="81" y="217" type="line" smooth="yes"/>
      <point x="55" y="64"/>
      <point x="116" y="-10"/>
      <point x="208" y="-10" type="curve" smooth="yes"/>
      <point x="344" y="-10"/>
      <point x="518" y="148"/>
      <point x="526" y="517" type="curve"/>
      <point x="407" y="480" type="line"/>
      <point x="410" y="442"/>
      <point x="411" y="408"/>
      <point x="411" y="376" type="curve" smooth="yes"/>
      <point x="411" y="95"/>
      <point x="308" y="39"/>
      <point x="248" y="39" type="curve" smooth="yes"/>
      <point x="193" y="39"/>
      <point x="173" y="85"/>
      <point x="196" y="218" type="curve" smooth="yes"/>
      <point x="245" y="507" type="line"/>
      <point x="52" y="507" type="line"/>
    </contour>
  </outline>
</glyph>
<glyph name="w" format="1">
  <advance width="830"/>
  <unicode hex="0077"/>
  <outline>
    <contour>
      <point x="808" y="517" type="curve"/>
      <point x="689" y="480" type="line"/>
      <point x="692" y="442"/>
      <point x="693" y="408"/>
      <point x="693" y="376" type="curve" smooth="yes"/>
      <point x="693" y="95"/>
      <point x="591" y="39"/>
      <point x="537" y="39" type="curve" smooth="yes"/>
      <point x="486" y="39"/>
      <point x="470" y="86"/>
      <point x="492" y="218" type="curve" smooth="yes"/>
      <point x="541" y="507" type="line"/>
      <point x="426" y="507" type="line"/>
      <point x="377" y="217" type="line" smooth="yes"/>
      <point x="375" y="205"/>
      <point x="373" y="194"/>
      <point x="372" y="183" type="curve"/>
      <point x="315" y="69"/>
      <point x="257" y="39"/>
      <point x="219" y="39" type="curve" smooth="yes"/>
      <point x="175" y="39"/>
      <point x="170" y="79"/>
      <point x="186" y="171" type="curve" smooth="yes"/>
      <point x="245" y="507" type="line"/>
      <point x="52" y="507" type="line"/>
      <point x="47" y="479" type="line"/>
      <point x="101" y="472" type="line" smooth="yes"/>
      <point x="122" y="469"/>
      <point x="123" y="468"/>
      <point x="115" y="423" type="curve" smooth="yes"/>
      <point x="71" y="170" type="line" smooth="yes"/>
      <point x="51" y="56"/>
      <point x="99" y="-10"/>
      <point x="190" y="-10" type="curve" smooth="yes"/>
      <point x="255" y="-10"/>
      <point x="318" y="28"/>
      <point x="373" y="113" type="curve"/>
      <point x="384" y="30"/>
      <point x="433" y="-10"/>
      <point x="500" y="-10" type="curve" smooth="yes"/>
      <point x="629" y="-10"/>
      <point x="800" y="148"/>
    </contour>
  </outline>
</glyph>
<glyph name="x" format="1">
  <advance width="528.062844540163"/>
  <unicode hex="0078"/>
  <outline>
    <contour>
      <point x="231" y="203" type="curve"/>
      <point x="303" y="0" type="line"/>
      <point x="479" y="0" type="line"/>
      <point x="484" y="28" type="line"/>
      <point x="430" y="35" type="line" smooth="yes"/>
      <point x="411" y="37"/>
      <point x="406" y="38"/>
      <point x="390" y="84" type="curve" smooth="yes"/>
      <point x="322" y="273" type="line"/>
      <point x="378" y="322"/>
      <point x="446" y="375"/>
      <point x="554" y="452" type="curve"/>
      <point x="456" y="517" type="line"/>
      <point x="404" y="452"/>
      <point x="358" y="384"/>
      <point x="310" y="309" type="curve"/>
      <point x="239" y="507" type="line"/>
      <point x="62" y="507" type="line"/>
      <point x="57" y="479" type="line"/>
      <point x="111" y="472" type="line" smooth="yes"/>
      <point x="131" y="469"/>
      <point x="136" y="469"/>
      <point x="152" y="423" type="curve" smooth="yes"/>
      <point x="218" y="237" type="line"/>
      <point x="159" y="185"/>
      <point x="91" y="132"/>
      <point x="-17" y="55" type="curve"/>
      <point x="84" y="-10" type="line"/>
      <point x="133" y="54"/>
      <point x="180" y="124"/>
    </contour>
  </outline>
</glyph>
<glyph name="y" format="1">
  <advance width="594.6022207808082"/>
  <unicode hex="0079"/>
  <outline>
    <contour>
      <point x="466" y="9" type="curve" smooth="yes"/>
      <point x="554" y="507" type="line"/>
      <point x="439" y="507" type="line"/>
      <point x="381" y="176" type="line"/>
      <point x="324" y="67"/>
      <point x="265" y="39"/>
      <point x="229" y="39" type="curve" smooth="yes"/>
      <point x="192" y="39"/>
      <point x="175" y="79"/>
      <point x="191" y="171" type="curve" smooth="yes"/>
      <point x="250" y="507" type="line"/>
      <point x="57" y="507" type="line"/>
      <point x="52" y="479" type="line"/>
      <point x="106" y="472" type="line" smooth="yes"/>
      <point x="127" y="469"/>
      <point x="128" y="468"/>
      <point x="120" y="423" type="curve" smooth="yes"/>
      <point x="76" y="170" type="line" smooth="yes"/>
      <point x="56" y="56"/>
      <point x="105" y="-10"/>
      <point x="196" y="-10" type="curve" smooth="yes"/>
      <point x="257" y="-10"/>
      <point x="314" y="19"/>
      <point x="365" y="85" type="curve"/>
      <point x="350" y="-1" type="line" smooth="yes"/>
      <point x="326" y="-142"/>
      <point x="272" y="-190"/>
      <point x="193" y="-190" type="curve" smooth="yes"/>
      <point x="135" y="-190"/>
      <point x="97" y="-156"/>
      <point x="103" y="-64" type="curve"/>
      <point x="46" y="-78" type="line"/>
      <point x="43" y="-165"/>
      <point x="89" y="-223"/>
      <point x="195" y="-223" type="curve" smooth="yes"/>
      <point x="365" y="-223"/>
      <point x="445" y="-113"/>
    </contour>
  </outline>
</glyph>
<glyph name="z" format="1">
  <advance width="456"/>
  <unicode hex="007A"/>
  <outline>
    <contour>
      <point x="113" y="52" type="curve" smooth="yes"/>
      <point x="167" y="52"/>
      <point x="221" y="-10"/>
      <point x="291" y="-10" type="curve" smooth="yes"/>
      <point x="368" y="-10"/>
      <point x="407" y="63"/>
      <point x="422" y="164" type="curve"/>
      <point x="395" y="170" type="line"/>
      <point x="382" y="112"/>
      <point x="364" y="80"/>
      <point x="324" y="80" type="curve" smooth="yes"/>
      <point x="271" y="80"/>
      <point x="233" y="133"/>
      <point x="181" y="133" type="curve" smooth="yes"/>
      <point x="165" y="133"/>
      <point x="150" y="129"/>
      <point x="131" y="119" type="curve"/>
      <point x="447" y="482" type="line"/>
      <point x="451" y="507" type="line"/>
      <point x="94" y="507" type="line"/>
      <point x="60" y="316" type="line"/>
      <point x="88" y="316" type="line"/>
      <point x="129" y="390" type="line" smooth="yes"/>
      <point x="141" y="412"/>
      <point x="142" y="413"/>
      <point x="189" y="413" type="curve" smooth="yes"/>
      <point x="334" y="413" type="line"/>
      <point x="-3" y="25" type="line"/>
      <point x="28" y="0" type="line" smooth="yes"/>
      <point x="33" y="6" type="line" smooth="yes"/>
      <point x="62" y="41"/>
      <point x="89" y="52"/>
    </contour>
  </outline>
</glyph>
<glyph name="braceleft" format="1">
  <advance width="392"/>
  <unicode hex="007B"/>
  <outline>
    <contour>
      <point x="318" y="-109" type="line"/>
      <point x="233" y="-109" type="line" smooth="yes"/>
      <point x="169" y="-109"/>
      <point x="162" y="-58"/>
      <point x="199" y="22" type="curve" smooth="yes"/>
      <point x="248" y="128" type="line" smooth="yes"/>
      <point x="288" y="215"/>
      <point x="256" y="273"/>
      <point x="190" y="294" type="curve"/>
      <point x="273" y="312"/>
      <point x="319" y="366"/>
      <point x="308" y="468" type="curve" smooth="yes"/>
      <point x="296" y="574" type="line" smooth="yes"/>
      <point x="288" y="654"/>
      <point x="313" y="705"/>
      <point x="376" y="705" type="curve" smooth="yes"/>
      <point x="461" y="705" type="line"/>
      <point x="467" y="740" type="line"/>
      <point x="372" y="740" type="line" smooth="yes"/>
      <point x="242" y="740"/>
      <point x="165" y="697"/>
      <point x="180" y="555" type="curve" smooth="yes"/>
      <point x="191" y="449" type="line" smooth="yes"/>
      <point x="199" y="374"/>
      <point x="165" y="316"/>
      <point x="126" y="316" type="curve" smooth="yes"/>
      <point x="43" y="316" type="line"/>
      <point x="37" y="281" type="line"/>
      <point x="120" y="281" type="line" smooth="yes"/>
      <point x="159" y="281"/>
      <point x="172" y="222"/>
      <point x="138" y="147" type="curve" smooth="yes"/>
      <point x="89" y="41" type="line" smooth="yes"/>
      <point x="34" y="-78"/>
      <point x="108" y="-144"/>
      <point x="237" y="-144" type="curve" smooth="yes"/>
      <point x="312" y="-144" type="line"/>
    </contour>
  </outline>
</glyph>
<glyph name="bar" format="1">
  <advance width="216"/>
  <unicode hex="007C"/>
  <outline>
    <contour>
      <point x="173" y="740" type="line"/>
      <point x="5" y="-213" type="line"/>
      <point x="45" y="-213" type="line"/>
      <point x="213" y="740" type="line"/>
    </contour>
  </outline>
</glyph>
<glyph name="braceright" format="1">
  <advance width="392"/>
  <unicode hex="007D"/>
  <outline>
    <contour>
      <point x="227" y="41" type="curve" smooth="yes"/>
      <point x="216" y="147" type="line" smooth="yes"/>
      <point x="208" y="222"/>
      <point x="242" y="280"/>
      <point x="281" y="280" type="curve" smooth="yes"/>
      <point x="364" y="280" type="line"/>
      <point x="370" y="315" type="line"/>
      <point x="287" y="315" type="line" smooth="yes"/>
      <point x="248" y="315"/>
      <point x="235" y="374"/>
      <point x="269" y="449" type="curve" smooth="yes"/>
      <point x="318" y="555" type="line" smooth="yes"/>
      <point x="373" y="674"/>
      <point x="299" y="740"/>
      <point x="170" y="740" type="curve" smooth="yes"/>
      <point x="95" y="740" type="line"/>
      <point x="89" y="705" type="line"/>
      <point x="174" y="705" type="line" smooth="yes"/>
      <point x="238" y="705"/>
      <point x="245" y="654"/>
      <point x="208" y="574" type="curve" smooth="yes"/>
      <point x="159" y="468" type="line" smooth="yes"/>
      <point x="119" y="381"/>
      <point x="151" y="323"/>
      <point x="217" y="302" type="curve"/>
      <point x="134" y="284"/>
      <point x="88" y="230"/>
      <point x="99" y="128" type="curve" smooth="yes"/>
      <point x="111" y="22" type="line" smooth="yes"/>
      <point x="119" y="-58"/>
      <point x="94" y="-109"/>
      <point x="31" y="-109" type="curve" smooth="yes"/>
      <point x="-54" y="-109" type="line"/>
      <point x="-60" y="-144" type="line"/>
      <point x="35" y="-144" type="line" smooth="yes"/>
      <point x="165" y="-144"/>
      <point x="242" y="-101"/>
    </contour>
  </outline>
</glyph>
<glyph name="asciitilde" format="1">
  <advance width="588"/>
  <unicode hex="007E"/>
  <outline>
    <contour>
      <point x="390" y="257" type="curve" smooth="yes"/>
      <point x="436" y="257"/>
      <point x="481" y="285"/>
      <point x="522" y="377" type="curve"/>
      <point x="491" y="392" type="line"/>
      <point x="453" y="315"/>
      <point x="428" y="294"/>
      <point x="394" y="294" type="curve" smooth="yes"/>
      <point x="318" y="294"/>
      <point x="319" y="410"/>
      <point x="225" y="410" type="curve" smooth="yes"/>
      <point x="179" y="410"/>
      <point x="134" y="382"/>
      <point x="93" y="290" type="curve"/>
      <point x="124" y="275" type="line"/>
      <point x="163" y="352"/>
      <point x="187" y="373"/>
      <point x="222" y="373" type="curve" smooth="yes"/>
      <point x="297" y="373"/>
      <point x="295" y="257"/>
    </contour>
  </outline>
</glyph>
<glyph name="exclamdown" format="1">
  <advance width="255"/>
  <unicode hex="00A1"/>
  <outline>
    <contour>
      <point x="167" y="517" type="curve" smooth="yes"/>
      <point x="120" y="517"/>
      <point x="91" y="482"/>
      <point x="91" y="439" type="curve" smooth="yes"/>
      <point x="91" y="400"/>
      <point x="115" y="376"/>
      <point x="156" y="376" type="curve" smooth="yes"/>
      <point x="203" y="376"/>
      <point x="232" y="411"/>
      <point x="232" y="454" type="curve" smooth="yes"/>
      <point x="232" y="493"/>
      <point x="208" y="517"/>
    </contour>
    <contour>
      <point x="119" y="305" type="line"/>
      <point x="79" y="78"/>
      <point x="29" y="19"/>
      <point x="-5" y="-173" type="curve"/>
      <point x="110" y="-173" type="line"/>
      <point x="144" y="19"/>
      <point x="114" y="78"/>
      <point x="154" y="305" type="curve"/>
    </contour>
  </outline>
</glyph>
<glyph name="cent" format="1">
  <advance width="489.36622358313707"/>
  <unicode hex="00A2"/>
  <outline>
    <contour>
      <point x="428" y="98" type="curve"/>
      <point x="375" y="129" type="line"/>
      <point x="348" y="52"/>
      <point x="292.0" y="25.0"/>
      <point x="248" y="25" type="curve"/>
      <point x="328" y="479" type="line"/>
      <point x="373" y="466"/>
      <point x="386" y="402"/>
      <point x="356" y="306" type="curve"/>
      <point x="469" y="322" type="line"/>
      <point x="502" y="420"/>
      <point x="443" y="507"/>
      <point x="335" y="516" type="curve"/>
      <point x="355" y="632" type="line"/>
      <point x="319" y="632" type="line"/>
      <point x="299" y="516" type="line"/>
      <point x="174" y="509"/>
      <point x="79" y="415"/>
      <point x="55" y="282" type="curve" smooth="yes"/>
      <point x="51" y="260" type="line" smooth="yes"/>
      <point x="23" y="111"/>
      <point x="84" y="8"/>
      <point x="207" y="-8" type="curve"/>
      <point x="186" y="-125" type="line"/>
      <point x="222" y="-125" type="line"/>
      <point x="242" y="-10" type="line"/>
      <point x="312" y="-10"/>
      <point x="381" y="17"/>
    </contour>
    <contour>
      <point x="170" y="235" type="curve" smooth="yes"/>
      <point x="180" y="295" type="line" smooth="yes"/>
      <point x="200" y="412"/>
      <point x="243" y="469"/>
      <point x="292" y="480" type="curve"/>
      <point x="214" y="32" type="line"/>
      <point x="166" y="52"/>
      <point x="151" y="120"/>
    </contour>
  </outline>
</glyph>
<glyph name="sterling" format="1">
  <advance width="531"/>
  <unicode hex="00A3"/>
  <outline>
    <contour>
      <point x="469" y="221" type="line"/>
      <point x="441" y="221" type="line"/>
      <point x="408" y="130" type="line" smooth="yes"/>
      <point x="399" y="106"/>
      <point x="396" y="104"/>
      <point x="349" y="104" type="curve" smooth="yes"/>
      <point x="134" y="104" type="line"/>
      <point x="230" y="177"/>
      <point x="237" y="238"/>
      <point x="237" y="280" type="curve" smooth="yes"/>
      <point x="237" y="284" type="line"/>
      <point x="392" y="284" type="line"/>
      <point x="398" y="319" type="line"/>
      <point x="236" y="319" type="line"/>
      <point x="233" y="371"/>
      <point x="226" y="429"/>
      <point x="226" y="470" type="curve" smooth="yes"/>
      <point x="226" y="575"/>
      <point x="267" y="655"/>
      <point x="342" y="655" type="curve" smooth="yes"/>
      <point x="414" y="655"/>
      <point x="432" y="587"/>
      <point x="397" y="467" type="curve"/>
      <point x="520" y="483" type="line"/>
      <point x="557" y="585"/>
      <point x="504" y="690"/>
      <point x="340" y="690" type="curve" smooth="yes"/>
      <point x="162" y="690"/>
      <point x="97" y="577"/>
      <point x="97" y="480" type="curve" smooth="yes"/>
      <point x="97" y="415"/>
      <point x="125" y="368"/>
      <point x="143" y="319" type="curve"/>
      <point x="59" y="319" type="line"/>
      <point x="53" y="284" type="line"/>
      <point x="153" y="284" type="line"/>
      <point x="156" y="271"/>
      <point x="158" y="257"/>
      <point x="158" y="242" type="curve" smooth="yes"/>
      <point x="158" y="197"/>
      <point x="140" y="134"/>
      <point x="23" y="70" type="curve"/>
      <point x="11" y="0" type="line"/>
      <point x="430" y="0" type="line"/>
    </contour>
  </outline>
</glyph>
<glyph name="currency" format="1">
  <advance width="564"/>
  <unicode hex="00A4"/>
  <outline>
    <contour>
      <point x="498" y="67" type="line"/>
      <point x="424" y="161" type="line"/>
      <point x="464" y="200"/>
      <point x="488" y="256"/>
      <point x="488" y="318" type="curve" smooth="yes"/>
      <point x="488" y="360"/>
      <point x="477" y="397"/>
      <point x="457" y="425" type="curve"/>
      <point x="578" y="531" type="line"/>
      <point x="555" y="557" type="line"/>
      <point x="434" y="452" type="line"/>
      <point x="403" y="481"/>
      <point x="359" y="497"/>
      <point x="308" y="497" type="curve" smooth="yes"/>
      <point x="264" y="497"/>
      <point x="223" y="484"/>
      <point x="190" y="463" type="curve"/>
      <point x="115" y="557" type="line"/>
      <point x="88" y="533" type="line"/>
      <point x="162" y="440" type="line"/>
      <point x="121" y="401"/>
      <point x="97" y="345"/>
      <point x="97" y="282" type="curve" smooth="yes"/>
      <point x="97" y="239"/>
      <point x="108" y="203"/>
      <point x="128" y="174" type="curve"/>
      <point x="8" y="69" type="line"/>
      <point x="31" y="43" type="line"/>
      <point x="151" y="148" type="line"/>
      <point x="183" y="119"/>
      <point x="226" y="103"/>
      <point x="277" y="103" type="curve" smooth="yes"/>
      <point x="322" y="103"/>
      <point x="362" y="116"/>
      <point x="395" y="138" type="curve"/>
      <point x="471" y="43" type="line"/>
    </contour>
    <contour>
      <point x="308" y="461" type="curve" smooth="yes"/>
      <point x="395" y="461"/>
      <point x="447" y="407"/>
      <point x="447" y="317" type="curve" smooth="yes"/>
      <point x="447" y="215"/>
      <point x="378" y="139"/>
      <point x="277" y="139" type="curve" smooth="yes"/>
      <point x="190" y="139"/>
      <point x="138" y="193"/>
      <point x="138" y="283" type="curve" smooth="yes"/>
      <point x="138" y="385"/>
      <point x="207" y="461"/>
    </contour>
  </outline>
</glyph>
<glyph name="yen" format="1">
  <advance width="629"/>
  <unicode hex="00A5"/>
  <outline>
    <contour>
      <point x="413" y="28" type="line"/>
      <point x="359" y="35" type="line" smooth="yes"/>
      <point x="339" y="38"/>
      <point x="338" y="39"/>
      <point x="346" y="84" type="curve"/>
      <point x="369" y="214" type="line"/>
      <point x="535" y="214" type="line"/>
      <point x="541" y="249" type="line"/>
      <point x="375" y="249" type="line"/>
      <point x="382" y="292" type="line"/>
      <point x="425" y="354" type="line"/>
      <point x="559" y="354" type="line"/>
      <point x="566" y="389" type="line"/>
      <point x="449" y="389" type="line"/>
      <point x="593" y="596" type="line" smooth="yes"/>
      <point x="624" y="641"/>
      <point x="625" y="642"/>
      <point x="646" y="645" type="curve" smooth="yes"/>
      <point x="702" y="652" type="line"/>
      <point x="707" y="680" type="line"/>
      <point x="508" y="680" type="line"/>
      <point x="503" y="652" type="line"/>
      <point x="557" y="645" type="line" smooth="yes"/>
      <point x="576" y="643"/>
      <point x="578" y="640"/>
      <point x="547" y="596" type="curve" smooth="yes"/>
      <point x="368" y="338" type="line"/>
      <point x="285" y="596" type="line" smooth="yes"/>
      <point x="270" y="641"/>
      <point x="272" y="642"/>
      <point x="293" y="645" type="curve" smooth="yes"/>
      <point x="349" y="652" type="line"/>
      <point x="354" y="680" type="line"/>
      <point x="72" y="680" type="line"/>
      <point x="67" y="652" type="line"/>
      <point x="121" y="645" type="line" smooth="yes"/>
      <point x="140" y="642"/>
      <point x="141" y="642"/>
      <point x="157" y="596" type="curve" smooth="yes"/>
      <point x="229" y="389" type="line"/>
      <point x="114" y="389" type="line"/>
      <point x="107" y="354" type="line"/>
      <point x="241" y="354" type="line"/>
      <point x="262" y="292" type="line"/>
      <point x="255" y="249" type="line"/>
      <point x="89" y="249" type="line"/>
      <point x="83" y="214" type="line"/>
      <point x="249" y="214" type="line"/>
      <point x="222" y="64" type="line"/>
      <point x="217" y="39"/>
      <point x="213" y="37"/>
      <point x="195" y="35" type="curve" smooth="yes"/>
      <point x="139" y="28" type="line"/>
      <point x="134" y="0" type="line"/>
      <point x="408" y="0" type="line"/>
    </contour>
  </outline>
</glyph>
<glyph name="brokenbar" format="1">
  <advance width="206"/>
  <unicode hex="00A6"/>
  <outline>
    <contour>
      <point x="168" y="740" type="line"/>
      <point x="101" y="357" type="line"/>
      <point x="141" y="357" type="line"/>
      <point x="208" y="740" type="line"/>
    </contour>
    <contour>
      <point x="68" y="170" type="line"/>
      <point x="0" y="-213" type="line"/>
      <point x="40" y="-213" type="line"/>
      <point x="108" y="170" type="line"/>
    </contour>
  </outline>
</glyph>
<glyph name="section" format="1">
  <advance width="550"/>
  <unicode hex="00A7"/>
  <outline>
    <contour>
      <point x="423" y="-33" type="curve" smooth="yes"/>
      <point x="423" y="22"/>
      <point x="401" y="64"/>
      <point x="361" y="95" type="curve"/>
      <point x="443" y="125"/>
      <point x="501" y="185"/>
      <point x="501" y="264" type="curve" smooth="yes"/>
      <point x="501" y="338"/>
      <point x="455" y="390"/>
      <point x="377" y="422" type="curve" smooth="yes"/>
      <point x="305" y="452" type="line" smooth="yes"/>
      <point x="239" y="480"/>
      <point x="218" y="508"/>
      <point x="218" y="556" type="curve" smooth="yes"/>
      <point x="218" y="623"/>
      <point x="257" y="655"/>
      <point x="318" y="655" type="curve" smooth="yes"/>
      <point x="391" y="655"/>
      <point x="419" y="592"/>
      <point x="391" y="496" type="curve"/>
      <point x="510" y="517" type="line"/>
      <point x="524" y="591"/>
      <point x="474" y="690"/>
      <point x="328" y="690" type="curve" smooth="yes"/>
      <point x="185" y="690"/>
      <point x="116" y="612"/>
      <point x="116" y="508" type="curve" smooth="yes"/>
      <point x="116" y="451"/>
      <point x="139" y="409"/>
      <point x="179" y="378" type="curve"/>
      <point x="97" y="351"/>
      <point x="38" y="288"/>
      <point x="38" y="207" type="curve" smooth="yes"/>
      <point x="38" y="135"/>
      <point x="83" y="83"/>
      <point x="157" y="52" type="curve" smooth="yes"/>
      <point x="235" y="19" type="line" smooth="yes"/>
      <point x="301" y="-9"/>
      <point x="321" y="-36"/>
      <point x="321" y="-82" type="curve" smooth="yes"/>
      <point x="321" y="-149"/>
      <point x="274" y="-188"/>
      <point x="190" y="-188" type="curve" smooth="yes"/>
      <point x="110" y="-188"/>
      <point x="50" y="-139"/>
      <point x="63" y="-18" type="curve"/>
      <point x="-8" y="-42" type="line"/>
      <point x="-14" y="-164"/>
      <point x="76" y="-223"/>
      <point x="190" y="-223" type="curve" smooth="yes"/>
      <point x="343" y="-223"/>
      <point x="423" y="-139"/>
    </contour>
    <contour>
      <point x="228" y="157" type="line" smooth="yes"/>
      <point x="163" y="184"/>
      <point x="140" y="214"/>
      <point x="140" y="263" type="curve" smooth="yes"/>
      <point x="140" y="314"/>
      <point x="170" y="344"/>
      <point x="220" y="353" type="curve"/>
      <point x="305" y="317" type="line" smooth="yes"/>
      <point x="376" y="287"/>
      <point x="399" y="260"/>
      <point x="399" y="211" type="curve" smooth="yes"/>
      <point x="399" y="165"/>
      <point x="372" y="133"/>
      <point x="321" y="118" type="curve"/>
    </contour>
  </outline>
</glyph>
<glyph name="dieresis" format="1">
  <advance width="500"/>
  <unicode hex="00A8"/>
  <outline>
    <contour>
      <point x="212" y="600" type="curve" smooth="yes"/>
      <point x="255" y="600"/>
      <point x="281" y="632"/>
      <point x="281" y="669" type="curve" smooth="yes"/>
      <point x="281" y="703"/>
      <point x="259" y="725"/>
      <point x="224" y="725" type="curve" smooth="yes"/>
      <point x="181" y="725"/>
      <point x="155" y="693"/>
      <point x="155" y="656" type="curve" smooth="yes"/>
      <point x="155" y="622"/>
      <point x="177" y="600"/>
    </contour>
    <contour>
      <point x="420" y="600" type="curve" smooth="yes"/>
      <point x="463" y="600"/>
      <point x="489" y="632"/>
      <point x="489" y="669" type="curve" smooth="yes"/>
      <point x="489" y="703"/>
      <point x="467" y="725"/>
      <point x="432" y="725" type="curve" smooth="yes"/>
      <point x="389" y="725"/>
      <point x="363" y="693"/>
      <point x="363" y="656" type="curve" smooth="yes"/>
      <point x="363" y="622"/>
      <point x="385" y="600"/>
    </contour>
  </outline>
</glyph>
<glyph name="copyright" format="1">
  <advance width="844"/>
  <unicode hex="00A9"/>
  <outline>
    <contour>
      <point x="437" y="-37" type="curve" smooth="yes"/>
      <point x="646" y="-37"/>
      <point x="809" y="128"/>
      <point x="809" y="340" type="curve" smooth="yes"/>
      <point x="809" y="553"/>
      <point x="646" y="717"/>
      <point x="437" y="717" type="curve" smooth="yes"/>
      <point x="227" y="717"/>
      <point x="65" y="553"/>
      <point x="65" y="340" type="curve" smooth="yes"/>
      <point x="65" y="128"/>
      <point x="227" y="-37"/>
    </contour>
    <contour>
      <point x="437" y="-2" type="curve" smooth="yes"/>
      <point x="248" y="-2"/>
      <point x="102" y="147"/>
      <point x="102" y="340" type="curve" smooth="yes"/>
      <point x="102" y="533"/>
      <point x="248" y="682"/>
      <point x="437" y="682" type="curve" smooth="yes"/>
      <point x="626" y="682"/>
      <point x="772" y="533"/>
      <point x="772" y="340" type="curve" smooth="yes"/>
      <point x="772" y="147"/>
      <point x="626" y="-2"/>
    </contour>
    <contour>
      <point x="439" y="539" type="curve" smooth="yes"/>
      <point x="510" y="539"/>
      <point x="546" y="486"/>
      <point x="532" y="389" type="curve"/>
      <point x="609" y="398" type="line"/>
      <point x="625" y="497"/>
      <point x="560" y="572"/>
      <point x="439" y="572" type="curve" smooth="yes"/>
      <point x="311" y="572"/>
      <point x="242" y="485"/>
      <point x="242" y="351" type="curve" smooth="yes"/>
      <point x="242" y="330" type="line" smooth="yes"/>
      <point x="242" y="195"/>
      <point x="309" y="108"/>
      <point x="443" y="108" type="curve" smooth="yes"/>
      <point x="520" y="108"/>
      <point x="593" y="138"/>
      <point x="616" y="224" type="curve"/>
      <point x="558" y="237" type="line"/>
      <point x="542" y="166"/>
      <point x="507" y="141"/>
      <point x="448" y="141" type="curve" smooth="yes"/>
      <point x="365" y="141"/>
      <point x="330" y="190"/>
      <point x="330" y="310" type="curve" smooth="yes"/>
      <point x="330" y="371" type="line" smooth="yes"/>
      <point x="330" y="491"/>
      <point x="370" y="539"/>
    </contour>
  </outline>
</glyph>
<glyph name="ordfeminine" format="1">
  <advance width="404.17451563944786"/>
  <unicode hex="00AA"/>
  <outline>
    <contour>
      <point x="350" y="338" type="curve" smooth="yes"/>
      <point x="385" y="338"/>
      <point x="412" y="356"/>
      <point x="432" y="396" type="curve"/>
      <point x="406" y="411" type="line"/>
      <point x="395" y="377"/>
      <point x="379" y="364"/>
      <point x="367" y="364" type="curve" smooth="yes"/>
      <point x="354" y="364"/>
      <point x="353" y="378"/>
      <point x="364" y="440" type="curve" smooth="yes"/>
      <point x="406" y="678" type="line"/>
      <point x="382" y="678" type="line"/>
      <point x="366" y="663"/>
      <point x="350" y="651"/>
      <point x="332" y="641" type="curve"/>
      <point x="316" y="670"/>
      <point x="286" y="685"/>
      <point x="249" y="685" type="curve" smooth="yes"/>
      <point x="177" y="685"/>
      <point x="111" y="631"/>
      <point x="94" y="533" type="curve" smooth="yes"/>
      <point x="91" y="516" type="line" smooth="yes"/>
      <point x="73" y="415"/>
      <point x="107" y="335"/>
      <point x="188" y="335" type="curve" smooth="yes"/>
      <point x="223" y="335"/>
      <point x="257" y="349"/>
      <point x="285" y="395" type="curve"/>
      <point x="290" y="359"/>
      <point x="314" y="338"/>
    </contour>
    <contour>
      <point x="170" y="507" type="curve" smooth="yes"/>
      <point x="176" y="541" type="line" smooth="yes"/>
      <point x="189" y="614"/>
      <point x="211" y="658"/>
      <point x="257" y="658" type="curve" smooth="yes"/>
      <point x="280" y="658"/>
      <point x="304" y="647"/>
      <point x="319" y="616" type="curve"/>
      <point x="289" y="447" type="line"/>
      <point x="256" y="375"/>
      <point x="223" y="362"/>
      <point x="204" y="362" type="curve" smooth="yes"/>
      <point x="171" y="362"/>
      <point x="153" y="409"/>
    </contour>
  </outline>
</glyph>
<glyph name="guillemotleft" format="1">
  <advance width="651"/>
  <unicode hex="00AB"/>
  <outline>
    <contour>
      <point x="305" y="28" type="line"/>
      <point x="176" y="237" type="line"/>
      <point x="385" y="452" type="line"/>
      <point x="364" y="478" type="line"/>
      <point x="50" y="256" type="line"/>
      <point x="46" y="232" type="line"/>
      <point x="282" y="10" type="line"/>
    </contour>
    <contour>
      <point x="555" y="28" type="line"/>
      <point x="426" y="237" type="line"/>
      <point x="635" y="452" type="line"/>
      <point x="614" y="478" type="line"/>
      <point x="300" y="256" type="line"/>
      <point x="296" y="232" type="line"/>
      <point x="532" y="10" type="line"/>
    </contour>
  </outline>
</glyph>
<glyph name="logicalnot" format="1">
  <advance width="588"/>
  <unicode hex="00AC"/>
  <outline>
    <contour>
      <point x="117" y="428" type="line"/>
      <point x="494" y="428" type="line"/>
      <point x="461" y="236" type="line"/>
      <point x="498" y="236" type="line"/>
      <point x="538" y="463" type="line"/>
      <point x="124" y="463" type="line"/>
    </contour>
  </outline>
</glyph>
<glyph name="registered" format="1">
  <advance width="536"/>
  <unicode hex="00AE"/>
  <outline>
    <contour>
      <point x="308" y="241" type="curve" smooth="yes"/>
      <point x="439" y="241"/>
      <point x="542" y="346"/>
      <point x="542" y="479" type="curve" smooth="yes"/>
      <point x="542" y="613"/>
      <point x="439" y="717"/>
      <point x="308" y="717" type="curve" smooth="yes"/>
      <point x="176" y="717"/>
      <point x="74" y="613"/>
      <point x="74" y="479" type="curve" smooth="yes"/>
      <point x="74" y="346"/>
      <point x="176" y="241"/>
    </contour>
    <contour>
      <point x="308" y="273" type="curve" smooth="yes"/>
      <point x="195" y="273"/>
      <point x="107" y="363"/>
      <point x="107" y="479" type="curve" smooth="yes"/>
      <point x="107" y="595"/>
      <point x="195" y="686"/>
      <point x="308" y="686" type="curve" smooth="yes"/>
      <point x="421" y="686"/>
      <point x="509" y="595"/>
      <point x="509" y="479" type="curve" smooth="yes"/>
      <point x="509" y="363"/>
      <point x="421" y="273"/>
    </contour>
    <contour>
      <point x="194" y="589" type="line"/>
      <point x="215" y="587" type="line" smooth="yes"/>
      <point x="222" y="586"/>
      <point x="223" y="586"/>
      <point x="223" y="569" type="curve"/>
      <point x="223" y="399" type="line"/>
      <point x="223" y="381"/>
      <point x="222" y="382"/>
      <point x="215" y="381" type="curve" smooth="yes"/>
      <point x="194" y="379" type="line"/>
      <point x="194" y="356" type="line"/>
      <point x="307" y="356" type="line"/>
      <point x="307" y="379" type="line"/>
      <point x="286" y="381" type="line" smooth="yes"/>
      <point x="278" y="382"/>
      <point x="278" y="381"/>
      <point x="278" y="399" type="curve"/>
      <point x="278" y="461" type="line"/>
      <point x="299" y="461" type="line"/>
      <point x="358" y="356" type="line"/>
      <point x="434" y="356" type="line"/>
      <point x="434" y="379" type="line"/>
      <point x="416" y="381" type="line" smooth="yes"/>
      <point x="409" y="382"/>
      <point x="409" y="381"/>
      <point x="398" y="399" type="curve" smooth="yes"/>
      <point x="355" y="468" type="line"/>
      <point x="384" y="478"/>
      <point x="400" y="501"/>
      <point x="400" y="529" type="curve" smooth="yes"/>
      <point x="400" y="545" type="line" smooth="yes"/>
      <point x="400" y="585"/>
      <point x="368" y="611"/>
      <point x="312" y="611" type="curve" smooth="yes"/>
      <point x="194" y="611" type="line"/>
    </contour>
    <contour>
      <point x="312" y="587" type="line" smooth="yes"/>
      <point x="332" y="587"/>
      <point x="344" y="573"/>
      <point x="344" y="545" type="curve" smooth="yes"/>
      <point x="344" y="529" type="line" smooth="yes"/>
      <point x="344" y="501"/>
      <point x="332" y="486"/>
      <point x="312" y="486" type="curve" smooth="yes"/>
      <point x="278" y="486" type="line"/>
      <point x="278" y="587" type="line"/>
    </contour>
  </outline>
</glyph>
<glyph name="macron" format="1">
  <advance width="500"/>
  <unicode hex="00AF"/>
  <outline>
    <contour>
      <point x="468" y="674" type="line"/>
      <point x="181" y="674" type="line"/>
      <point x="171" y="619" type="line"/>
      <point x="458" y="619" type="line"/>
    </contour>
  </outline>
</glyph>
<glyph name="degree" format="1">
  <advance width="366"/>
  <unicode hex="00B0"/>
  <outline>
    <contour>
      <point x="216" y="366" type="curve" smooth="yes"/>
      <point x="318" y="366"/>
      <point x="392" y="446"/>
      <point x="392" y="546" type="curve" smooth="yes"/>
      <point x="392" y="634"/>
      <point x="333" y="690"/>
      <point x="247" y="690" type="curve" smooth="yes"/>
      <point x="145" y="690"/>
      <point x="71" y="610"/>
      <point x="71" y="510" type="curve" smooth="yes"/>
      <point x="71" y="422"/>
      <point x="130" y="366"/>
    </contour>
    <contour>
      <point x="247" y="654" type="curve" smooth="yes"/>
      <point x="312" y="654"/>
      <point x="351" y="613"/>
      <point x="351" y="545" type="curve" smooth="yes"/>
      <point x="351" y="463"/>
      <point x="296" y="402"/>
      <point x="216" y="402" type="curve" smooth="yes"/>
      <point x="151" y="402"/>
      <point x="112" y="443"/>
      <point x="112" y="511" type="curve" smooth="yes"/>
      <point x="112" y="593"/>
      <point x="167" y="654"/>
    </contour>
  </outline>
</glyph>
<glyph name="plusminus" format="1">
  <advance width="588"/>
  <unicode hex="00B1"/>
  <outline>
    <contour>
      <point x="512" y="317" type="line"/>
      <point x="518" y="352" type="line"/>
      <point x="329" y="352" type="line"/>
      <point x="363" y="547" type="line"/>
      <point x="327" y="547" type="line"/>
      <point x="293" y="352" type="line"/>
      <point x="104" y="352" type="line"/>
      <point x="98" y="317" type="line"/>
      <point x="287" y="317" type="line"/>
      <point x="253" y="122" type="line"/>
      <point x="289" y="122" type="line"/>
      <point x="323" y="317" type="line"/>
    </contour>
    <contour>
      <point x="42" y="0" type="line"/>
      <point x="456" y="0" type="line"/>
      <point x="462" y="35" type="line"/>
      <point x="48" y="35" type="line"/>
    </contour>
  </outline>
</glyph>
<glyph name="acute" format="1">
  <advance width="500"/>
  <unicode hex="00B4"/>
  <outline>
    <contour>
      <point x="306" y="579" type="line"/>
      <point x="390" y="634"/>
      <point x="443" y="678"/>
      <point x="498" y="740" type="curve"/>
      <point x="367" y="740" type="line"/>
      <point x="343" y="681"/>
      <point x="319" y="645"/>
      <point x="285" y="603" type="curve"/>
    </contour>
  </outline>
</glyph>
<glyph name="mu" format="1">
  <advance width="616"/>
  <unicode hex="00B5"/>
  <outline>
    <contour>
      <point x="133" y="-180" type="line"/>
      <point x="99" y="-115"/>
      <point x="82" y="-48"/>
      <point x="87" y="42" type="curve"/>
      <point x="118" y="3"/>
      <point x="150" y="-10"/>
      <point x="190" y="-10" type="curve" smooth="yes"/>
      <point x="253" y="-10"/>
      <point x="312" y="22"/>
      <point x="365" y="93" type="curve"/>
      <point x="368" y="30"/>
      <point x="405" y="-5"/>
      <point x="464" y="-5" type="curve" smooth="yes"/>
      <point x="517" y="-5"/>
      <point x="558" y="22"/>
      <point x="588" y="83" type="curve"/>
      <point x="549" y="105" type="line"/>
      <point x="532" y="54"/>
      <point x="509" y="35"/>
      <point x="490" y="35" type="curve" smooth="yes"/>
      <point x="470" y="35"/>
      <point x="469" y="56"/>
      <point x="486" y="150" type="curve" smooth="yes"/>
      <point x="549" y="507" type="line"/>
      <point x="434" y="507" type="line"/>
      <point x="375" y="176" type="line"/>
      <point x="318" y="67"/>
      <point x="259" y="39"/>
      <point x="223" y="39" type="curve" smooth="yes"/>
      <point x="186" y="39"/>
      <point x="169" y="79"/>
      <point x="185" y="171" type="curve" smooth="yes"/>
      <point x="244" y="507" type="line"/>
      <point x="51" y="507" type="line"/>
      <point x="46" y="479" type="line"/>
      <point x="100" y="472" type="line" smooth="yes"/>
      <point x="121" y="469"/>
      <point x="122" y="468"/>
      <point x="114" y="423" type="curve" smooth="yes"/>
      <point x="1" y="-213" type="line"/>
    </contour>
  </outline>
</glyph>
<glyph name="paragraph" format="1">
  <advance width="598"/>
  <unicode hex="00B6"/>
  <outline>
    <contour>
      <point x="78" y="503" type="curve" smooth="yes"/>
      <point x="74" y="479" type="line" smooth="yes"/>
      <point x="56" y="371"/>
      <point x="123" y="286"/>
      <point x="264" y="286" type="curve" smooth="yes"/>
      <point x="300" y="286" type="line"/>
      <point x="364" y="645" type="line"/>
      <point x="427" y="645" type="line"/>
      <point x="303" y="-59" type="line" smooth="yes"/>
      <point x="295" y="-104"/>
      <point x="293" y="-106"/>
      <point x="272" y="-108" type="curve" smooth="yes"/>
      <point x="196" y="-115" type="line"/>
      <point x="191" y="-143" type="line"/>
      <point x="485" y="-143" type="line"/>
      <point x="490" y="-115" type="line"/>
      <point x="436" y="-108" type="line" smooth="yes"/>
      <point x="415" y="-105"/>
      <point x="415" y="-104"/>
      <point x="423" y="-59" type="curve" smooth="yes"/>
      <point x="538" y="596" type="line" smooth="yes"/>
      <point x="546" y="641"/>
      <point x="547" y="642"/>
      <point x="569" y="645" type="curve" smooth="yes"/>
      <point x="625" y="652" type="line"/>
      <point x="630" y="680" type="line"/>
      <point x="322" y="680" type="line" smooth="yes"/>
      <point x="168" y="680"/>
      <point x="96" y="612"/>
    </contour>
  </outline>
</glyph>
<glyph name="periodcentered" format="1">
  <advance width="500"/>
  <unicode hex="00B7"/>
  <outline>
    <contour>
      <point x="267" y="317" type="curve" smooth="yes"/>
      <point x="313" y="317"/>
      <point x="341" y="351"/>
      <point x="341" y="392" type="curve" smooth="yes"/>
      <point x="341" y="429"/>
      <point x="318" y="452"/>
      <point x="279" y="452" type="curve" smooth="yes"/>
      <point x="233" y="452"/>
      <point x="205" y="418"/>
      <point x="205" y="377" type="curve" smooth="yes"/>
      <point x="205" y="340"/>
      <point x="228" y="317"/>
    </contour>
  </outline>
</glyph>
<glyph name="cedilla" format="1">
  <advance width="500"/>
  <unicode hex="00B8"/>
  <outline>
    <contour>
      <point x="296" y="-132" type="curve" smooth="yes"/>
      <point x="296" y="-87"/>
      <point x="256" y="-57"/>
      <point x="186" y="-55" type="curve"/>
      <point x="218" y="0" type="line"/>
      <point x="178" y="0" type="line"/>
      <point x="141" y="-63" type="line"/>
      <point x="149" y="-89" type="line"/>
      <point x="156" y="-88"/>
      <point x="164" y="-87"/>
      <point x="170" y="-87" type="curve" smooth="yes"/>
      <point x="202" y="-87"/>
      <point x="214" y="-102"/>
      <point x="214" y="-128" type="curve" smooth="yes"/>
      <point x="214" y="-159"/>
      <point x="196" y="-191"/>
      <point x="159" y="-191" type="curve" smooth="yes"/>
      <point x="133" y="-191"/>
      <point x="119" y="-175"/>
      <point x="122" y="-131" type="curve"/>
      <point x="64" y="-145" type="line"/>
      <point x="65" y="-200"/>
      <point x="115" y="-223"/>
      <point x="172" y="-223" type="curve" smooth="yes"/>
      <point x="248" y="-223"/>
      <point x="296" y="-181"/>
    </contour>
  </outline>
</glyph>
<glyph name="ordmasculine" format="1">
  <advance width="392"/>
  <unicode hex="00BA"/>
  <outline>
    <contour>
      <point x="391" y="504" type="line" smooth="yes"/>
      <point x="407" y="606"/>
      <point x="363" y="685"/>
      <point x="260" y="685" type="curve" smooth="yes"/>
      <point x="172" y="685"/>
      <point x="108" y="628"/>
      <point x="93" y="529" type="curve" smooth="yes"/>
      <point x="91" y="516" type="line" smooth="yes"/>
      <point x="75" y="414"/>
      <point x="119" y="335"/>
      <point x="222" y="335" type="curve" smooth="yes"/>
      <point x="310" y="335"/>
      <point x="374" y="392"/>
      <point x="389" y="491" type="curve" smooth="yes"/>
    </contour>
    <contour>
      <point x="313" y="524" type="curve" smooth="yes"/>
      <point x="306" y="484" type="line" smooth="yes"/>
      <point x="291" y="397"/>
      <point x="261" y="359"/>
      <point x="219" y="359" type="curve" smooth="yes"/>
      <point x="173" y="359"/>
      <point x="153" y="406"/>
      <point x="169" y="496" type="curve" smooth="yes"/>
      <point x="176" y="536" type="line" smooth="yes"/>
      <point x="191" y="623"/>
      <point x="221" y="661"/>
      <point x="262" y="661" type="curve" smooth="yes"/>
      <point x="309" y="661"/>
      <point x="329" y="614"/>
    </contour>
  </outline>
</glyph>
<glyph name="guillemotright" format="1">
  <advance width="651"/>
  <unicode hex="00BB"/>
  <outline>
    <contour>
      <point x="597" y="232" type="line"/>
      <point x="601" y="256" type="line"/>
      <point x="365" y="478" type="line"/>
      <point x="342" y="460" type="line"/>
      <point x="471" y="251" type="line"/>
      <point x="262" y="36" type="line"/>
      <point x="283" y="10" type="line"/>
    </contour>
    <contour>
      <point x="347" y="232" type="line"/>
      <point x="351" y="256" type="line"/>
      <point x="115" y="478" type="line"/>
      <point x="92" y="460" type="line"/>
      <point x="221" y="251" type="line"/>
      <point x="12" y="36" type="line"/>
      <point x="33" y="10" type="line"/>
    </contour>
  </outline>
</glyph>
<glyph name="questiondown" format="1">
  <advance width="492.28340264546546"/>
  <unicode hex="00BF"/>
  <outline>
    <contour>
      <point x="299" y="517" type="curve" smooth="yes"/>
      <point x="252" y="517"/>
      <point x="223" y="482"/>
      <point x="223" y="439" type="curve" smooth="yes"/>
      <point x="223" y="400"/>
      <point x="247" y="376"/>
      <point x="288" y="376" type="curve" smooth="yes"/>
      <point x="335" y="376"/>
      <point x="364" y="411"/>
      <point x="364" y="454" type="curve" smooth="yes"/>
      <point x="364" y="493"/>
      <point x="340" y="517"/>
    </contour>
    <contour>
      <point x="242" y="305" type="line"/>
      <point x="241" y="288" type="line" smooth="yes"/>
      <point x="232" y="133"/>
      <point x="-9" y="139"/>
      <point x="-9" y="-31" type="curve" smooth="yes"/>
      <point x="-9" y="-115"/>
      <point x="58" y="-183"/>
      <point x="185" y="-183" type="curve" smooth="yes"/>
      <point x="343" y="-183"/>
      <point x="412" y="-88"/>
      <point x="414" y="24" type="curve"/>
      <point x="302" y="40" type="line"/>
      <point x="293" y="-80"/>
      <point x="256" y="-148"/>
      <point x="192" y="-148" type="curve" smooth="yes"/>
      <point x="142" y="-148"/>
      <point x="116" y="-114"/>
      <point x="116" y="-42" type="curve" smooth="yes"/>
      <point x="116" y="143"/>
      <point x="271" y="132"/>
      <point x="291" y="289" type="curve" smooth="yes"/>
      <point x="293" y="305" type="line"/>
    </contour>
  </outline>
</glyph>
<glyph name="Aring" format="1">
  <advance width="639"/>
  <unicode hex="00C5"/>
  <outline>
    <contour>
      <point x="151" y="28" type="line"/>
      <point x="97" y="35" type="line" smooth="yes"/>
      <point x="77" y="38"/>
      <point x="76" y="39"/>
      <point x="98" y="84" type="curve" smooth="yes"/>
      <point x="160" y="208" type="line"/>
      <point x="389" y="208" type="line"/>
      <point x="406" y="84" type="line" smooth="yes"/>
      <point x="412" y="39"/>
      <point x="411" y="38"/>
      <point x="389" y="35" type="curve" smooth="yes"/>
      <point x="333" y="28" type="line"/>
      <point x="328" y="0" type="line"/>
      <point x="600" y="0" type="line"/>
      <point x="605" y="28" type="line"/>
      <point x="551" y="35" type="line" smooth="yes"/>
      <point x="532" y="38"/>
      <point x="530" y="39"/>
      <point x="524" y="84" type="curve" smooth="yes"/>
      <point x="440" y="659" type="line"/>
      <point x="489" y="674"/>
      <point x="520" y="714"/>
      <point x="528" y="760" type="curve" smooth="yes"/>
      <point x="530" y="771" type="line" smooth="yes"/>
      <point x="541" y="831"/>
      <point x="503" y="893"/>
      <point x="419" y="893" type="curve" smooth="yes"/>
      <point x="344" y="893"/>
      <point x="298" y="845"/>
      <point x="287" y="786" type="curve" smooth="yes"/>
      <point x="285" y="775" type="line" smooth="yes"/>
      <point x="277" y="729"/>
      <point x="297" y="683"/>
      <point x="343" y="663" type="curve"/>
      <point x="55" y="84" type="line" smooth="yes"/>
      <point x="33" y="39"/>
      <point x="32" y="38"/>
      <point x="10" y="35" type="curve" smooth="yes"/>
      <point x="-46" y="28" type="line"/>
      <point x="-51" y="0" type="line"/>
      <point x="146" y="0" type="line"/>
    </contour>
    <contour>
      <point x="391" y="680" type="curve" smooth="yes"/>
      <point x="361" y="680"/>
      <point x="345" y="706"/>
      <point x="356" y="761" type="curve" smooth="yes"/>
      <point x="361" y="786" type="line" smooth="yes"/>
      <point x="372" y="841"/>
      <point x="390" y="866"/>
      <point x="422" y="866" type="curve" smooth="yes"/>
      <point x="454" y="866"/>
      <point x="470" y="842"/>
      <point x="459" y="785" type="curve" smooth="yes"/>
      <point x="454" y="760" type="line" smooth="yes"/>
      <point x="443" y="706"/>
      <point x="424" y="680"/>
    </contour>
    <contour>
      <point x="177" y="243" type="line"/>
      <point x="341" y="571" type="line"/>
      <point x="385" y="243" type="line"/>
    </contour>
  </outline>
</glyph>
<glyph name="AE" format="1">
  <advance width="908"/>
  <unicode hex="00C6"/>
  <outline>
    <contour>
      <point x="390" y="652" type="line"/>
      <point x="444" y="645" type="line" smooth="yes"/>
      <point x="464" y="642"/>
      <point x="465" y="641"/>
      <point x="433" y="596" type="curve" smooth="yes"/>
      <point x="67" y="84" type="line" smooth="yes"/>
      <point x="35" y="39"/>
      <point x="33" y="38"/>
      <point x="10" y="35" type="curve" smooth="yes"/>
      <point x="-46" y="28" type="line"/>
      <point x="-51" y="0" type="line"/>
      <point x="151" y="0" type="line"/>
      <point x="156" y="28" type="line"/>
      <point x="102" y="35" type="line" smooth="yes"/>
      <point x="82" y="38"/>
      <point x="83" y="39"/>
      <point x="115" y="84" type="curve" smooth="yes"/>
      <point x="203" y="208" type="line"/>
      <point x="417" y="208" type="line"/>
      <point x="395" y="84" type="line" smooth="yes"/>
      <point x="387" y="39"/>
      <point x="386" y="38"/>
      <point x="364" y="35" type="curve" smooth="yes"/>
      <point x="308" y="28" type="line"/>
      <point x="303" y="0" type="line"/>
      <point x="798" y="0" type="line"/>
      <point x="828" y="172" type="line"/>
      <point x="800" y="172" type="line"/>
      <point x="749" y="61" type="line" smooth="yes"/>
      <point x="738" y="37"/>
      <point x="737" y="35"/>
      <point x="690" y="35" type="curve" smooth="yes"/>
      <point x="506" y="35" type="line"/>
      <point x="557" y="326" type="line"/>
      <point x="671" y="326" type="line" smooth="yes"/>
      <point x="718" y="326"/>
      <point x="719" y="324"/>
      <point x="721" y="300" type="curve" smooth="yes"/>
      <point x="729" y="219" type="line"/>
      <point x="757" y="219" type="line"/>
      <point x="801" y="468" type="line"/>
      <point x="773" y="468" type="line"/>
      <point x="736" y="387" type="line" smooth="yes"/>
      <point x="726" y="363"/>
      <point x="725" y="361"/>
      <point x="678" y="361" type="curve" smooth="yes"/>
      <point x="564" y="361" type="line"/>
      <point x="614" y="645" type="line"/>
      <point x="788" y="645" type="line" smooth="yes"/>
      <point x="835" y="645"/>
      <point x="834" y="643"/>
      <point x="837" y="619" type="curve" smooth="yes"/>
      <point x="850" y="508" type="line"/>
      <point x="878" y="508" type="line"/>
      <point x="908" y="680" type="line"/>
      <point x="395" y="680" type="line"/>
    </contour>
    <contour>
      <point x="228" y="243" type="line"/>
      <point x="487" y="605" type="line"/>
      <point x="423" y="243" type="line"/>
    </contour>
  </outline>
</glyph>
<glyph name="Ccedilla" format="1">
  <advance width="597"/>
  <unicode hex="00C7"/>
  <outline>
    <contour>
      <point x="393" y="-132" type="curve" smooth="yes"/>
      <point x="393" y="-87"/>
      <point x="353" y="-57"/>
      <point x="283" y="-55" type="curve"/>
      <point x="309" y="-10" type="line"/>
      <point x="318" y="-10" type="line" smooth="yes"/>
      <point x="409" y="-10"/>
      <point x="489" y="31"/>
      <point x="538" y="143" type="curve"/>
      <point x="467" y="167" type="line"/>
      <point x="436" y="56"/>
      <point x="379" y="25"/>
      <point x="320" y="25" type="curve" smooth="yes"/>
      <point x="210" y="25"/>
      <point x="173" y="107"/>
      <point x="199" y="274" type="curve" smooth="yes"/>
      <point x="224" y="432" type="line" smooth="yes"/>
      <point x="249" y="591"/>
      <point x="312" y="655"/>
      <point x="391" y="655" type="curve" smooth="yes"/>
      <point x="477" y="655"/>
      <point x="508" y="581"/>
      <point x="472" y="448" type="curve"/>
      <point x="594" y="477" type="line"/>
      <point x="622" y="586"/>
      <point x="545" y="690"/>
      <point x="393" y="690" type="curve" smooth="yes"/>
      <point x="229" y="690"/>
      <point x="117" y="571"/>
      <point x="88" y="382" type="curve" smooth="yes"/>
      <point x="79" y="324" type="line" smooth="yes"/>
      <point x="52" y="147"/>
      <point x="124" y="16"/>
      <point x="271" y="-7" type="curve"/>
      <point x="238" y="-63" type="line"/>
      <point x="246" y="-89" type="line"/>
      <point x="253" y="-88"/>
      <point x="261" y="-87"/>
      <point x="267" y="-87" type="curve" smooth="yes"/>
      <point x="299" y="-87"/>
      <point x="311" y="-102"/>
      <point x="311" y="-128" type="curve" smooth="yes"/>
      <point x="311" y="-159"/>
      <point x="293" y="-191"/>
      <point x="256" y="-191" type="curve" smooth="yes"/>
      <point x="230" y="-191"/>
      <point x="216" y="-175"/>
      <point x="219" y="-131" type="curve"/>
      <point x="161" y="-145" type="line"/>
      <point x="162" y="-200"/>
      <point x="212" y="-223"/>
      <point x="269" y="-223" type="curve" smooth="yes"/>
      <point x="345" y="-223"/>
      <point x="393" y="-181"/>
    </contour>
  </outline>
</glyph>
<glyph name="Eth" format="1">
  <advance width="674"/>
  <unicode hex="00D0"/>
  <outline>
    <contour>
      <point x="118" y="652" type="line"/>
      <point x="172" y="645" type="line" smooth="yes"/>
      <point x="192" y="642"/>
      <point x="193" y="641"/>
      <point x="185" y="596" type="curve" smooth="yes"/>
      <point x="146" y="372" type="line"/>
      <point x="69" y="372" type="line"/>
      <point x="62" y="337" type="line"/>
      <point x="139" y="337" type="line"/>
      <point x="95" y="84" type="line" smooth="yes"/>
      <point x="87" y="39"/>
      <point x="86" y="38"/>
      <point x="64" y="35" type="curve" smooth="yes"/>
      <point x="8" y="28" type="line"/>
      <point x="3" y="0" type="line"/>
      <point x="300" y="0" type="line" smooth="yes"/>
      <point x="472" y="0"/>
      <point x="585" y="115"/>
      <point x="617" y="304" type="curve" smooth="yes"/>
      <point x="626" y="357" type="line" smooth="yes"/>
      <point x="657" y="540"/>
      <point x="586" y="680"/>
      <point x="400" y="680" type="curve" smooth="yes"/>
      <point x="123" y="680" type="line"/>
    </contour>
    <contour>
      <point x="399" y="337" type="line"/>
      <point x="406" y="372" type="line"/>
      <point x="266" y="372" type="line"/>
      <point x="314" y="645" type="line"/>
      <point x="401" y="645" type="line" smooth="yes"/>
      <point x="504" y="645"/>
      <point x="532" y="566"/>
      <point x="507" y="412" type="curve" smooth="yes"/>
      <point x="482" y="259" type="line" smooth="yes"/>
      <point x="458" y="114"/>
      <point x="396" y="35"/>
      <point x="298" y="35" type="curve" smooth="yes"/>
      <point x="206" y="35" type="line"/>
      <point x="259" y="337" type="line"/>
    </contour>
  </outline>
</glyph>
<glyph name="multiply" format="1">
  <advance width="588"/>
  <unicode hex="00D7"/>
  <outline>
    <contour>
      <point x="465" y="172" type="line"/>
      <point x="332" y="334" type="line"/>
      <point x="527" y="499" type="line"/>
      <point x="503" y="526" type="line"/>
      <point x="309" y="362" type="line"/>
      <point x="175" y="525" type="line"/>
      <point x="147" y="499" type="line"/>
      <point x="280" y="337" type="line"/>
      <point x="87" y="173" type="line"/>
      <point x="112" y="146" type="line"/>
      <point x="303" y="309" type="line"/>
      <point x="438" y="146" type="line"/>
    </contour>
  </outline>
</glyph>
<glyph name="Oslash" format="1">
  <advance width="674"/>
  <unicode hex="00D8"/>
  <outline>
    <contour>
      <point x="619" y="304" type="curve" smooth="yes"/>
      <point x="628" y="357" type="line" smooth="yes"/>
      <point x="643" y="448"/>
      <point x="635" y="529"/>
      <point x="601" y="589" type="curve"/>
      <point x="683" y="680" type="line"/>
      <point x="630" y="680" type="line"/>
      <point x="578" y="621" type="line"/>
      <point x="539" y="665"/>
      <point x="482" y="690"/>
      <point x="405" y="690" type="curve" smooth="yes"/>
      <point x="234" y="690"/>
      <point x="119" y="571"/>
      <point x="86" y="377" type="curve" smooth="yes"/>
      <point x="77" y="324" type="line" smooth="yes"/>
      <point x="62" y="232"/>
      <point x="70" y="151"/>
      <point x="103" y="92" type="curve"/>
      <point x="21" y="0" type="line"/>
      <point x="74" y="0" type="line"/>
      <point x="127" y="59" type="line"/>
      <point x="165" y="15"/>
      <point x="222" y="-10"/>
      <point x="299" y="-10" type="curve" smooth="yes"/>
      <point x="471" y="-10"/>
      <point x="586" y="109"/>
    </contour>
    <contour>
      <point x="196" y="269" type="curve" smooth="yes"/>
      <point x="221" y="422" type="line" smooth="yes"/>
      <point x="247" y="574"/>
      <point x="306" y="655"/>
      <point x="403" y="655" type="curve" smooth="yes"/>
      <point x="470" y="655"/>
      <point x="505" y="620"/>
      <point x="515" y="552" type="curve"/>
      <point x="187" y="186" type="line"/>
      <point x="188" y="211"/>
      <point x="191" y="239"/>
    </contour>
    <contour>
      <point x="509" y="412" type="curve" smooth="yes"/>
      <point x="484" y="259" type="line" smooth="yes"/>
      <point x="459" y="108"/>
      <point x="398" y="25"/>
      <point x="300" y="25" type="curve" smooth="yes"/>
      <point x="235" y="25"/>
      <point x="199" y="61"/>
      <point x="190" y="129" type="curve"/>
      <point x="518" y="496" type="line"/>
      <point x="517" y="470"/>
      <point x="514" y="443"/>
    </contour>
  </outline>
</glyph>
<glyph name="Thorn" format="1">
  <advance width="598"/>
  <unicode hex="00DE"/>
  <outline>
    <contour>
      <point x="297" y="28" type="line"/>
      <point x="223" y="35" type="line" smooth="yes"/>
      <point x="203" y="37"/>
      <point x="202" y="39"/>
      <point x="210" y="84" type="curve" smooth="yes"/>
      <point x="221" y="147" type="line"/>
      <point x="332" y="147" type="line" smooth="yes"/>
      <point x="486" y="147"/>
      <point x="558" y="215"/>
      <point x="576" y="324" type="curve" smooth="yes"/>
      <point x="580" y="348" type="line" smooth="yes"/>
      <point x="598" y="456"/>
      <point x="531" y="541"/>
      <point x="390" y="541" type="curve" smooth="yes"/>
      <point x="290" y="541" type="line"/>
      <point x="300" y="596" type="line" smooth="yes"/>
      <point x="308" y="641"/>
      <point x="309" y="643"/>
      <point x="331" y="645" type="curve" smooth="yes"/>
      <point x="407" y="652" type="line"/>
      <point x="412" y="680" type="line"/>
      <point x="118" y="680" type="line"/>
      <point x="113" y="652" type="line"/>
      <point x="167" y="645" type="line" smooth="yes"/>
      <point x="187" y="642"/>
      <point x="188" y="641"/>
      <point x="180" y="596" type="curve" smooth="yes"/>
      <point x="90" y="84" type="line" smooth="yes"/>
      <point x="82" y="39"/>
      <point x="81" y="38"/>
      <point x="59" y="35" type="curve" smooth="yes"/>
      <point x="3" y="28" type="line"/>
      <point x="-2" y="0" type="line"/>
      <point x="292" y="0" type="line"/>
    </contour>
    <contour>
      <point x="389" y="506" type="line" smooth="yes"/>
      <point x="447" y="506"/>
      <point x="470" y="454"/>
      <point x="456" y="371" type="curve" smooth="yes"/>
      <point x="445" y="308" type="line" smooth="yes"/>
      <point x="431" y="230"/>
      <point x="390" y="182"/>
      <point x="332" y="182" type="curve" smooth="yes"/>
      <point x="227" y="182" type="line"/>
      <point x="284" y="506" type="line"/>
    </contour>
  </outline>
</glyph>
<glyph name="germandbls" format="1">
  <advance width="622.7135962376462"/>
  <unicode hex="00DF"/>
  <outline>
    <contour>
      <point x="272" y="581" type="line" smooth="yes"/>
      <point x="290" y="685"/>
      <point x="332" y="715"/>
      <point x="389" y="715" type="curve" smooth="yes"/>
      <point x="433" y="715"/>
      <point x="473" y="698"/>
      <point x="473" y="637" type="curve" smooth="yes"/>
      <point x="473" y="509"/>
      <point x="334" y="459"/>
      <point x="334" y="344" type="curve" smooth="yes"/>
      <point x="334" y="290"/>
      <point x="366" y="256"/>
      <point x="408" y="222" type="curve" smooth="yes"/>
      <point x="443" y="194" type="line" smooth="yes"/>
      <point x="477" y="166"/>
      <point x="490" y="144"/>
      <point x="490" y="109" type="curve" smooth="yes"/>
      <point x="490" y="58"/>
      <point x="457" y="25"/>
      <point x="404" y="25" type="curve" smooth="yes"/>
      <point x="351" y="25"/>
      <point x="317" y="57"/>
      <point x="324" y="145" type="curve"/>
      <point x="254" y="119" type="line"/>
      <point x="266" y="15"/>
      <point x="336" y="-10"/>
      <point x="402" y="-10" type="curve" smooth="yes"/>
      <point x="523" y="-10"/>
      <point x="589" y="64"/>
      <point x="589" y="153" type="curve" smooth="yes"/>
      <point x="589" y="200"/>
      <point x="570" y="243"/>
      <point x="528" y="278" type="curve" smooth="yes"/>
      <point x="494" y="307" type="line" smooth="yes"/>
      <point x="455" y="341"/>
      <point x="427" y="372"/>
      <point x="427" y="414" type="curve" smooth="yes"/>
      <point x="427" y="519"/>
      <point x="563" y="530"/>
      <point x="563" y="632" type="curve" smooth="yes"/>
      <point x="563" y="697"/>
      <point x="501" y="750"/>
      <point x="385" y="750" type="curve" smooth="yes"/>
      <point x="231" y="750"/>
      <point x="172" y="665"/>
      <point x="154" y="561" type="curve" smooth="yes"/>
      <point x="144" y="507" type="line"/>
      <point x="67" y="507" type="line"/>
      <point x="62" y="479" type="line"/>
      <point x="116" y="472" type="line" smooth="yes"/>
      <point x="137" y="469"/>
      <point x="138" y="468"/>
      <point x="130" y="423" type="curve" smooth="yes"/>
      <point x="17" y="-213" type="line"/>
      <point x="132" y="-213" type="line"/>
    </contour>
  </outline>
</glyph>
<glyph name="ae" format="1">
  <advance width="786.7199558905704"/>
  <unicode hex="00E6"/>
  <outline>
    <contour>
      <point x="730" y="98" type="curve"/>
      <point x="677" y="128" type="line"/>
      <point x="650" y="51"/>
      <point x="586" y="25"/>
      <point x="543" y="25" type="curve" smooth="yes"/>
      <point x="466" y="25"/>
      <point x="439" y="91"/>
      <point x="458" y="222" type="curve"/>
      <point x="496" y="222" type="line" smooth="yes"/>
      <point x="657" y="222"/>
      <point x="770" y="293"/>
      <point x="770" y="397" type="curve" smooth="yes"/>
      <point x="770" y="459"/>
      <point x="715" y="517"/>
      <point x="612" y="517" type="curve" smooth="yes"/>
      <point x="544" y="517"/>
      <point x="485" y="492"/>
      <point x="441" y="444" type="curve"/>
      <point x="422" y="487"/>
      <point x="379" y="517"/>
      <point x="298" y="517" type="curve" smooth="yes"/>
      <point x="167" y="517"/>
      <point x="93" y="434"/>
      <point x="92" y="343" type="curve"/>
      <point x="200" y="327" type="line"/>
      <point x="200" y="453"/>
      <point x="249" y="482"/>
      <point x="300" y="482" type="curve" smooth="yes"/>
      <point x="350" y="482"/>
      <point x="375" y="448"/>
      <point x="356" y="338" type="curve" smooth="yes"/>
      <point x="341" y="257" type="line"/>
      <point x="250" y="257" type="line" smooth="yes"/>
      <point x="79" y="257"/>
      <point x="29" y="188"/>
      <point x="29" y="109" type="curve" smooth="yes"/>
      <point x="29" y="33"/>
      <point x="80" y="-10"/>
      <point x="157" y="-10" type="curve" smooth="yes"/>
      <point x="217" y="-10"/>
      <point x="297" y="17"/>
      <point x="352" y="106" type="curve"/>
      <point x="379" y="33"/>
      <point x="442" y="-10"/>
      <point x="534" y="-10" type="curve" smooth="yes"/>
      <point x="607" y="-10"/>
      <point x="683" y="17"/>
    </contour>
    <contour>
      <point x="470" y="295" type="line" smooth="yes"/>
      <point x="492" y="426"/>
      <point x="546" y="482"/>
      <point x="606" y="482" type="curve" smooth="yes"/>
      <point x="648" y="482"/>
      <point x="673" y="452"/>
      <point x="673" y="401" type="curve" smooth="yes"/>
      <point x="673" y="338"/>
      <point x="638" y="257"/>
      <point x="495" y="257" type="curve" smooth="yes"/>
      <point x="464" y="257" type="line"/>
    </contour>
    <contour>
      <point x="198" y="43" type="curve" smooth="yes"/>
      <point x="165" y="43"/>
      <point x="148" y="64"/>
      <point x="148" y="112" type="curve" smooth="yes"/>
      <point x="148" y="177"/>
      <point x="177" y="222"/>
      <point x="260" y="222" type="curve" smooth="yes"/>
      <point x="338" y="222" type="line"/>
      <point x="336" y="197"/>
      <point x="337" y="174"/>
      <point x="340" y="152" type="curve"/>
      <point x="288" y="56"/>
      <point x="227" y="43"/>
    </contour>
  </outline>
</glyph>
<glyph name="ccedilla" format="1">
  <advance width="489.36622358313707"/>
  <unicode hex="00E7"/>
  <outline>
    <contour>
      <point x="329" y="-132" type="curve" smooth="yes"/>
      <point x="329" y="-87"/>
      <point x="289" y="-57"/>
      <point x="219" y="-55" type="curve"/>
      <point x="245" y="-10" type="line"/>
      <point x="315" y="-9"/>
      <point x="382" y="19"/>
      <point x="428" y="98" type="curve"/>
      <point x="375" y="129" type="line"/>
      <point x="348" y="52"/>
      <point x="292" y="25"/>
      <point x="249" y="25" type="curve" smooth="yes"/>
      <point x="174" y="25"/>
      <point x="147" y="95"/>
      <point x="170" y="235" type="curve" smooth="yes"/>
      <point x="180" y="295" type="line" smooth="yes"/>
      <point x="202" y="426"/>
      <point x="254" y="482"/>
      <point x="310" y="482" type="curve" smooth="yes"/>
      <point x="369" y="482"/>
      <point x="390" y="414"/>
      <point x="356" y="306" type="curve"/>
      <point x="469" y="322" type="line"/>
      <point x="504" y="425"/>
      <point x="436" y="517"/>
      <point x="316" y="517" type="curve" smooth="yes"/>
      <point x="183" y="517"/>
      <point x="80" y="421"/>
      <point x="55" y="282" type="curve" smooth="yes"/>
      <point x="51" y="260" type="line" smooth="yes"/>
      <point x="23" y="111"/>
      <point x="84" y="8"/>
      <point x="206" y="-8" type="curve"/>
      <point x="174" y="-63" type="line"/>
      <point x="182" y="-89" type="line"/>
      <point x="189" y="-88"/>
      <point x="197" y="-87"/>
      <point x="203" y="-87" type="curve" smooth="yes"/>
      <point x="235" y="-87"/>
      <point x="247" y="-102"/>
      <point x="247" y="-128" type="curve" smooth="yes"/>
      <point x="247" y="-159"/>
      <point x="229" y="-191"/>
      <point x="192" y="-191" type="curve" smooth="yes"/>
      <point x="166" y="-191"/>
      <point x="152" y="-175"/>
      <point x="155" y="-131" type="curve"/>
      <point x="97" y="-145" type="line"/>
      <point x="98" y="-200"/>
      <point x="148" y="-223"/>
      <point x="205" y="-223" type="curve" smooth="yes"/>
      <point x="281" y="-223"/>
      <point x="329" y="-181"/>
    </contour>
  </outline>
</glyph>
<glyph name="eth" format="1">
  <advance width="561"/>
  <unicode hex="00F0"/>
  <outline>
    <contour>
      <point x="504" y="244" type="curve" smooth="yes"/>
      <point x="511" y="284" type="line" smooth="yes"/>
      <point x="532" y="401"/>
      <point x="495" y="534"/>
      <point x="398" y="638" type="curve"/>
      <point x="522" y="719" type="line"/>
      <point x="503" y="750" type="line"/>
      <point x="372" y="665" type="line"/>
      <point x="338" y="697"/>
      <point x="297" y="726"/>
      <point x="250" y="750" type="curve"/>
      <point x="234" y="722" type="line"/>
      <point x="274" y="696"/>
      <point x="306" y="668"/>
      <point x="331" y="638" type="curve"/>
      <point x="210" y="559" type="line"/>
      <point x="228" y="528" type="line"/>
      <point x="352" y="609" type="line"/>
      <point x="391" y="549"/>
      <point x="406" y="481"/>
      <point x="404" y="407" type="curve"/>
      <point x="372" y="439"/>
      <point x="330" y="457"/>
      <point x="271" y="457" type="curve" smooth="yes"/>
      <point x="165" y="457"/>
      <point x="70" y="393"/>
      <point x="49" y="251" type="curve" smooth="yes"/>
      <point x="46" y="231" type="line" smooth="yes"/>
      <point x="24" y="87"/>
      <point x="93" y="-10"/>
      <point x="241" y="-10" type="curve" smooth="yes"/>
      <point x="389" y="-10"/>
      <point x="475" y="79"/>
    </contour>
    <contour>
      <point x="161" y="194" type="curve" smooth="yes"/>
      <point x="172" y="254" type="line" smooth="yes"/>
      <point x="193" y="375"/>
      <point x="233" y="422"/>
      <point x="294" y="422" type="curve" smooth="yes"/>
      <point x="327" y="422"/>
      <point x="366" y="408"/>
      <point x="401" y="359" type="curve"/>
      <point x="399" y="344"/>
      <point x="397" y="328"/>
      <point x="394" y="312" type="curve" smooth="yes"/>
      <point x="380" y="232" type="line" smooth="yes"/>
      <point x="352" y="75"/>
      <point x="306" y="25"/>
      <point x="236" y="25" type="curve" smooth="yes"/>
      <point x="169" y="25"/>
      <point x="140" y="73"/>
    </contour>
  </outline>
</glyph>
<glyph name="divide" format="1">
  <advance width="588"/>
  <unicode hex="00F7"/>
  <outline>
    <contour>
      <point x="272" y="519" type="curve" smooth="yes"/>
      <point x="272" y="480"/>
      <point x="296" y="456"/>
      <point x="337" y="456" type="curve" smooth="yes"/>
      <point x="384" y="456"/>
      <point x="413" y="491"/>
      <point x="413" y="534" type="curve" smooth="yes"/>
      <point x="413" y="573"/>
      <point x="389" y="597"/>
      <point x="348" y="597" type="curve" smooth="yes"/>
      <point x="301" y="597"/>
      <point x="272" y="562"/>
    </contour>
    <contour>
      <point x="98" y="317" type="line"/>
      <point x="512" y="317" type="line"/>
      <point x="518" y="352" type="line"/>
      <point x="104" y="352" type="line"/>
    </contour>
    <contour>
      <point x="204" y="133" type="curve" smooth="yes"/>
      <point x="204" y="94"/>
      <point x="228" y="70"/>
      <point x="269" y="70" type="curve" smooth="yes"/>
      <point x="316" y="70"/>
      <point x="345" y="105"/>
      <point x="345" y="148" type="curve" smooth="yes"/>
      <point x="345" y="187"/>
      <point x="321" y="211"/>
      <point x="280" y="211" type="curve" smooth="yes"/>
      <point x="233" y="211"/>
      <point x="204" y="176"/>
    </contour>
  </outline>
</glyph>
<glyph name="oslash" format="1">
  <advance width="562"/>
  <unicode hex="00F8"/>
  <outline>
    <contour>
      <point x="503" y="223" type="curve" smooth="yes"/>
      <point x="507" y="244" type="line" smooth="yes"/>
      <point x="522" y="318"/>
      <point x="512" y="384"/>
      <point x="482" y="433" type="curve"/>
      <point x="554" y="507" type="line"/>
      <point x="500" y="507" type="line"/>
      <point x="458" y="464" type="line"/>
      <point x="425" y="497"/>
      <point x="377" y="517"/>
      <point x="317" y="517" type="curve" smooth="yes"/>
      <point x="176" y="517"/>
      <point x="85" y="431"/>
      <point x="57" y="284" type="curve" smooth="yes"/>
      <point x="53" y="263" type="line" smooth="yes"/>
      <point x="39" y="189"/>
      <point x="49" y="122"/>
      <point x="79" y="74" type="curve"/>
      <point x="7" y="0" type="line"/>
      <point x="61" y="0" type="line"/>
      <point x="103" y="43" type="line"/>
      <point x="136" y="10"/>
      <point x="183" y="-10"/>
      <point x="242" y="-10" type="curve" smooth="yes"/>
      <point x="384" y="-10"/>
      <point x="475" y="76"/>
    </contour>
    <contour>
      <point x="170" y="233" type="curve" smooth="yes"/>
      <point x="181" y="294" type="line" smooth="yes"/>
      <point x="205" y="425"/>
      <point x="250" y="482"/>
      <point x="319" y="482" type="curve" smooth="yes"/>
      <point x="360" y="482"/>
      <point x="389" y="458"/>
      <point x="397" y="401" type="curve"/>
      <point x="161" y="158" type="line"/>
      <point x="162" y="180"/>
      <point x="165" y="205"/>
    </contour>
    <contour>
      <point x="389" y="274" type="curve" smooth="yes"/>
      <point x="378" y="213" type="line" smooth="yes"/>
      <point x="355" y="82"/>
      <point x="310" y="25"/>
      <point x="240" y="25" type="curve" smooth="yes"/>
      <point x="200" y="25"/>
      <point x="171" y="48"/>
      <point x="163" y="105" type="curve"/>
      <point x="398" y="347" type="line"/>
      <point x="397" y="325"/>
      <point x="394" y="301"/>
    </contour>
  </outline>
</glyph>
<glyph name="thorn" format="1">
  <advance width="584.5155530008706"/>
  <unicode hex="00FE"/>
  <outline>
    <contour>
      <point x="289" y="-10" type="curve" smooth="yes"/>
      <point x="398" y="-10"/>
      <point x="498" y="70"/>
      <point x="525" y="219" type="curve" smooth="yes"/>
      <point x="529" y="241" type="line" smooth="yes"/>
      <point x="557" y="394"/>
      <point x="504" y="517"/>
      <point x="383" y="517" type="curve" smooth="yes"/>
      <point x="331" y="517"/>
      <point x="282" y="494"/>
      <point x="239" y="423" type="curve"/>
      <point x="295" y="740" type="line"/>
      <point x="103" y="740" type="line"/>
      <point x="98" y="712" type="line"/>
      <point x="152" y="705" type="line" smooth="yes"/>
      <point x="167" y="703"/>
      <point x="173" y="702"/>
      <point x="165" y="656" type="curve" smooth="yes"/>
      <point x="13" y="-213" type="line"/>
      <point x="128" y="-213" type="line"/>
      <point x="172" y="40" type="line"/>
      <point x="199" y="7"/>
      <point x="240" y="-10"/>
    </contour>
    <contour>
      <point x="356" y="476" type="curve" smooth="yes"/>
      <point x="408" y="476"/>
      <point x="434" y="406"/>
      <point x="409" y="259" type="curve" smooth="yes"/>
      <point x="400" y="207" type="line" smooth="yes"/>
      <point x="381" y="97"/>
      <point x="347" y="30"/>
      <point x="276" y="30" type="curve" smooth="yes"/>
      <point x="241" y="30"/>
      <point x="204" y="46"/>
      <point x="182" y="93" type="curve"/>
      <point x="220" y="312" type="line"/>
      <point x="275" y="449"/>
      <point x="327" y="476"/>
    </contour>
  </outline>
</glyph>
<glyph name="Aogonek" format="1">
  <advance width="639"/>
  <unicode hex="0104"/>
  <outline>
    <contour>
      <point x="538" y="-125" type="curve"/>
      <point x="476" y="-112" type="line"/>
      <point x="458" y="-171"/>
      <point x="433" y="-189"/>
      <point x="406" y="-189" type="curve" smooth="yes"/>
      <point x="382" y="-189"/>
      <point x="371" y="-174"/>
      <point x="371" y="-143" type="curve" smooth="yes"/>
      <point x="371" y="-74"/>
      <point x="430" y="0"/>
      <point x="537" y="0" type="curve"/>
      <point x="600" y="0" type="line"/>
      <point x="605" y="28" type="line"/>
      <point x="551" y="35" type="line" smooth="yes"/>
      <point x="532" y="38"/>
      <point x="530" y="39"/>
      <point x="524" y="84" type="curve" smooth="yes"/>
      <point x="437" y="680" type="line"/>
      <point x="351" y="680" type="line"/>
      <point x="55" y="84" type="line" smooth="yes"/>
      <point x="33" y="39"/>
      <point x="33" y="38"/>
      <point x="10" y="35" type="curve" smooth="yes"/>
      <point x="-46" y="28" type="line"/>
      <point x="-51" y="0" type="line"/>
      <point x="146" y="0" type="line"/>
      <point x="151" y="28" type="line"/>
      <point x="97" y="35" type="line" smooth="yes"/>
      <point x="77" y="38"/>
      <point x="76" y="39"/>
      <point x="98" y="84" type="curve" smooth="yes"/>
      <point x="160" y="208" type="line"/>
      <point x="389" y="208" type="line"/>
      <point x="417" y="3" type="line"/>
      <point x="347" y="-26"/>
      <point x="289" y="-78"/>
      <point x="289" y="-139" type="curve" smooth="yes"/>
      <point x="289" y="-194"/>
      <point x="336" y="-223"/>
      <point x="402" y="-223" type="curve" smooth="yes"/>
      <point x="457" y="-223"/>
      <point x="505" y="-196"/>
    </contour>
    <contour>
      <point x="177" y="243" type="line"/>
      <point x="341" y="571" type="line"/>
      <point x="385" y="243" type="line"/>
    </contour>
  </outline>
</glyph>
<glyph name="aogonek" format="1">
  <advance width="587.3648606011974"/>
  <unicode hex="0105"/>
  <outline>
    <contour>
      <point x="533" y="-125" type="curve"/>
      <point x="471" y="-112" type="line"/>
      <point x="453" y="-171"/>
      <point x="428" y="-189"/>
      <point x="401" y="-189" type="curve" smooth="yes"/>
      <point x="377" y="-189"/>
      <point x="366" y="-174"/>
      <point x="366" y="-143" type="curve" smooth="yes"/>
      <point x="366" y="-38"/>
      <point x="519" y="-31"/>
      <point x="571" y="83" type="curve"/>
      <point x="532" y="105" type="line"/>
      <point x="515" y="54"/>
      <point x="492" y="35"/>
      <point x="473" y="35" type="curve" smooth="yes"/>
      <point x="453" y="35"/>
      <point x="452" y="56"/>
      <point x="469" y="150" type="curve" smooth="yes"/>
      <point x="532" y="507" type="line"/>
      <point x="505" y="507" type="line"/>
      <point x="476" y="486"/>
      <point x="442" y="473"/>
      <point x="411" y="465" type="curve"/>
      <point x="385" y="499"/>
      <point x="344" y="517"/>
      <point x="294" y="517" type="curve" smooth="yes"/>
      <point x="186" y="517"/>
      <point x="86" y="437"/>
      <point x="59" y="288" type="curve" smooth="yes"/>
      <point x="55" y="266" type="line" smooth="yes"/>
      <point x="27" y="113"/>
      <point x="80" y="-10"/>
      <point x="202" y="-10" type="curve" smooth="yes"/>
      <point x="255" y="-10"/>
      <point x="307" y="11"/>
      <point x="350" y="82" type="curve"/>
      <point x="356" y="30"/>
      <point x="387" y="-1"/>
      <point x="436" y="-5" type="curve"/>
      <point x="372" y="-31"/>
      <point x="284" y="-65"/>
      <point x="284" y="-139" type="curve" smooth="yes"/>
      <point x="284" y="-194"/>
      <point x="331" y="-223"/>
      <point x="392" y="-223" type="curve" smooth="yes"/>
      <point x="452" y="-223"/>
      <point x="500" y="-196"/>
    </contour>
    <contour>
      <point x="175" y="248" type="curve" smooth="yes"/>
      <point x="184" y="300" type="line" smooth="yes"/>
      <point x="203" y="410"/>
      <point x="237" y="477"/>
      <point x="307" y="477" type="curve" smooth="yes"/>
      <point x="342" y="477"/>
      <point x="378" y="461"/>
      <point x="400" y="415" type="curve"/>
      <point x="356" y="163" type="line"/>
      <point x="306" y="51"/>
      <point x="254" y="31"/>
      <point x="227" y="31" type="curve" smooth="yes"/>
      <point x="176" y="31"/>
      <point x="150" y="101"/>
    </contour>
  </outline>
</glyph>
<glyph name="dcroat" format="1">
  <advance width="590.3648606011974"/>
  <unicode hex="0111"/>
  <outline>
    <contour>
      <point x="449" y="-5" type="curve" smooth="yes"/>
      <point x="502" y="-5"/>
      <point x="543" y="22"/>
      <point x="573" y="83" type="curve"/>
      <point x="534" y="105" type="line"/>
      <point x="517" y="54"/>
      <point x="494" y="35"/>
      <point x="475" y="35" type="curve" smooth="yes"/>
      <point x="455" y="35"/>
      <point x="454" y="56"/>
      <point x="471" y="150" type="curve" smooth="yes"/>
      <point x="549" y="590" type="line"/>
      <point x="626" y="590" type="line"/>
      <point x="632" y="625" type="line"/>
      <point x="555" y="625" type="line"/>
      <point x="575" y="740" type="line"/>
      <point x="382" y="740" type="line"/>
      <point x="378" y="712" type="line"/>
      <point x="431" y="705" type="line" smooth="yes"/>
      <point x="451" y="702"/>
      <point x="452" y="701"/>
      <point x="444" y="656" type="curve" smooth="yes"/>
      <point x="439" y="625" type="line"/>
      <point x="295" y="625" type="line"/>
      <point x="289" y="590" type="line"/>
      <point x="432" y="590" type="line"/>
      <point x="411" y="468" type="line"/>
      <point x="384" y="500"/>
      <point x="344" y="517"/>
      <point x="295" y="517" type="curve" smooth="yes"/>
      <point x="186" y="517"/>
      <point x="86" y="437"/>
      <point x="59" y="288" type="curve" smooth="yes"/>
      <point x="55" y="266" type="line" smooth="yes"/>
      <point x="27" y="113"/>
      <point x="80" y="-10"/>
      <point x="201" y="-10" type="curve" smooth="yes"/>
      <point x="255" y="-10"/>
      <point x="306" y="15"/>
      <point x="351" y="94" type="curve"/>
      <point x="353" y="31"/>
      <point x="390" y="-5"/>
    </contour>
    <contour>
      <point x="175" y="248" type="curve" smooth="yes"/>
      <point x="184" y="300" type="line" smooth="yes"/>
      <point x="203" y="410"/>
      <point x="237" y="477"/>
      <point x="308" y="477" type="curve" smooth="yes"/>
      <point x="343" y="477"/>
      <point x="379" y="461"/>
      <point x="402" y="415" type="curve"/>
      <point x="363" y="192" type="line"/>
      <point x="307" y="57"/>
      <point x="256" y="31"/>
      <point x="228" y="31" type="curve" smooth="yes"/>
      <point x="176" y="31"/>
      <point x="150" y="101"/>
    </contour>
  </outline>
</glyph>
<glyph name="Eogonek" format="1">
  <advance width="603"/>
  <unicode hex="0118"/>
  <outline>
    <contour>
      <point x="471" y="-125" type="curve"/>
      <point x="409" y="-112" type="line"/>
      <point x="391" y="-171"/>
      <point x="366" y="-189"/>
      <point x="339" y="-189" type="curve" smooth="yes"/>
      <point x="315" y="-189"/>
      <point x="304" y="-174"/>
      <point x="304" y="-143" type="curve" smooth="yes"/>
      <point x="304" y="-74"/>
      <point x="363" y="0"/>
      <point x="470" y="0" type="curve"/>
      <point x="493" y="0" type="line"/>
      <point x="523" y="172" type="line"/>
      <point x="495" y="172" type="line"/>
      <point x="444" y="61" type="line" smooth="yes"/>
      <point x="433" y="37"/>
      <point x="432" y="35"/>
      <point x="385" y="35" type="curve" smooth="yes"/>
      <point x="201" y="35" type="line"/>
      <point x="253" y="326" type="line"/>
      <point x="366" y="326" type="line"/>
      <point x="413" y="326"/>
      <point x="414" y="324"/>
      <point x="416" y="300" type="curve" smooth="yes"/>
      <point x="424" y="219" type="line"/>
      <point x="452" y="219" type="line"/>
      <point x="496" y="468" type="line"/>
      <point x="468" y="468" type="line"/>
      <point x="431" y="387" type="line" smooth="yes"/>
      <point x="420" y="363"/>
      <point x="420" y="361"/>
      <point x="373" y="361" type="curve"/>
      <point x="259" y="361" type="line"/>
      <point x="309" y="645" type="line"/>
      <point x="483" y="645" type="line" smooth="yes"/>
      <point x="530" y="645"/>
      <point x="529" y="643"/>
      <point x="532" y="619" type="curve" smooth="yes"/>
      <point x="545" y="508" type="line"/>
      <point x="573" y="508" type="line"/>
      <point x="603" y="680" type="line"/>
      <point x="118" y="680" type="line"/>
      <point x="113" y="652" type="line"/>
      <point x="167" y="645" type="line" smooth="yes"/>
      <point x="187" y="642"/>
      <point x="188" y="641"/>
      <point x="180" y="596" type="curve" smooth="yes"/>
      <point x="90" y="84" type="line" smooth="yes"/>
      <point x="82" y="39"/>
      <point x="81" y="38"/>
      <point x="59" y="35" type="curve" smooth="yes"/>
      <point x="3" y="28" type="line"/>
      <point x="-2" y="0" type="line"/>
      <point x="362" y="0" type="line"/>
      <point x="287" y="-27"/>
      <point x="222" y="-78"/>
      <point x="222" y="-139" type="curve" smooth="yes"/>
      <point x="222" y="-194"/>
      <point x="269" y="-223"/>
      <point x="335" y="-223" type="curve" smooth="yes"/>
      <point x="390" y="-223"/>
      <point x="438" y="-196"/>
    </contour>
  </outline>
</glyph>
<glyph name="eogonek" format="1">
  <advance width="496.7199558905704"/>
  <unicode hex="0119"/>
  <outline>
    <contour>
      <point x="400" y="-125" type="curve"/>
      <point x="338" y="-112" type="line"/>
      <point x="320" y="-171"/>
      <point x="295" y="-189"/>
      <point x="268" y="-189" type="curve" smooth="yes"/>
      <point x="244" y="-189"/>
      <point x="233" y="-174"/>
      <point x="233" y="-143" type="curve" smooth="yes"/>
      <point x="233" y="-32"/>
      <point x="380" y="-6"/>
      <point x="440" y="98" type="curve"/>
      <point x="387" y="128" type="line"/>
      <point x="360" y="51"/>
      <point x="296" y="25"/>
      <point x="253" y="25" type="curve" smooth="yes"/>
      <point x="177" y="25"/>
      <point x="149" y="90"/>
      <point x="168" y="219" type="curve"/>
      <point x="206" y="222" type="line" smooth="yes"/>
      <point x="367" y="233"/>
      <point x="480" y="293"/>
      <point x="480" y="397" type="curve" smooth="yes"/>
      <point x="480" y="459"/>
      <point x="425" y="517"/>
      <point x="322" y="517" type="curve" smooth="yes"/>
      <point x="184" y="517"/>
      <point x="80" y="421"/>
      <point x="55" y="282" type="curve" smooth="yes"/>
      <point x="51" y="260" type="line" smooth="yes"/>
      <point x="22" y="98"/>
      <point x="97" y="-10"/>
      <point x="244" y="-10" type="curve" smooth="yes"/>
      <point x="256" y="-10"/>
      <point x="268" y="-9"/>
      <point x="281" y="-8" type="curve"/>
      <point x="219" y="-39"/>
      <point x="151" y="-72"/>
      <point x="151" y="-139" type="curve" smooth="yes"/>
      <point x="151" y="-194"/>
      <point x="198" y="-223"/>
      <point x="264" y="-223" type="curve" smooth="yes"/>
      <point x="319" y="-223"/>
      <point x="367" y="-196"/>
    </contour>
    <contour>
      <point x="180" y="295" type="line" smooth="yes"/>
      <point x="202" y="426"/>
      <point x="256" y="482"/>
      <point x="316" y="482" type="curve" smooth="yes"/>
      <point x="358" y="482"/>
      <point x="383" y="452"/>
      <point x="383" y="401" type="curve" smooth="yes"/>
      <point x="383" y="338"/>
      <point x="348" y="265"/>
      <point x="205" y="256" type="curve" smooth="yes"/>
      <point x="173" y="254" type="line"/>
    </contour>
  </outline>
</glyph>
<glyph name="Hbar" format="1">
  <advance width="753"/>
  <unicode hex="0126"/>
  <outline>
    <contour>
      <point x="282" y="28" type="line"/>
      <point x="228" y="35" type="line" smooth="yes"/>
      <point x="208" y="38"/>
      <point x="207" y="39"/>
      <point x="215" y="84" type="curve" smooth="yes"/>
      <point x="258" y="326" type="line"/>
      <point x="520" y="326" type="line"/>
      <point x="478" y="84" type="line" smooth="yes"/>
      <point x="470" y="39"/>
      <point x="469" y="38"/>
      <point x="447" y="35" type="curve" smooth="yes"/>
      <point x="391" y="28" type="line"/>
      <point x="386" y="0" type="line"/>
      <point x="660" y="0" type="line"/>
      <point x="665" y="28" type="line"/>
      <point x="611" y="35" type="line" smooth="yes"/>
      <point x="591" y="38"/>
      <point x="590" y="39"/>
      <point x="598" y="84" type="curve" smooth="yes"/>
      <point x="670" y="493" type="line"/>
      <point x="747" y="493" type="line"/>
      <point x="753" y="526" type="line"/>
      <point x="676" y="526" type="line"/>
      <point x="688" y="596" type="line" smooth="yes"/>
      <point x="696" y="641"/>
      <point x="697" y="642"/>
      <point x="719" y="645" type="curve" smooth="yes"/>
      <point x="775" y="652" type="line"/>
      <point x="780" y="680" type="line"/>
      <point x="506" y="680" type="line"/>
      <point x="501" y="652" type="line"/>
      <point x="555" y="645" type="line" smooth="yes"/>
      <point x="575" y="642"/>
      <point x="576" y="641"/>
      <point x="568" y="596" type="curve" smooth="yes"/>
      <point x="556" y="526" type="line"/>
      <point x="293" y="526" type="line"/>
      <point x="305" y="596" type="line" smooth="yes"/>
      <point x="313" y="641"/>
      <point x="314" y="642"/>
      <point x="336" y="645" type="curve" smooth="yes"/>
      <point x="392" y="652" type="line"/>
      <point x="397" y="680" type="line"/>
      <point x="123" y="680" type="line"/>
      <point x="118" y="652" type="line"/>
      <point x="172" y="645" type="line" smooth="yes"/>
      <point x="192" y="642"/>
      <point x="193" y="641"/>
      <point x="185" y="596" type="curve" smooth="yes"/>
      <point x="173" y="526" type="line"/>
      <point x="96" y="526" type="line"/>
      <point x="90" y="493" type="line"/>
      <point x="167" y="493" type="line"/>
      <point x="95" y="84" type="line" smooth="yes"/>
      <point x="87" y="39"/>
      <point x="86" y="38"/>
      <point x="64" y="35" type="curve" smooth="yes"/>
      <point x="8" y="28" type="line"/>
      <point x="3" y="0" type="line"/>
      <point x="277" y="0" type="line"/>
    </contour>
    <contour>
      <point x="264" y="361" type="line"/>
      <point x="287" y="493" type="line"/>
      <point x="550" y="493" type="line"/>
      <point x="527" y="361" type="line"/>
    </contour>
  </outline>
</glyph>
